<svg xmlns="http://www.w3.org/2000/svg" xmlns:xlink="http://www.w3.org/1999/xlink" width="794" height="794" viewBox="0 0 794 794">
  <defs>
    <clipPath id="clip-path">
      <circle id="Ellipse_11" data-name="Ellipse 11" cx="397" cy="397" r="397" transform="translate(8763 -1096)" fill="#252b2d"/>
    </clipPath>
    <linearGradient id="linear-gradient" x1="0.429" y1="0.298" x2="0.315" y2="1.286" gradientUnits="objectBoundingBox">
      <stop offset="0" stop-color="#b2c8ff"/>
      <stop offset="1" stop-color="#5ff"/>
    </linearGradient>
  </defs>
  <g id="ceo" transform="translate(-8763 1096)">
    <circle id="Ellipse_10" data-name="Ellipse 10" cx="397" cy="397" r="397" transform="translate(8763 -1096)" fill="#252b2d"/>
    <g id="Mask_Group_4" data-name="Mask Group 4" clip-path="url(#clip-path)">
      <g id="users-13" transform="translate(8831.098 -1017.556)">
        <path id="body-bg-flat" d="M111.181,562.3s-15.4-134.978,117.235-150.037H285.17V386.12s39.923,17.147,80.349,1.913l1.276,24.232h66.319S548.606,423.8,541.622,562.3Z" transform="translate(1.19 150.882)" fill="url(#linear-gradient)"/>
        <path id="Rounded_Rectangle_13_copy_3" data-name="Rounded Rectangle 13 copy 3" d="M541.709,557.288H108.228l2.058-35.168c4.019-68.664,58.12-121.068,120.03-121.068H286.36v7.016H234.075c-59.67,0-111.812,50.439-115.686,116.533L116.961,549H540.585l-.792-24.4c-3.874-66.094-56.016-116.533-115.684-116.533H371.174v-7.016h56.315c61.912,0,116.011,52.4,120.03,121.068l2.06,35.168Z" transform="translate(0 158.268)" fill="#3b434f"/>
        <path id="neck_copy_7" data-name="neck copy 7" d="M232.721,384.983v39.33a36.986,36.986,0,0,0,73.972,0V385.794q3.219-.98,6.377-2.13V424.58a43.682,43.682,0,1,1-87.363,0V382.454Q229.173,383.824,232.721,384.983Z" transform="translate(58.104 149.069)" fill="#3b434f"/>
        <path id="Rounded_Rectangle_2" data-name="Rounded Rectangle 2" d="M340.105,467.87l-18.062,37.674a3.826,3.826,0,1,1-6.9-3.307l17.445-36.386-13.631-23.61a3.826,3.826,0,1,1,6.627-3.826l14.666,25.405A3.821,3.821,0,0,1,340.105,467.87Z" transform="translate(102.151 175.8)" fill="#3b434f"/>
        <path id="Rounded_Rectangle_2_copy_3" data-name="Rounded Rectangle 2 copy 3" d="M178.58,467.927l18.161,37.789a3.845,3.845,0,0,0,6.936-3.318L186.14,465.9l13.7-23.682a3.845,3.845,0,0,0-6.663-3.838l-14.746,25.483A3.826,3.826,0,0,0,178.58,467.927Z" transform="translate(34.469 175.78)" fill="#3b434f"/>
        <path id="Rectangle_24" data-name="Rectangle 24" d="M225.707,400.2h7.014V555.159h-7.014Z" transform="translate(58.104 157.846)" fill="#3b434f"/>
        <path id="Rectangle_24_copy" data-name="Rectangle 24 copy" d="M279.893,401.053h7.016V556.012h-7.016Z" transform="translate(84.903 158.268)" fill="#3b434f"/>
        <path id="_2_copy_5" data-name="2 copy 5" d="M302.529,116.467c79.33,0,141.944,74.133,139.908,163.206l-2.164,94.669c-1.918,83.915-63.568,150.246-137.744,150.246S166.7,458.257,164.784,374.342l-2.163-94.669C160.584,190.6,223.2,116.467,302.529,116.467Z" transform="translate(26.878 17.515)" fill="url(#linear-gradient)"/>
        <path id="_2_line" data-name="2 line" d="M451.132,279.9l-2.267,98.516c-2.009,87.324-66.608,156.35-144.334,156.35S162.207,465.743,160.2,378.419L157.93,279.9c-2.133-92.691,63.477-169.836,146.6-169.836S453.266,187.212,451.132,279.9ZM304.212,120.269c-78.245,0-140,73.555-138,161.931l2.134,93.93c1.892,83.26,62.7,149.073,135.861,149.073s133.97-65.813,135.862-149.073l2.134-93.93C444.216,193.824,382.459,120.269,304.212,120.269Z" transform="translate(24.557 14.35)" fill="#3b434f" fill-rule="evenodd"/>
        <path id="Rounded_Rectangle_3" data-name="Rounded Rectangle 3" d="M246.6,355.827h30.609a2.551,2.551,0,1,1,0,5.1H246.6a2.551,2.551,0,1,1,0-5.1Z" transform="translate(67.177 135.9)" fill="#3b434f"/>
        <path id="_2" data-name="2" d="M227.838,337.124l3.553-4.971a80.889,80.889,0,0,0,79.458-.221l3.72,5.135a88.056,88.056,0,0,1-86.731.057Z" transform="translate(59.158 124.081)" fill="#3b434f"/>
        <path id="Shape_11_copy" data-name="Shape 11 copy" d="M168.255,234.341a15.494,15.494,0,0,0-4.488-2.155,21.155,21.155,0,0,0-5.348-.931c-.517-.022-1.049-.028-1.593-.012s-1.1.051-1.666.112a20.493,20.493,0,0,0-3.478.676c-4.709,1.354-9.513,4.645-12.335,11.437a38.333,38.333,0,0,0-2.6,13.013q-.094,2-.054,4.213t.223,4.633c.244,3.234.685,6.76,1.342,10.6a78.829,78.829,0,0,0,3.539,24.961c3.905,13.051,13.281,29.082,30.59,33.663-1.991-33.148-2.052-66.919-4.134-100.214Z" transform="translate(14.073 74.277)" fill="url(#linear-gradient)"/>
        <path id="Shape_3" data-name="Shape 3" d="M171.5,237.813s-30.156-9.343-29.094,21.658c0,0,4.488,44.953,6.439,49.1,0,0,11.843,26.173,31.388,27.333h0l.238,8.437s-34.353-4.4-40.988-43.993l-5.237-35.963s-4.067-47.6,35.375-35.493h0l1.879,8.926" transform="translate(12.807 72.142)" fill="#3b434f"/>
        <path id="Shape_4" data-name="Shape 4" d="M155.567,289.571a6.505,6.505,0,0,1-3.137,1.275,6.391,6.391,0,0,1-3.116-1.275L146.2,258.21s4.292-15.444,22.513-7.283l.432,8.968s-15.986-5.669-15.656,1.39C153.809,268.08,155.567,289.571,155.567,289.571Z" transform="translate(18.781 82.84)" fill="#3b434f"/>
        <path id="Shape_11_copy_1" data-name="Shape 11 copy_1" d="M355.187,234.39a15.6,15.6,0,0,1,4.509-2.154,21.26,21.26,0,0,1,5.37-.93q.78-.036,1.6-.013t1.674.112a20.687,20.687,0,0,1,3.493.676c4.73,1.353,9.555,4.642,12.39,11.429a38.192,38.192,0,0,1,2.608,13q.094,2,.054,4.21t-.223,4.63c-.245,3.231-.689,6.756-1.348,10.6a78.436,78.436,0,0,1-3.556,24.945c-3.922,13.042-13.338,29.062-30.724,33.64,2-33.126,2.063-66.874,4.152-100.146Z" transform="translate(120.089 74.302)" fill="url(#linear-gradient)"/>
        <path id="Shape_3_1" data-name="Shape 3_1" d="M358.207,237.86s30.286-9.338,29.221,21.643c0,0-4.509,44.921-6.467,49.063,0,0-11.9,26.155-31.525,27.314h0l-.238,8.431s34.5-4.4,41.167-43.963l5.259-35.939s4.083-47.562-35.531-35.47h0l-1.886,8.921" transform="translate(115.081 72.168)" fill="#3b434f"/>
        <path id="Shape_4_1" data-name="Shape 4_1" d="M363.684,289.581a6.549,6.549,0,0,0,3.152,1.275,6.434,6.434,0,0,0,3.13-1.275l3.127-31.34s-4.313-15.433-22.613-7.277l-.433,8.962s16.056-5.666,15.725,1.388C365.451,268.106,363.684,289.581,363.684,289.581Z" transform="translate(119.6 82.859)" fill="#3b434f"/>
        <path id="new_vector_shape_done" d="M268.952,274.333h2.233c4.614,6.267,6.491,15.9,8.927,24.233.755,2.583.022,7.1-.638,8.927-2.417,6.69-10.009,6.569-16.261,9.565-1.678.8-2.926,2.194-5.1,2.551-1.417-1.25-3.128-1.495-3.826-3.508-1.722-2.372.5-3.853,2.231-4.783,3.149-1.689,12.865-3.352,14.03-6.377,1.439-1.637.483-6.561,0-8.289-1.236-4.427-1.828-8.123-3.508-12.117-1.115-2.653-3.073-5.449-1.913-8.609C266.088,275.515,268.166,275.046,268.952,274.333Z" transform="translate(71.931 95.594)" fill="#3b434f" fill-rule="evenodd"/>
        <path id="eye" d="M213.288,238.067a12.753,12.753,0,1,1-12.755,12.753A12.753,12.753,0,0,1,213.288,238.067Z" transform="translate(45.653 77.657)" fill="#3b434f"/>
        <path id="eye_1" d="M308.008,238.067a12.753,12.753,0,1,1-12.755,12.753A12.754,12.754,0,0,1,308.008,238.067Z" transform="translate(92.5 77.657)" fill="#3b434f"/>
        <path id="Shape_1_copy_5" data-name="Shape 1 copy 5" d="M432.5,234.608V281.8c0,11.532-11.248,29.526-29.578,30.557-2.693-.129-57.147.052-57.147.052-24.48,0-29.334-29.334-29.334-29.334V251.187H293.479v31.884s-4.854,29.334-29.334,29.334c0,0-54.454-.181-57.147-.052-18.33-1.031-29.578-19.025-29.578-30.557V234.608H157.013V221.853h118.61s17.856,2.885,17.856,15.3h22.957c0-12.42,17.856-15.3,17.856-15.3H452.9v12.755Zm-151.769,6.376c0-4.545-5.1-5.1-5.1-5.1h-85.45v44.639c0,13.909,19.131,19.131,19.131,19.131H261.6c17.99,0,19.131-19.131,19.131-19.131Zm139.016-5.1h-85.45s-5.1.556-5.1,5.1v39.538s1.14,19.131,19.131,19.131h52.291s19.131-5.222,19.131-19.131Zm-17.856,76.523c.348-.007.687-.033,1.031-.052C403.206,312.367,402.916,312.385,401.886,312.406ZM207,312.353c.344.019.683.045,1.031.052C207,312.385,206.71,312.367,207,312.353Z" transform="translate(24.128 69.638)" fill="#3b434f" fill-rule="evenodd"/>
        <path id="Shape_6_copy_3" data-name="Shape 6 copy 3" d="M162.275,301.281s4.92-76.816,52.326-110.958c0,0,68.446,46.562,176.118,0,0,0,47.625,21.692,54.878,110.958h2.556s13.637-102.249-21.7-142.842c0,0-8.7-31.087-54.877-53.566l-16.591,10.2s-11.147-13.641-40.838-30.61c0,0-21.96,9.784-33.183,26.783L263.1,99.771S238.13,111.2,223.534,131.656l-26.8,3.826L182.694,160.99s-33.51,27-22.976,137.741Z" transform="translate(24.453 1.688)" fill="#3b434f"/>
        <path id="Shape_6_copy" data-name="Shape 6 copy" d="M454.521,302.969l-12.123-.637c-7.253-89.267-50.414-105.219-50.414-105.219-107.672,46.561-176.118-.638-176.118-.638-41.4,35.322-47.861,107.132-47.861,107.132l-10.848-3.188c-10.534-110.744,22.976-139.654,22.976-139.654l15.314-28.059,28.077-3.826C238.121,108.424,265,95.72,265,95.72l16.668,10.841c11.221-17,34.435-25.508,34.435-25.508,29.691,16.968,40.811,29.972,40.811,29.972l17.2-9.566c46.174,22.479,58.7,58.029,58.7,58.029C468.156,200.082,454.521,302.969,454.521,302.969ZM424.51,162.04s-5.479-27.9-51.653-50.378l-17.218,10.2s-11.12-13.641-40.813-30.609c0,0-20.024,10.422-31.246,27.421L264.45,106.561s-23.027,10.791-37.625,31.247l-25.507,3.826-13.391,24.232S160.111,187.11,163.057,273l.637-.638s8.849-53.388,52.173-86.088c0,0,70.359,47.837,178.031,1.276,0,0,39.778,18.706,53.569,85.45C447.467,273,455.653,204.35,424.51,162.04Z" transform="translate(23.187 0)" fill="#3b434f" fill-rule="evenodd"/>
        <path id="Shape_34" data-name="Shape 34" d="M245.473,457.43,263.408,438l19.43,19.43-10.462,10.462,16.44,67.256H238l17.935-67.256Z" transform="translate(64.184 176.541)" fill="#3b434f"/>
        <path id="Rectangle_24_copy_4" data-name="Rectangle 24 copy 4" d="M286.571,527.263,268.5,459.8l3.759-1.127,2.491-2.648,19.119,71.349Zm-50.986-.8,18.871-70.11,1.22,1.045,3.826,2.55,1.261.127-17.9,66.5Z" transform="translate(62.989 185.458)" fill="#3b434f" fill-rule="evenodd"/>
        <path id="Ellipse_6" data-name="Ellipse 6" d="M312.416,477.83l-4.961,4.959-19.3-19.3a21.014,21.014,0,0,1-36.048-.726L231.96,482.909l-4.972-4.972,39.665-39.665,3.1-2.876,3.1,2.876ZM256.01,458.861a15.6,15.6,0,0,0,27.859.342l-14.1-14.1Z" transform="translate(58.737 175.253)" fill="#3b434f" fill-rule="evenodd"/>
        <path id="new_vector_shape_done_copy" data-name="new_vector_shape_done copy" d="M275.4,103.733c.939.7.474,1.344.271,2.216-.3,1.3-.665,2.59-.868,3.89a52.475,52.475,0,0,0-.668,5.881c-.069,1.634-.039,3.261-.01,4.878.016.934.176,1.867.2,2.8.009.374.111.747.121,1.128.024.1.046.206.069.308.013.478.139.934.152,1.409q.117.648.233,1.294a15.332,15.332,0,0,0,.38,2.064c.022.17.046.341.069.511.166.531.22,1.076.387,1.607l.036.315c.242.765.351,1.571.593,2.332.393,1.236.711,2.477,1.145,3.708.287.818.534,1.674.823,2.5.513,1.463,1.14,2.892,1.705,4.34.344.882.806,1.7,1.173,2.574,1.043,2.482,2.382,4.923,3.663,7.358.414.786.868,1.51,1.327,2.278.293.49.6,1.039.867,1.544.149.28.336.49.5.761.351.589.732,1.221,1.079,1.813.321.549.683,1.016,1.036,1.55.383.575.759,1.223,1.146,1.8.673,1,1.384,1.976,2.051,2.968.691,1.031,1.468,1.944,2.2,2.961,1.418,1.968,3.077,3.858,4.606,5.835.459.592,1.006,1.109,1.463,1.681.229.285.611.535.765.835a3.075,3.075,0,0,1,.142.448,2.605,2.605,0,0,1,.055.734,6.264,6.264,0,0,1-.042,1.154,6.507,6.507,0,0,1-.5,1.264,2.306,2.306,0,0,1-.665.768c-.16.133-.227.256-.392.384a4.306,4.306,0,0,1-1.376.752c-.484.145-1.109-.29-1.492-.749-.67-.8-1.507-1.539-2.149-2.344-.136-.172-.288-.248-.424-.42-.741-.937-1.651-1.82-2.384-2.743-.167-.211-.35-.329-.513-.54-.568-.741-1.236-1.409-1.813-2.164-1.448-1.894-3.01-3.723-4.319-5.63-.306-.445-.635-.8-.934-1.245a107.884,107.884,0,0,1-5.948-9.512c-.447-.849-.942-1.622-1.36-2.475-1.188-2.42-2.3-4.839-3.313-7.282-.133-.32-.23-.679-.353-1-.557-1.465-1.061-2.913-1.562-4.382s-.791-3.03-1.263-4.515c-.1-.314-.13-.653-.23-.974-.013-.117-.028-.232-.042-.348-.109-.348-.121-.719-.227-1.058a18.74,18.74,0,0,1-.477-2.538,17.867,17.867,0,0,1-.335-2.408c-.03-.146-.061-.293-.091-.441-.015-.525-.146-1.042-.16-1.559-.022-.9-.166-1.8-.182-2.7-.021-1.121-.064-2.245-.058-3.366s.1-2.219.164-3.351a55.016,55.016,0,0,1,1.478-9.325c.268-1.151.7-2.278,1.061-3.432.251-.8.644-1.562.924-2.348.073-.2.187-.326.266-.532a2.707,2.707,0,0,1,.8-1.281,1.217,1.217,0,0,1,.821-.136C275.17,103.621,275.265,103.737,275.4,103.733Zm-29.926,21.982a1.992,1.992,0,0,1,.643,1.817c.016.629.2,1.255.214,1.889.073.438.148.876.221,1.314a7.36,7.36,0,0,0,.157,1.037,7.865,7.865,0,0,0,.194,1.064c.066.395.132.788.2,1.182.108.347.121.717.227,1.06.332,1.054.457,2.173.794,3.225.357,1.116.617,2.272,1,3.378.508,1.45,1,2.908,1.556,4.349.282.737.619,1.426.919,2.16.23.562.448,1.173.71,1.722,1.088,2.279,2.211,4.555,3.406,6.827.946,1.8,2.076,3.515,3.113,5.289.32.547.682,1.018,1.037,1.55.8,1.2,1.652,2.453,2.472,3.674.774,1.155,1.705,2.233,2.521,3.363.133.185.287.285.416.471.414.6.955,1.172,1.409,1.759.229.294.519.5.726.807a3.874,3.874,0,0,1,.522,2.714,4.262,4.262,0,0,1-2.684,2.621,2.047,2.047,0,0,1-1.1.2,2.52,2.52,0,0,1-1.145-.991c-.39-.49-.843-.846-1.22-1.333-.7-.9-1.516-1.711-2.212-2.621-1.457-1.907-2.95-3.751-4.245-5.693a80.187,80.187,0,0,1-7.424-13.687c-.806-1.934-1.454-3.929-2.1-5.9-.23-.7-.357-1.45-.578-2.148-.3-.958-.439-1.946-.738-2.9-.016-.127-.031-.254-.048-.381-.048-.212-.12-.418-.155-.632-.025-.181-.051-.363-.075-.544a7.882,7.882,0,0,1-.2-1.1,7.782,7.782,0,0,1-.163-1.069l-.134-.7c-.027-.957-.257-1.894-.277-2.858,0-.227-.076-.468-.082-.695-.022-.921-.114-1.844-.109-2.765,0-1.049,0-2.116.061-3.167.025-.413.1-.8.117-1.217.019-.454.1-.891.16-1.36a5.812,5.812,0,0,1,.12-.9,1.612,1.612,0,0,1,.649-.867,1.388,1.388,0,0,1,.741-.106C245.243,125.6,245.338,125.72,245.474,125.715Zm-22.867,4.766c.762.56.552,1.266.546,1.952-.007,1.1.1,2.2.132,3.3.022.874.247,1.744.271,2.622l.157.834a6.421,6.421,0,0,0,.263,1.577c.013.115.028.232.042.347a5.9,5.9,0,0,0,.184.8l.058.447c.2.625.257,1.3.456,1.915.475,1.484.855,3,1.375,4.481a71.069,71.069,0,0,0,4.316,9.444c.537,1.021,1.206,1.97,1.749,2.985.232.432.535.783.792,1.2.7,1.143,1.516,2.285,2.278,3.42,1.055,1.569,2.342,3,3.464,4.556.393.546.889,1.019,1.27,1.545.341.466.78.818,1.143,1.278.72.913,1.628,1.783,2.391,2.692.441.526.966.951,1.393,1.457.477.568,1.076,1.021,1.545,1.566l.356.312c.478.568,1.148,1.069,1.641,1.635.211.242.46.356.674.6.692.788,1.669,1.426,2.381,2.221.2.227.474.381.655.584l.23.164c.245.274.628.523.877.8l.248.178c.407.451,1.034.809,1.444,1.263l.326.233c.525.578,1.354.992,1.885,1.577l.716.54c.117.129.368.239.5.39.362.4.972.71,1.365,1.09.232.224.6.38.792.595.172.19.486.317.638.484q.746.536,1.495,1.069c1.181.843,2.357,1.634,3.5,2.442a6.216,6.216,0,0,1,1.545,1.161,3.819,3.819,0,0,1,.362.952,3.908,3.908,0,0,1,.127,2.173c-.057.22-.172.369-.254.6a3.144,3.144,0,0,1-.746,1.288,10.018,10.018,0,0,1-.807.723c-.438.3-.915.141-1.448-.081l-.513-.336c-.819-.351-1.583-1.1-2.4-1.459-.158-.069-.324-.239-.454-.3l-.819-.556c-.3-.13-.571-.445-.91-.592a5.115,5.115,0,0,1-.852-.552l-.306-.218a5.513,5.513,0,0,1-.852-.552l-1.112-.794a8.036,8.036,0,0,1-1.223-.844,6.756,6.756,0,0,1-.983-.731l-.652-.466c-.453-.324-.9-.644-1.3-.983l-.652-.466c-.314-.347-.859-.61-1.172-.954-.148-.1-.294-.209-.441-.315-.229-.251-.622-.471-.847-.72l-.383-.274c-.173-.191-.483-.392-.656-.583l-.306-.22c-.6-.664-1.475-1.166-2.06-1.819l-.549-.448c-.755-.85-1.777-1.533-2.506-2.37-.2-.227-.421-.33-.617-.556-.674-.783-1.533-1.481-2.184-2.254-.106-.127-.211-.157-.317-.284-.306-.368-.7-.747-1-1.118-.137-.173-.287-.245-.424-.418-1.027-1.3-2.233-2.453-3.228-3.751a71.933,71.933,0,0,1-4.99-6.92c-.315-.537-.69-.986-1-1.521-.543-.949-1.133-1.883-1.643-2.85-.8-1.516-1.542-3.043-2.267-4.569-.511-1.073-.915-2.228-1.333-3.324-.344-.9-.673-1.771-.988-2.671s-.534-1.805-.824-2.7-.415-1.873-.7-2.786c-.109-.347-.1-.785-.206-1.13a19.671,19.671,0,0,1-.478-2.654,48.515,48.515,0,0,1-.417-11.456c.063-.9.25-1.749.4-2.665a1.763,1.763,0,0,1,.667-1.258,1.478,1.478,0,0,1,.789-.13C222.366,130.363,222.476,130.484,222.606,130.481Z" transform="translate(55.389 11.128)" fill="#3b434f" fill-rule="evenodd" opacity="0.2"/>
      </g>
    </g>
  </g>
</svg>
