<svg xmlns="http://www.w3.org/2000/svg" xmlns:xlink="http://www.w3.org/1999/xlink" width="794" height="794" viewBox="0 0 794 794">
  <defs>
    <clipPath id="clip-path">
      <circle id="Ellipse_11" data-name="Ellipse 11" cx="397" cy="397" r="397" transform="translate(8763 -1096)" fill="#252b2d"/>
    </clipPath>
    <linearGradient id="linear-gradient" x1="0.429" y1="0.298" x2="0.315" y2="1.286" gradientUnits="objectBoundingBox">
      <stop offset="0" stop-color="#b2c8ff"/>
      <stop offset="1" stop-color="#5ff"/>
    </linearGradient>
  </defs>
  <g id="cmo" transform="translate(-8763 1096)">
    <circle id="Ellipse_10" data-name="Ellipse 10" cx="397" cy="397" r="397" transform="translate(8763 -1096)" fill="#252b2d"/>
    <g id="Mask_Group_4" data-name="Mask Group 4" clip-path="url(#clip-path)">
      <g id="users-4" transform="translate(8814.909 -1046.57)">
        <path id="body-bg" d="M112.307,573.741S93.074,425.42,241.33,412.015h35.591s11.65-7.53,19.851-7.53V383.267s44.426,22.151,90.35.683v19.166s1.951-3.669,21.9,9.582h53.389s113.515,14,113.515,161.043Z" transform="translate(1.972 165.074)" fill="url(#linear-gradient)"/>
        <path id="Rounded_Rectangle_13_copy_4" data-name="Rounded Rectangle 13 copy 4" d="M573.507,568.749H108.228L110.437,531c4.314-73.7,62.383-129.949,128.835-129.949h45.695a30.808,30.808,0,0,0-6.7,7.53H243.307c-64.047,0-120.014,54.139-124.172,125.081L117.6,559.85H572.3l-.85-26.186c-4.158-70.942-60.125-125.081-124.17-125.081H412.289a28.7,28.7,0,0,0-5.9-7.53h44.516c66.453,0,124.521,56.247,128.835,129.949l2.211,37.747ZM392.853,408.583h-2.39v-7.53h2.657C392.96,403.01,392.857,405.477,392.853,408.583Zm-96.271-7.53h2.846v7.53h-2.459C296.931,405.386,296.785,402.932,296.582,401.053Z" transform="translate(0 175.821)" fill="#3b434f" fill-rule="evenodd"/>
        <path id="Ellipse_5" data-name="Ellipse 5" d="M271.032,466.333a4.792,4.792,0,1,1-4.792,4.792A4.792,4.792,0,0,1,271.032,466.333Z" transform="translate(95.475 215.264)" fill="#3b434f"/>
        <path id="Ellipse_5_copy" data-name="Ellipse 5 copy" d="M271.032,485.96a4.791,4.791,0,1,1-4.792,4.792A4.791,4.791,0,0,1,271.032,485.96Z" transform="translate(95.475 227.124)" fill="#3b434f"/>
        <path id="Shape_2_copy_9" data-name="Shape 2 copy 9" d="M362.308,450.719,327.4,502.737c-9.5-29.433-36.961-18.481-36.961-18.481v86.931c0,2.267-2.146,4.1-4.792,4.1s-4.792-1.837-4.792-4.1V484.255c-.221-.088-27.469-10.83-36.915,18.482l-34.871-52.019s-13.488-34.293,27.349-49.282V385.693h7.723v49.545c.991,8.528,6.863,32.829,41.506,40.805,34.68-7.976,40.56-32.277,41.551-40.805V385.693h7.731v15.744C375.81,416.425,362.308,450.719,362.308,450.719Zm-118.774,4.6a49.5,49.5,0,0,1-4.542-7.343s-2.575-8.567-2.575-12.32V418.3c-.582-7.83-2.05-7.965-2.05-7.965-30.471,15.009-17.093,38.331-17.093,38.331l25.3,39.7c9.879-16.738,20.512-13.689,20.512-13.689A47.053,47.053,0,0,1,243.534,455.323Zm93.448-44.989s-1.471.135-2.053,7.965V435.66c0,3.754-2.576,12.32-2.576,12.32a49.438,49.438,0,0,1-4.548,7.343,47.083,47.083,0,0,1-19.57,19.352s10.644-3.05,20.534,13.689l25.326-39.7S367.484,425.343,336.982,410.334Z" transform="translate(59.641 166.54)" fill="#3b434f" fill-rule="evenodd"/>
        <path id="_2_copy_5" data-name="2 copy 5" d="M312.8,116.467c85.149,0,152.356,79.571,150.171,175.178l-2.323,101.613c-2.058,90.071-68.231,161.268-147.849,161.268s-145.79-71.2-147.85-161.268l-2.321-101.613C160.438,196.038,227.647,116.467,312.8,116.467Z" transform="translate(32.836 3.867)" fill="url(#linear-gradient)"/>
        <path id="_2_line" data-name="2 line" d="M472.644,292.361,470.21,398.1c-2.156,93.73-71.494,167.819-154.921,167.819S162.525,491.834,160.367,398.1l-2.434-105.742c-2.289-99.491,68.133-182.294,157.355-182.294S474.935,192.871,472.644,292.361Zm-157.7-171.344c-83.984,0-150.274,78.95-148.118,173.81l2.291,100.821c2.031,89.368,67.3,160.009,145.827,160.009s143.8-70.64,145.829-160.009l2.291-100.821C465.221,199.968,398.933,121.017,314.947,121.017Z" transform="translate(30 0)" fill="#3b434f" fill-rule="evenodd"/>
        <path id="_1_copy_4" data-name="1 copy 4" d="M468.469,234.653l-6.845,112.254s-30.4,129.575-147.845,144.916v.191c-.231-.029-.454-.066-.685-.095-.229.029-.452.066-.683.095v-.191C194.965,476.482,164.565,346.907,164.565,346.907L157.72,234.653c30.477,135.279,56.127,143.738,56.127,143.738-5.191-41.022,36.961-36.961,36.961-36.961a531.421,531.421,0,0,0,62.286,7.221,531.4,531.4,0,0,0,62.287-7.221s42.153-4.06,36.961,36.961C412.342,378.391,437.992,369.932,468.469,234.653ZM392.359,392.3c-1.992-24.129-16.543-22.084-16.543-22.084-25.868,7.612-46.173,11.841-62.037,13.989v-.157c-15.752-2.132-35.915-6.326-61.6-13.875,0,0-14.449-2.029-16.427,21.9,0,0-5.8,23.977,13.689,34.223l24.641,26.009s16.84,5.337,16.427-15.057c0,0-1.713-15.211,8.214-17.8h15.059v.451h15.165c10,2.607,8.271,17.943,8.271,17.943-.414,20.565,16.543,15.182,16.543,15.182l24.816-26.224C398.2,416.482,392.359,392.3,392.359,392.3Z" transform="translate(29.904 75.278)" fill="#3b434f" fill-rule="evenodd" opacity="0.059"/>
        <path id="usta" d="M357.409,330.065c-12.441,10.8-40.542,21.081-73.238,21.081s-60.8-10.278-73.239-21.081c0,0-1.272-3.5.6-5.371a6.331,6.331,0,0,1,4.882-1.487c12.428,10.809,35.054,19.726,67.762,19.726s55.335-8.916,67.762-19.726c0,0,3.04-1.129,4.516.346C359.294,326.4,357.409,330.065,357.409,330.065Z" transform="translate(61.801 128.534)" fill="#3b434f"/>
        <path id="_-" data-name="-" d="M242.347,350.707h43.8v6.844h-43.8Z" transform="translate(81.038 145.4)" fill="#3b434f"/>
        <path id="Shape_11_copy" data-name="Shape 11 copy" d="M170.571,234.569a16.63,16.63,0,0,0-4.817-2.313,22.707,22.707,0,0,0-5.74-1c-.555-.024-1.126-.03-1.71-.013s-1.182.055-1.789.12a22,22,0,0,0-3.733.725c-5.055,1.453-10.211,4.986-13.24,12.276a41.143,41.143,0,0,0-2.788,13.968q-.1,2.151-.058,4.522t.239,4.973c.262,3.472.735,7.256,1.441,11.382a84.612,84.612,0,0,0,3.8,26.792c4.192,14.008,14.255,31.215,32.834,36.132-2.137-35.58-2.2-71.828-4.437-107.565Z" transform="translate(17.193 73.212)" fill="url(#linear-gradient)"/>
        <path id="Shape_3" data-name="Shape 3" d="M174.237,238.612s-32.368-10.028-31.228,23.247c0,0,4.817,48.25,6.911,52.7,0,0,12.712,28.093,33.69,29.338h0l.255,9.056s-36.873-4.728-43.994-47.22l-5.621-38.6s-4.365-51.087,37.97-38.1h0l2.017,9.58" transform="translate(15.646 70.603)" fill="#3b434f"/>
        <path id="Shape_4" data-name="Shape 4" d="M156.254,292.58a6.982,6.982,0,0,1-3.367,1.368,6.86,6.86,0,0,1-3.345-1.368l-3.34-33.661s4.607-16.576,24.164-7.817l.464,9.625s-17.159-6.085-16.8,1.492C154.368,269.513,156.254,292.58,156.254,292.58Z" transform="translate(22.945 83.673)" fill="#3b434f"/>
        <path id="Shape_11_copy_1" data-name="Shape 11 copy_1" d="M356.492,234.617a16.744,16.744,0,0,1,4.84-2.312,22.818,22.818,0,0,1,5.764-1q.837-.038,1.718-.014t1.8.12a22.2,22.2,0,0,1,3.749.725c5.077,1.452,10.256,4.983,13.3,12.268a40.993,40.993,0,0,1,2.8,13.958q.1,2.149.058,4.519t-.239,4.97c-.263,3.468-.74,7.251-1.447,11.374A84.185,84.185,0,0,1,385.013,306C380.8,320,370.7,337.2,352.035,342.11c2.146-35.556,2.214-71.779,4.457-107.493Z" transform="translate(147.314 73.242)" fill="#f7fbfb"/>
        <path id="Shape_3_1" data-name="Shape 3_1" d="M359.476,238.659s32.508-10.023,31.364,23.231c0,0-4.84,48.217-6.941,52.662,0,0-12.768,28.074-33.838,29.317h0l-.255,9.049s37.034-4.724,44.187-47.188l5.645-38.575s4.383-51.051-38.137-38.071h0l-2.025,9.576" transform="translate(140.591 70.635)" fill="#3b434f"/>
        <path id="Shape_4_1" data-name="Shape 4_1" d="M364.685,292.589a7.029,7.029,0,0,0,3.383,1.368,6.906,6.906,0,0,0,3.359-1.368l3.356-33.639s-4.63-16.565-24.272-7.811l-.465,9.619s17.234-6.082,16.878,1.49C366.581,269.538,364.685,292.589,364.685,292.589Z" transform="translate(146.112 83.696)" fill="#3b434f"/>
        <path id="Shape_11" data-name="Shape 11" d="M355.017,234.611a16.594,16.594,0,0,1,4.822-2.325,22.681,22.681,0,0,1,5.746-1c.555-.026,1.128-.03,1.712-.014s1.184.056,1.792.122a21.921,21.921,0,0,1,3.736.728c5.06,1.46,10.224,5.008,13.256,12.333a41.53,41.53,0,0,1,2.791,14.032q.1,2.161.058,4.543t-.239,5c-.263,3.486-.736,7.29-1.444,11.433a85.243,85.243,0,0,1-3.8,26.916c-4.2,14.074-14.27,31.361-32.871,36.3,2.14-35.745,2.206-72.161,4.444-108.064Z" transform="translate(146.431 73.228)" fill="url(#linear-gradient)"/>
        <path id="Shape_3_2" data-name="Shape 3_2" d="M359.917,238.659s32.508-10.023,31.364,23.231c0,0-4.84,48.217-6.941,52.662,0,0-12.766,28.074-33.838,29.317h0l-.255,9.049s37.034-4.724,44.187-47.188l5.645-38.575s4.384-51.051-38.137-38.071h0l-2.025,9.576" transform="translate(140.857 70.635)" fill="#3b434f"/>
        <path id="Shape_4_2" data-name="Shape 4_2" d="M365.125,292.589h6.743l3.356-33.639s-4.63-16.565-24.272-7.811l-.465,9.619s17.234-6.082,16.878,1.49C367.021,269.538,365.125,292.589,365.125,292.589Z" transform="translate(146.378 83.696)" fill="#3b434f"/>
        <path id="new_vector_shape_done" d="M270.074,274.333h2.4c4.952,6.727,6.967,17.064,9.582,26.011.81,2.772.024,7.622-.685,9.582-2.594,7.181-10.744,7.051-17.454,10.267-1.8.863-3.141,2.355-5.475,2.738-1.521-1.341-3.358-1.6-4.107-3.765-1.848-2.546.534-4.136,2.4-5.134,3.38-1.813,13.809-3.6,15.059-6.845,1.545-1.757.518-7.043,0-8.9-1.327-4.752-1.962-8.719-3.765-13.005-1.2-2.847-3.3-5.849-2.053-9.24C267,275.6,269.23,275.1,270.074,274.333Z" transform="translate(87.876 99.253)" fill="#3b434f" fill-rule="evenodd"/>
        <path id="Rounded_Rectangle_8" data-name="Rounded Rectangle 8" d="M208.409,241.48h9.582a9.583,9.583,0,1,1,0,19.166h-9.582a9.583,9.583,0,0,1,0-19.166Z" transform="translate(54.742 79.403)" fill="#3b434f"/>
        <path id="Rounded_Rectangle_8_copy" data-name="Rounded Rectangle 8 copy" d="M305.689,241.48h9.582a9.583,9.583,0,1,1,0,19.166h-9.582a9.583,9.583,0,0,1,0-19.166Z" transform="translate(113.521 79.403)" fill="#3b434f"/>
        <path id="Rounded_Rectangle_10" data-name="Rounded Rectangle 10" d="M184.517,226.12h91.718a9.582,9.582,0,0,1,9.582,9.582v58.865a9.582,9.582,0,0,1-9.582,9.582H184.517a9.583,9.583,0,0,1-9.584-9.582V235.7A9.583,9.583,0,0,1,184.517,226.12Z" transform="translate(40.305 70.122)" fill="#3b434f" opacity="0.149"/>
        <path id="Rounded_Rectangle_10_copy" data-name="Rounded Rectangle 10 copy" d="M276.677,226.12h91.718a9.582,9.582,0,0,1,9.582,9.582v58.865a9.582,9.582,0,0,1-9.582,9.582H276.677a9.583,9.583,0,0,1-9.584-9.582V235.7A9.583,9.583,0,0,1,276.677,226.12Z" transform="translate(95.99 70.122)" fill="#3b434f" opacity="0.149"/>
        <path id="Shape_1_copy_5" data-name="Shape 1 copy 5" d="M452.7,235.543v50.65c0,12.378-12.073,31.691-31.748,32.8-2.891-.138-61.339.056-61.339.056-26.276,0-31.486-31.486-31.486-31.486V253.339H303.49v34.223S298.279,319.048,272,319.048c0,0-58.448-.194-61.339-.056-19.674-1.107-31.748-20.42-31.748-32.8v-50.65h-21.9v-13.69H284.324s19.166,3.1,19.166,16.427h24.641c0-13.331,19.166-16.427,19.166-16.427H474.608v13.69Zm-162.9,6.844c0-4.878-5.477-5.475-5.477-5.475H192.606v47.913c0,14.929,20.534,20.534,20.534,20.534h56.127c19.31,0,20.534-20.534,20.534-20.534Zm149.214-5.475H347.3s-5.477.6-5.477,5.475v42.438s1.224,20.534,20.534,20.534h56.127s20.534-5.605,20.534-20.534Zm-19.166,82.136c.374-.008.738-.035,1.107-.056C421.266,319.006,420.954,319.026,419.849,319.048Zm-209.184-.056c.369.021.733.048,1.107.056C210.666,319.026,210.355,319.006,210.665,318.992Z" transform="translate(29.477 67.544)" fill="#3b434f" fill-rule="evenodd"/>
      </g>
    </g>
  </g>
</svg>
