<svg xmlns="http://www.w3.org/2000/svg" xmlns:xlink="http://www.w3.org/1999/xlink" width="794" height="794" viewBox="0 0 794 794">
  <defs>
    <clipPath id="clip-path">
      <circle id="Ellipse_11" data-name="Ellipse 11" cx="397" cy="397" r="397" transform="translate(8763 -1096)" fill="#252b2d"/>
    </clipPath>
    <linearGradient id="linear-gradient" x1="0.429" y1="0.298" x2="0.315" y2="1.286" gradientUnits="objectBoundingBox">
      <stop offset="0" stop-color="#b2c8ff"/>
      <stop offset="1" stop-color="#5ff"/>
    </linearGradient>
  </defs>
  <g id="cpo" transform="translate(-8763 1096)">
    <circle id="Ellipse_10" data-name="Ellipse 10" cx="397" cy="397" r="397" transform="translate(8763 -1096)" fill="#252b2d"/>
    <g id="Mask_Group_4" data-name="Mask Group 4" clip-path="url(#clip-path)">
      <g id="users-9" transform="translate(8829.909 -1020.095)">
        <path id="body-bg-flat" d="M111.184,563.362s-15.49-135.79,117.941-150.94h57.1v-26.3s40.164,17.251,80.833,1.925l1.284,24.378h66.718s116.186,11.6,109.16,150.94Z" transform="translate(1.212 152.347)" fill="url(#linear-gradient)"/>
        <path id="Shape_34" data-name="Shape 34" d="M245.518,457.547,263.561,438l19.547,19.547-10.525,10.525,16.539,67.661H238l18.043-67.661Z" transform="translate(65.351 178.473)" fill="#3b434f"/>
        <path id="Rounded_Rectangle_13_copy_3" data-name="Rounded Rectangle 13 copy 3" d="M544.318,558.228H108.228l2.07-35.379c4.043-69.078,58.47-121.8,120.753-121.8h56.381v7.058h-52.6c-60.029,0-112.484,50.743-116.382,117.234l-1.437,24.543H543.187l-.8-24.543c-3.9-66.491-56.353-117.234-116.38-117.234H372.756v-7.058h56.653c62.284,0,116.709,52.719,120.753,121.8l2.072,35.379Z" transform="translate(0 159.867)" fill="#3b434f"/>
        <path id="neck_copy_7" data-name="neck copy 7" d="M232.763,385v39.567a37.208,37.208,0,0,0,74.417,0v-38.75q3.239-.985,6.416-2.143v41.162a43.944,43.944,0,1,1-87.889,0v-42.38Q229.194,383.832,232.763,385Z" transform="translate(59.16 150.501)" fill="#3b434f"/>
        <path id="Rounded_Rectangle_2" data-name="Rounded Rectangle 2" d="M340.258,468.058l-18.171,37.9a3.849,3.849,0,1,1-6.942-3.327l17.55-36.6-13.713-23.752a3.849,3.849,0,1,1,6.667-3.849L340.4,463.984A3.844,3.844,0,0,1,340.258,468.058Z" transform="translate(104.009 177.718)" fill="#3b434f"/>
        <path id="Rounded_Rectangle_2_copy_3" data-name="Rounded Rectangle 2 copy 3" d="M178.584,468.116l18.27,38.016a3.868,3.868,0,0,0,6.978-3.338l-17.643-36.717,13.786-23.824a3.868,3.868,0,0,0-6.7-3.861l-14.834,25.636A3.849,3.849,0,0,0,178.584,468.116Z" transform="translate(35.096 177.698)" fill="#3b434f"/>
        <path id="Rectangle_24" data-name="Rectangle 24" d="M225.707,400.2h7.056V556.091h-7.056Z" transform="translate(59.16 159.437)" fill="#3b434f"/>
        <path id="Rectangle_24_copy" data-name="Rectangle 24 copy" d="M279.893,401.053h7.058V556.944h-7.058Z" transform="translate(86.447 159.867)" fill="#3b434f"/>
        <path id="Rectangle_24_copy_4" data-name="Rectangle 24 copy 4" d="M287.878,527.692l-18.184-67.866,3.781-1.134,2.506-2.664,19.234,71.778Zm-51.293-.8,18.984-70.531,1.227,1.051,3.849,2.565,1.269.128L243.906,527Z" transform="translate(64.638 187.551)" fill="#3b434f" fill-rule="evenodd"/>
        <path id="Ellipse_6" data-name="Ellipse 6" d="M312.93,478.086l-4.99,4.989-19.416-19.416a21.14,21.14,0,0,1-36.265-.731L231.99,483.195l-5-5,39.9-39.9,3.12-2.893,3.121,2.893ZM256.185,459a15.7,15.7,0,0,0,28.027.344l-14.186-14.185Z" transform="translate(59.805 177.161)" fill="#3b434f" fill-rule="evenodd"/>
        <path id="_1_copy_4" data-name="1 copy 4" d="M302.848,125.427c81.237,0,143.036,71.244,139.729,152.768L438.09,388.829c-12.713,75.111-64.5,129.338-134.676,136.912-68.457-7.195-121.256-61.82-135.809-136.912L163.118,278.2C159.811,196.671,221.611,125.427,302.848,125.427Z" transform="translate(27.578 21.067)" fill="url(#linear-gradient)"/>
        <path id="_1_line" data-name="1 line" d="M454.567,277.37l-4.777,115.6c-13.529,78.482-68.643,135.143-143.333,143.055C233.6,528.506,177.4,471.43,161.915,392.967l-4.775-115.6c-3.52-85.181,62.253-159.623,148.713-159.623S458.085,192.189,454.567,277.37Zm-148.7-150.642c-81.237,0-143.037,71.246-139.729,152.768L170.62,390.13c14.553,75.092,67.353,129.717,135.809,136.912,70.18-7.572,121.963-61.8,134.676-136.912L445.592,279.5C448.9,197.974,387.1,126.728,305.863,126.728Z" transform="translate(24.563 17.199)" fill="#3b434f" fill-rule="evenodd"/>
        <path id="_-" data-name="-" d="M348.193,329.608c-11.66,10.125-38,19.759-68.643,19.759s-56.983-9.633-68.645-19.759c0,0-1.192-3.282.558-5.034a5.934,5.934,0,0,1,4.575-1.394c11.648,10.131,32.855,18.488,63.511,18.488s51.863-8.357,63.511-18.488c0,0,2.849-1.059,4.233.325C349.96,326.171,348.193,329.608,348.193,329.608Z" transform="translate(51.507 120.457)" fill="#3b434f"/>
        <path id="_-_1" data-name="-_1" d="M242.347,350.707H283.4v6.414H242.347Z" transform="translate(67.54 134.514)" fill="#3b434f"/>
        <path id="Shape_11_copy" data-name="Shape 11 copy" d="M168.445,234.36a15.587,15.587,0,0,0-4.515-2.168,21.283,21.283,0,0,0-5.38-.937c-.52-.023-1.056-.029-1.6-.012s-1.108.051-1.677.113a20.618,20.618,0,0,0-3.5.68c-4.738,1.362-9.57,4.673-12.409,11.505a38.562,38.562,0,0,0-2.613,13.092q-.095,2.016-.054,4.239t.224,4.661c.245,3.254.689,6.8,1.35,10.668a79.3,79.3,0,0,0,3.56,25.111c3.929,13.129,13.361,29.257,30.774,33.865-2-33.348-2.064-67.321-4.159-100.817Z" transform="translate(14.329 74.349)" fill="url(#linear-gradient)"/>
        <path id="Shape_3" data-name="Shape 3" d="M171.72,237.878s-30.338-9.4-29.269,21.788c0,0,4.515,45.223,6.477,49.391,0,0,11.914,26.331,31.577,27.5h0l.239,8.488s-34.56-4.431-41.234-44.258l-5.269-36.179s-4.091-47.882,35.588-35.707h0l1.89,8.979" transform="translate(13.04 72.175)" fill="#3b434f"/>
        <path id="Shape_4" data-name="Shape 4" d="M155.623,289.817a6.544,6.544,0,0,1-3.156,1.283,6.43,6.43,0,0,1-3.135-1.283l-3.13-31.55s4.318-15.536,22.648-7.327l.435,9.021s-16.082-5.7-15.75,1.4C153.855,268.2,155.623,289.817,155.623,289.817Z" transform="translate(19.123 83.068)" fill="#3b434f"/>
        <path id="Shape_11_copy_1" data-name="Shape 11 copy_1" d="M355.212,234.408a15.693,15.693,0,0,1,4.536-2.167,21.386,21.386,0,0,1,5.4-.935q.785-.036,1.61-.014c.55.015,1.113.053,1.684.113a20.811,20.811,0,0,1,3.514.68c4.759,1.361,9.612,4.67,12.465,11.5a38.422,38.422,0,0,1,2.624,13.083q.095,2.014.054,4.236t-.224,4.658c-.247,3.251-.693,6.8-1.356,10.66a78.9,78.9,0,0,1-3.577,25.095c-3.945,13.12-13.418,29.237-30.909,33.843,2.012-33.325,2.075-67.276,4.177-100.749Z" transform="translate(122.273 74.375)" fill="url(#linear-gradient)"/>
        <path id="Shape_3_1" data-name="Shape 3_1" d="M358.312,237.925s30.469-9.394,29.4,21.773c0,0-4.536,45.192-6.506,49.358,0,0-11.967,26.313-31.715,27.478h0l-.239,8.482s34.71-4.428,41.415-44.228l5.291-36.155s4.108-47.848-35.745-35.683h0l-1.9,8.975" transform="translate(117.174 72.202)" fill="#3b434f"/>
        <path id="Shape_4_1" data-name="Shape 4_1" d="M363.766,289.828a6.588,6.588,0,0,0,3.171,1.283,6.472,6.472,0,0,0,3.148-1.283l3.146-31.529s-4.339-15.526-22.749-7.321l-.436,9.015s16.153-5.7,15.819,1.4C365.543,268.223,363.766,289.828,363.766,289.828Z" transform="translate(121.775 83.087)" fill="#3b434f"/>
        <path id="new_vector_shape_done" d="M269.044,274.333h2.246c4.642,6.3,6.53,15.994,8.981,24.379.759,2.6.023,7.144-.642,8.981-2.431,6.73-10.07,6.608-16.359,9.623-1.689.809-2.944,2.207-5.132,2.567-1.425-1.257-3.147-1.5-3.849-3.529-1.732-2.386.5-3.876,2.245-4.811,3.168-1.7,12.943-3.372,14.114-6.416,1.448-1.646.486-6.6,0-8.339-1.243-4.454-1.839-8.172-3.529-12.19-1.122-2.669-3.091-5.482-1.925-8.661C266.163,275.522,268.253,275.05,269.044,274.333Z" transform="translate(73.239 96.053)" fill="#3b434f" fill-rule="evenodd"/>
        <path id="Rounded_Rectangle_8" data-name="Rounded Rectangle 8" d="M207.808,241.48h8.981a8.982,8.982,0,1,1,0,17.963h-8.981a8.982,8.982,0,0,1,0-17.963Z" transform="translate(45.624 79.509)" fill="#3b434f"/>
        <path id="Rounded_Rectangle_8_copy" data-name="Rounded Rectangle 8 copy" d="M305.088,241.48h8.981a8.982,8.982,0,1,1,0,17.963h-8.981a8.982,8.982,0,0,1,0-17.963Z" transform="translate(94.612 79.509)" fill="#3b434f"/>
        <path id="R_copy" data-name="R copy" d="M285.633,232.309s38.409-21.96,65.846,2.234l7.258,1.125s-9.3-33.826-76.983-11.832l1.884,6.306m1.5,0s39.074-22.442,64.834,5.9l13.272-.379s-16.553-36.134-84.5-13.335l6.395,9.313" transform="translate(85.87 66.067)" fill="#3b434f"/>
        <path id="R_copy_3" data-name="R copy 3" d="M254.346,232.343s-38.28-21.766-65.625,2.213l-7.234,1.116s9.265-33.527,76.726-11.726l-1.878,6.249m-1.5,0s-38.943-22.244-64.618,5.853l-13.227-.376s16.5-35.814,84.219-13.216l-6.374,9.23" transform="translate(34.628 66.162)" fill="#3b434f"/>
        <path id="Shape_1" data-name="Shape 1" d="M174.413,285.029s42.24-21.415,37.571-95.059c0,0,67.572,74.038,230.451,51.469l7.7,69.285s95.751-177.423-75.7-218.119c-167.788-39.827-169.721,65.25-169.721,65.25s-51.456-7.689-55.751,42.392,11.2,102.779,11.2,102.779l12.83,10.265Z" transform="translate(20.134)" fill="#3b434f"/>
      </g>
    </g>
  </g>
</svg>
