<svg xmlns="http://www.w3.org/2000/svg" xmlns:xlink="http://www.w3.org/1999/xlink" width="794" height="794" viewBox="0 0 794 794">
  <defs>
    <clipPath id="clip-path">
      <circle id="Ellipse_11" data-name="Ellipse 11" cx="397" cy="397" r="397" transform="translate(8763 -1096)" fill="#252b2d"/>
    </clipPath>
    <linearGradient id="linear-gradient" x1="0.429" y1="0.298" x2="0.315" y2="1.286" gradientUnits="objectBoundingBox">
      <stop offset="0" stop-color="#b2c8ff"/>
      <stop offset="1" stop-color="#5ff"/>
    </linearGradient>
  </defs>
  <g id="cto" transform="translate(-8763 1096)">
    <circle id="Ellipse_10" data-name="Ellipse 10" cx="397" cy="397" r="397" transform="translate(8763 -1096)" fill="#252b2d"/>
    <g id="Mask_Group_4" data-name="Mask Group 4" clip-path="url(#clip-path)">
      <g id="users-8" transform="translate(8813.36 -1026.926)">
        <path id="body-bg-flat" d="M116.209,570.343s-16.187-141.9,123.251-157.736h59.666V385.12s41.972,18.027,84.472,2.011l1.342,25.475h69.722s121.418,12.122,114.075,157.736Z" transform="translate(0.567 170.069)" fill="url(#linear-gradient)"/>
        <path id="Rounded_Rectangle_13" data-name="Rounded Rectangle 13" d="M570.366,565.305H114.641l2.164-36.972c4.227-72.188,61.1-127.28,126.19-127.28h49.535v7.376H246.946c-62.73,0-117.548,53.028-121.62,122.513l-1.5,25.648H569.185l-.833-25.648c-4.073-69.485-58.89-122.513-121.62-122.513H385.717v-7.376h64.569c65.087,0,121.963,55.092,126.19,127.28l2.164,36.972Z" transform="translate(0 179.171)" fill="#3b434f"/>
        <path id="Ellipse_4" data-name="Ellipse 4" d="M281.364,484.185a65.024,65.024,0,0,1-62.458-83.132h18.882v7.376H224.042a58.326,58.326,0,1,0,114.644,0H324.94v-7.376h18.882a65.024,65.024,0,0,1-62.458,83.132Z" transform="translate(58.095 179.171)" fill="#3b434f"/>
        <path id="neck" d="M236.081,385.113v41.348a38.884,38.884,0,0,0,77.768,0v-40.5q3.385-1.03,6.7-2.239v43.015a45.923,45.923,0,1,1-91.846,0V382.454Q232.351,383.894,236.081,385.113Z" transform="translate(65.164 168.546)" fill="#3b434f"/>
        <path id="_2_copy_5" data-name="2 copy 5" d="M312.711,116.467c83.4,0,149.228,77.937,147.088,171.581l-2.275,99.527c-2.016,88.221-66.83,157.956-144.813,157.956S169.915,475.8,167.9,387.574l-2.274-99.527C163.482,194.4,229.311,116.467,312.711,116.467Z" transform="translate(29.096 16.592)" fill="url(#linear-gradient)"/>
        <path id="_2_line" data-name="2 line" d="M469.18,288.618,466.8,392.189c-2.112,91.805-70.026,164.373-151.74,164.373s-149.627-72.568-151.74-164.373l-2.384-103.571c-2.242-97.448,66.734-178.551,154.124-178.551S471.424,191.17,469.18,288.618ZM314.722,120.793c-82.26,0-147.188,77.329-145.077,170.241l2.244,98.75c1.989,87.533,65.915,156.723,142.833,156.723s140.845-69.19,142.834-156.723l2.244-98.75C461.91,198.122,396.983,120.793,314.722,120.793Z" transform="translate(26.415 12.936)" fill="#3b434f" fill-rule="evenodd"/>
        <path id="Rounded_Rectangle_3" data-name="Rounded Rectangle 3" d="M249.735,355.827h32.18a2.681,2.681,0,1,1,0,5.363h-32.18a2.681,2.681,0,1,1,0-5.363Z" transform="translate(75.645 153.334)" fill="#3b434f"/>
        <path id="_2" data-name="2" d="M230.838,337.391l3.735-5.226a85.039,85.039,0,0,0,83.536-.232l3.911,5.4a92.574,92.574,0,0,1-91.182.06Z" transform="translate(66.381 139.683)" fill="#3b434f"/>
        <path id="Shape_11_copy" data-name="Shape 11 copy" d="M172.875,234.5a16.289,16.289,0,0,0-4.719-2.266,22.241,22.241,0,0,0-5.622-.979c-.544-.024-1.1-.03-1.675-.013s-1.158.053-1.752.118a21.545,21.545,0,0,0-3.656.71c-4.951,1.424-10,4.884-12.968,12.023a40.3,40.3,0,0,0-2.731,13.681q-.1,2.107-.057,4.429t.234,4.871c.256,3.4.72,7.107,1.411,11.148a82.875,82.875,0,0,0,3.721,26.242c4.106,13.72,13.962,30.574,32.159,35.39-2.093-34.85-2.157-70.353-4.346-105.356Z" transform="translate(14.306 82.156)" fill="url(#linear-gradient)"/>
        <path id="Shape_3" data-name="Shape 3" d="M176.413,238.372s-31.7-9.822-30.587,22.769c0,0,4.719,47.259,6.769,51.615,0,0,12.451,27.516,33,28.736h0l.25,8.87s-36.116-4.631-43.091-46.251L137.247,266.3s-4.275-50.037,37.191-37.315h0l1.975,9.384" transform="translate(12.843 79.69)" fill="#3b434f"/>
        <path id="Shape_4" data-name="Shape 4" d="M159.048,291.676a6.839,6.839,0,0,1-3.3,1.34,6.72,6.72,0,0,1-3.276-1.34l-3.271-32.97s4.513-16.236,23.668-7.657l.454,9.428s-16.806-5.96-16.459,1.461C157.2,269.082,159.048,291.676,159.048,291.676Z" transform="translate(19.744 92.047)" fill="#3b434f"/>
        <path id="Shape_11_copy_1" data-name="Shape 11 copy_1" d="M358.4,234.549a16.4,16.4,0,0,1,4.741-2.264,22.349,22.349,0,0,1,5.646-.977q.82-.038,1.683-.014c.575.016,1.163.055,1.76.118a21.746,21.746,0,0,1,3.672.71c4.973,1.422,10.045,4.88,13.026,12.016a40.152,40.152,0,0,1,2.742,13.672q.1,2.1.057,4.426t-.234,4.868c-.258,3.4-.724,7.1-1.417,11.14a82.457,82.457,0,0,1-3.738,26.225c-4.123,13.711-14.022,30.554-32.3,35.366,2.1-34.826,2.168-70.305,4.365-105.285Z" transform="translate(136.761 82.185)" fill="url(#linear-gradient)"/>
        <path id="Shape_3_1" data-name="Shape 3_1" d="M362.1,238.419s31.84-9.817,30.72,22.754c0,0-4.741,47.226-6.8,51.58,0,0-12.506,27.5-33.143,28.715h0l-.25,8.864S388.9,345.7,395.9,304.112l5.529-37.783s4.293-50-37.354-37.29h0l-1.983,9.379" transform="translate(130.977 79.72)" fill="#3b434f"/>
        <path id="Shape_4_1" data-name="Shape 4_1" d="M367.384,291.685a6.885,6.885,0,0,0,3.314,1.34,6.764,6.764,0,0,0,3.29-1.34l3.287-32.948s-4.535-16.225-23.773-7.651l-.456,9.421s16.88-5.957,16.531,1.46C369.241,269.107,367.384,291.685,367.384,291.685Z" transform="translate(136.196 92.069)" fill="#3b434f"/>
        <path id="new_vector_shape_done" d="M272.737,274.333h2.348c4.851,6.588,6.824,16.714,9.385,25.477.794,2.715.024,7.465-.671,9.385-2.541,7.033-10.523,6.906-17.1,10.056-1.765.845-3.077,2.307-5.363,2.682-1.49-1.314-3.289-1.571-4.022-3.688-1.81-2.494.523-4.051,2.346-5.028,3.311-1.776,13.526-3.524,14.75-6.7,1.513-1.721.508-6.9,0-8.714-1.3-4.654-1.922-8.54-3.688-12.738-1.172-2.789-3.231-5.729-2.011-9.051C269.726,275.576,271.91,275.083,272.737,274.333Z" transform="translate(81.135 106.778)" fill="#3b434f" fill-rule="evenodd"/>
        <path id="Rounded_Rectangle_9" data-name="Rounded Rectangle 9" d="M207.007,244.211h24.135c3.333,0,6.034,3.242,6.034,7.24s-2.7,7.24-6.034,7.24H207.007c-3.331,0-6.034-3.242-6.034-7.24S203.676,244.211,207.007,244.211Z" transform="translate(49.32 89.57)" fill="#3b434f"/>
        <path id="Rounded_Rectangle_9_copy" data-name="Rounded Rectangle 9 copy" d="M300.874,243.187h24.135c3.333,0,6.034,3.242,6.034,7.24s-2.7,7.24-6.034,7.24H300.874c-3.333,0-6.034-3.242-6.034-7.24S297.541,243.187,300.874,243.187Z" transform="translate(102.944 88.985)" fill="#3b434f"/>
        <path id="Shape_1_copy_5" data-name="Shape 1 copy 5" d="M449.632,235.262v49.61c0,12.124-11.826,31.041-31.1,32.125-2.831-.135-60.08.055-60.08.055-25.736,0-30.84-30.84-30.84-30.84v-33.52H303.482v33.52s-5.1,30.84-30.84,30.84c0,0-57.248-.19-60.079-.055-19.27-1.084-31.1-20-31.1-32.125v-49.61H160.013V221.853h124.7s18.772,3.033,18.772,16.09h24.135c0-13.057,18.772-16.09,18.772-16.09h124.7v13.409Zm-159.557,6.7c0-4.778-5.364-5.363-5.364-5.363H194.875v46.929c0,14.622,20.112,20.112,20.112,20.112h54.974c18.914,0,20.112-20.112,20.112-20.112Zm146.15-5.363H346.389s-5.364.585-5.364,5.363v41.567s1.2,20.112,20.112,20.112h54.974s20.112-5.49,20.112-20.112Zm-18.772,80.45c.366-.008.723-.035,1.084-.055C418.839,317.011,418.534,317.03,417.452,317.052ZM212.563,317c.361.02.718.047,1.084.055C212.565,317.03,212.26,317.011,212.563,317Z" transform="translate(25.92 76.797)" fill="#3b434f" fill-rule="evenodd"/>
        <path id="fill_copy" data-name="fill copy" d="M176.311,308.754S170.3,244.9,209.532,211.129c0,0,93.248,91.651,219.9,0,0,0,45.506,45.518,41.565,95.2,0,0,76.738-88.022,17.43-104.585,0,0-14.622,4.257-20.112-17.432S452.594,92.577,314.117,90.454,185.4,173.586,185.4,173.586C185.837,173.853,108.483,211.468,176.311,308.754Z" transform="translate(19.308 1.709)" fill="#3b434f"/>
        <path id="line" d="M473.354,315.411c-1.618-55.124-42.236-96.54-42.236-96.54-126.648,87.736-219.225,0-219.225,0-29.653,22.7-33.522,95.869-33.522,95.869-76.488-97.628,4.462-140.52,4.023-140.787,0,0-7.743-88.856,130.731-86.483,144.228,2.471,154.748,71.919,160.9,96.539,4.906,19.635,22.124,16.09,22.124,16.09C557.756,224.027,473.354,315.411,473.354,315.411ZM488.1,207.475s-16.4,4.28-22.793-21.454c-5.394-21.712-11.026-87.041-149.5-89.164s-124.7,81.79-124.7,81.79c.44.267-69.6,33.548-18.1,115.981,0,0-1.688-54.052,37.543-87.824,0,0,90.221,95.292,221.907.671,0,0,41.725,39.73,44.918,88.495C477.377,295.97,538.91,218.618,488.1,207.475Z" transform="translate(17.618 0)" fill="#3b434f" fill-rule="evenodd"/>
      </g>
    </g>
  </g>
</svg>
