<svg xmlns="http://www.w3.org/2000/svg" width="1035" height="200" viewBox="0 0 1035 200">
  <g id="logo" transform="translate(10444 -19617)">
    <rect id="Image_51" data-name="Image 51" width="1035" height="200" transform="translate(-10444 19617)" fill="none"/>
    <g id="Group_10824" data-name="Group 10824">
      <g id="section1" transform="translate(-10882.16 19406.844)">
        <g id="colors" transform="translate(460.34 221.818)">
          <g id="Group_10796" data-name="Group 10796" transform="translate(0 6.194)">
            <path id="Path_2095" data-name="Path 2095" d="M631.6,316.936a85.252,85.252,0,0,1-160.651,39.732q-1.8-3.4-3.288-6.978A85.256,85.256,0,1,1,631.6,316.936Z" transform="translate(-461.137 -231.706)" fill="#fbf09e"/>
          </g>
          <g id="Group_10797" data-name="Group 10797" transform="translate(9.697 11.943)">
            <path id="Path_2096" data-name="Path 2096" d="M587.411,323.537q.07,1.214.071,2.522c0,14.46-6.459,36.729-13.141,47.55,0,0-5.771-9.506-6.62-11.542a31.928,31.928,0,0,1-3.72,3.391.029.029,0,0,1-.007.007q-.532.421-1.13.858A32.573,32.573,0,0,1,558.532,369l-.189.1a21.629,21.629,0,0,1-9.633,2.478c-3.9,0-7.146-3.664-9.281-6.98-.457-.711-.864-1.406-1.215-2.045a33.2,33.2,0,0,1-1.555-3.2s-6.45-10.863-7.808-17.822c0,0-9-18.162-9.336-35.814a9.718,9.718,0,0,1-.509-7.3c.356-1.026.679-1.358.339-2.546s.849-3.226,1.019-3.9-1.528-3.735.849-9.675c-1.248-8.27-1.205-14.784.723-20.148,2.232-6.22,7-10.9,15.22-14.983q.176-.089.351-.174s22.3-10.744,39.169-5.289a.082.082,0,0,1,.02.007q.522.167,1.039.36s.168.4.329.891c.35,1.073.669,2.6-.838,1.485-4.583-3.395-27.668,20.369-.34,63.311,0,0,3.564-6.62,3.225-13.069,0,0,4.135-8.2,8.826-6.789C594.03,289.42,594.03,312.674,587.411,323.537Zm-95.732,37s3.395,2.037,6.111,1.7,5.262-5.941,4.413-6.45c-3-1.8-10.015-1.188-10.015-1.188-4.413-.509-12.221.169-16.8,4.752l3.487,5.838C487.266,365.293,491.679,360.54,491.679,360.54Zm18.841-2.716c-2.036,0-4.074,3.055-4.074,3.055L480.3,367.245A85.943,85.943,0,0,0,491,380.739a23.8,23.8,0,0,0,13.748-11.373,31.22,31.22,0,0,0,9.506-9.505S512.557,357.824,510.519,357.824Z" transform="translate(-475.384 -240.152)" fill="#fed791"/>
          </g>
          <g id="Group_10798" data-name="Group 10798" transform="translate(13.261 12.059)">
            <path id="Path_2097" data-name="Path 2097" d="M523.609,262.2c2.232-6.22,7-10.9,15.22-14.983.119,0,.182,0,.182,0s2.716,7.469,6.111,7.469,6.11-6.62,6.11-6.62c9.181-10.572,22.581-7.692,27.118-6.307a.082.082,0,0,1,.02.007c.986.3,1.548.53,1.548.53l-.18.721-.159.636c-10.693-.849-12.391,10.524-12.391,10.524C560.268,260.444,527.569,279.077,523.609,262.2Zm51.216,40.517c-.165,6.07,7.438,47.168-15.181,60.954-7.7-2.878-14.08-4.567-19.757-1.066.351.64.758,1.334,1.215,2.045,2.135,3.315,5.378,6.98,9.281,6.98a21.628,21.628,0,0,0,9.633-2.478l.188-.1.021.029a21.743,21.743,0,0,0,5.442-3.561.035.035,0,0,0,.007-.007c6.292-5.414,14.327-16.856,14.074-37.339l-1.188-20.369Zm-24.951,45.829c-.656.246-27.667,5.941-27.667,5.941-.169-1.188-1.7-.849-1.867-1.7l-16.464,4.243a6.41,6.41,0,0,1-4.525,5.274c-2.318.521-6.174-1.533-6.174-1.533-.514,1.363-8.142,4.917-12.556,4.407l1.427,2.246,26.07-6.489s1.528-2.716,4.074-3.055a4.9,4.9,0,0,1,3.226,1.188s33.778-8.487,35.3-8.826S551.231,348.034,549.874,348.543Z" transform="translate(-480.621 -240.323)" fill="#b6955e"/>
          </g>
          <g id="Group_10799" data-name="Group 10799" transform="translate(52.648 112.981)">
            <path id="Path_2098" data-name="Path 2098" d="M563.251,400.3a10.324,10.324,0,0,0,3.845.915c1.424,0,1.777-.8,1.743-1.633a3.273,3.273,0,0,0-.1-.676,3.8,3.8,0,0,0-.407-1.025l-6.747,1.585s.263.161.7.384C562.548,399.981,562.878,400.139,563.251,400.3Zm4.064-4.148-8.467,1.838c-.647-.374-1.273-.7-1.879-.994-.252-.123-.5-.238-.749-.34a19.794,19.794,0,0,0-3.7-1.252c-.306-.068-.613-.129-.905-.177a15.158,15.158,0,0,0-3.927-.177q-.592.051-1.143.143a26.851,26.851,0,0,0-3.213.755c-.265.075-.524.143-.762.2a6.917,6.917,0,0,1-1.654.265c-.157,0-.306,0-.442-.007-.266-.014-.49-.034-.681-.061-.116-.02-.225-.041-.32-.068-.02.034-.048.061-.068.1-.3-.143-.994-.531-.905-.953.109-.531.613-4.091,10.455-6.466.02-.007.034-.007.054-.014a24.134,24.134,0,0,1,3-.32c.354-.014.708-.02,1.069-.02q.327,0,.674.02a15.355,15.355,0,0,1,3.607.64c.408.123.83.265,1.259.436a18.328,18.328,0,0,1,2.743,1.327c.3.17.592.354.885.544a21.947,21.947,0,0,1,2.58,1.994c.211.184.415.381.619.572A25.644,25.644,0,0,1,567.314,396.148Z" transform="translate(-538.489 -388.6)" fill="#d83119"/>
          </g>
          <g id="Group_10800" data-name="Group 10800" transform="translate(6.522 16.169)">
            <path id="Path_2099" data-name="Path 2099" d="M634.658,321.616a85.192,85.192,0,0,1-43.032,74.065c14.312-30.168,17.018-71.975,5.668-97.828,15.051-6.888,27.418-3.521,34.075.235A85.272,85.272,0,0,1,634.658,321.616Zm-87.437,52.109c-6.789,0-12.051-12.391-12.051-12.391a2.794,2.794,0,0,1-1.867-.679,2.347,2.347,0,0,1-1.188.34c-.679,0-1.7-1.188-1.7-1.188a3.133,3.133,0,0,1-3.9-.849c-1.7.679-2.037-.509-2.377-1.018,0,0-9.675,2.546-12.051,3.055l.679.849c-2.037,4.583-9.506,9.505-9.506,9.505a24.787,24.787,0,0,1-13.244,11.374A85.374,85.374,0,0,0,565.2,405.388c-9.892-13.642-14.412-32.172-14.412-32.172A11.071,11.071,0,0,1,547.221,373.725Zm45.49-109.311c1.7-1.018,3.055-2.716,2.885-6.789,0,0,1.885-3.676,1.622-6.591s-1.282-5.964-6.7-4.106c.669,1.364,2.193,3.062.836,7.812a10.718,10.718,0,0,1-.679,4.922Zm-92,93.358c.34.34,0,1.184,0,1.184l16.464-4.24s-.17-1.191.34-1.361a2.357,2.357,0,0,1,.238-2.409c-.3-.143-.994-.531-.905-.953.109-.531.667-4.1,10.509-6.48a95.182,95.182,0,0,1-9-30.383c-8.562,0-40.681,11.564-47.644,41.239q1.491,3.573,3.287,6.977c.694-.9,4.778-5.377,16.689-4.764C492.228,356.663,499.177,356.234,500.715,357.773Z" transform="translate(-470.72 -246.361)" fill="#2b7046"/>
          </g>
          <g id="Group_10801" data-name="Group 10801" transform="translate(96.368 80.646)">
            <path id="Path_2100" data-name="Path 2100" d="M616.992,423.991s-3.995-5.212-6.878-9.953a89.994,89.994,0,0,0,4.866-8.138c-.285.523-.586,1.059-.894,1.595-1.826,3.189-3.853,6.356-3.972,6.542h0l-.012.018c-3.286-5.32-6.36-11.133-7.378-14.838l.065.01A34.169,34.169,0,0,0,607,395.651c.82-.8,1.348-1.38,1.348-1.38a86.157,86.157,0,0,0,6.693,11.518c7.58-14.3,13.086-32.911,13.086-49.929,2.5-3.989,4.41-14.768,4.41-14.768C636.38,384.679,627.9,407.208,616.992,423.991Z" transform="translate(-602.724 -341.092)" fill="#a9cb8f"/>
          </g>
          <g id="Group_10802" data-name="Group 10802" transform="translate(52.971)">
            <path id="Path_2101" data-name="Path 2101" d="M619.151,290.266c12.824,30.05,5.427,73.4-4.783,97.279-10.737,6.382-24.779,9.708-25.854,9.957l-.148.207-1.3.08c-8.186-11.118-13.443-28.278-14.533-32.179,0,0,2.825-.384,7.82-3.054q.958-.511,2.021-1.14c1.793,6.456,9.762,19.243,14.255,24.732L595,388.425l-5.687,7.959c13.981-18.261,27.535-40.123,22.858-93.133l-.043.085c.51-5.262.679-9.336.679-9.336A46.117,46.117,0,0,1,619.151,290.266Zm-61.905,53.647a19.517,19.517,0,0,1,2.4-1.1,32.437,32.437,0,0,1,5.953-1.686c-.205-.2-.411-.389-.618-.573a32.992,32.992,0,0,0-5.581,1.627,18.949,18.949,0,0,0-2.924,1.4,29.386,29.386,0,0,0-3.654-1.286,22.743,22.743,0,0,1,9.577-3.737c-.293-.192-.587-.375-.881-.547a23.442,23.442,0,0,0-9.572,4.072,8.72,8.72,0,0,0-2.955-.214c-2.445.349-4.185.729-5.48,1.028a15.664,15.664,0,0,1,4.311-4.31,22.515,22.515,0,0,1,5.873-2.786.336.336,0,0,0,.21-.193c-.229-.014-.453-.018-.671-.018q-.542,0-1.069.024a22.029,22.029,0,0,0-4.726,2.414,16.2,16.2,0,0,0-4.693,4.8.326.326,0,0,0-.036.253c-1.538.355-2.334.506-3.055.146a2.57,2.57,0,0,0-.339,2.546,3.906,3.906,0,0,0-.34,1.358c.167.838,1.655.688,2.019,1.665L559,344.751S558.3,344.385,557.246,343.913Zm-16.28,4.886.044.027c0-.012-.013-.02-.017-.032Zm6.869-6.766a22.255,22.255,0,0,1,10.933-5.352q-.642-.249-1.261-.434a22.925,22.925,0,0,0-10.81,5.926C547.061,342.112,547.439,342.064,547.835,342.032Zm-7.4.174a3.182,3.182,0,0,0-.49,1.125c.192.029.416.049.677.061a2.853,2.853,0,0,1,.39-.828,15.407,15.407,0,0,1,6.574-6.077.34.34,0,0,0,.2-.282,20.991,20.991,0,0,0-2.382.709A17.017,17.017,0,0,0,540.432,342.206Zm28.456,3.683a26.265,26.265,0,0,0-6.3.908c-.39-.2-.634-.339-.634-.339l-16.02,3.9c.51.849,1.188,1.867,2.377,1.188,2.885,1.867,3.9.679,3.9.679,2.036,1.867,2.885.849,2.885.849,2.716,1.527,3.564.509,3.564.509,1.7,1.018,3.735-.509,3.735-.509a3.5,3.5,0,0,0,3.734-.849,1.134,1.134,0,0,0,.679-1.7,3.816,3.816,0,0,0,.849-.849c.17-.34-.17-.679-.17-1.018v-.509c-.987.3-2.693-.323-3.953-.892a25.574,25.574,0,0,1,5.455-.689A3.273,3.273,0,0,0,568.888,345.889Zm-4.795-45.778c1.7-1.019,12.221-2.886,12.221-14.937C570.035,285.853,562.736,291.794,564.094,300.111Zm-15.955-.34c-.339-1.867-2.376-7.469-8.769-7.118l-.056-.011C538.633,300.62,546.441,298.413,548.138,299.771Zm40.83-38.081a.739.739,0,0,0,.77.513,5.509,5.509,0,0,0,.8-.092c.159-.022.334-.05.523-.079.391-.061.834-.129,1.3-.184.572-.076,1.236-.14,1.972-.19.365-.025.688-.038.947-.048.164-.007.3-.013.4-.019s.235-.01.4-.018c.26-.013.583-.03.948-.039.327-.008.645-.012.943-.012q.559,0,1.049.02c.459.012.908.039,1.3.063.191.012.368.022.514.029.256.018.453.027.6.027.546,0,.862-.2.939-.591.138-.7-.57-.9-1.268-1.1a16.791,16.791,0,0,0-1.918-.38,21.124,21.124,0,0,0-2.145-.2c-.268-.012-.547-.018-.827-.018s-.485.005-.627.01h-.026c-.212.014-.773.051-1.447.143a21.275,21.275,0,0,0-2.108.393,17.165,17.165,0,0,0-1.9.563C589.453,260.742,588.766,261.006,588.968,261.691Zm1.244-5.884a.753.753,0,0,0,.812.534,5.119,5.119,0,0,0,.631-.054c.161-.018.344-.04.54-.065.314-.039.669-.084,1.04-.119,1-.114,2.107-.146,2.637-.161l.211-.007.209-.008c.386-.016,1.033-.043,1.736-.043.326,0,.631.006.919.018.361.009.719.029,1.034.046.2.011.381.021.53.027.183.011.331.016.451.016h0c.212,0,.845,0,.965-.594.14-.687-.591-.911-1.137-1.078a13.835,13.835,0,0,0-1.659-.361,18.182,18.182,0,0,0-1.854-.2c-.313-.018-.637-.028-.962-.028-.121,0-.223,0-.3,0h-.025c-.429.023-.851.061-1.257.114a18.311,18.311,0,0,0-1.825.329,14.115,14.115,0,0,0-1.651.484C590.738,254.857,590.025,255.132,590.213,255.807Zm5.733.8c-.133,0-.248,0-.331.01a9.047,9.047,0,0,0-1.844.384c-.892.277-1.431.585-1.6.914a.72.72,0,0,0-.05.553c.077.242.293.53.887.53h0c.195,0,.441-.022.727-.048.13-.012.268-.024.421-.035.449-.042.937-.064,1.261-.078.155-.007.279-.013.357-.018s.2-.018.355-.033c.322-.032.809-.081,1.271-.1l.409-.024c.827-.045,1.425-.078,1.528-.7a.72.72,0,0,0-.127-.545,2.716,2.716,0,0,0-1.705-.673A9.571,9.571,0,0,0,595.945,256.6Zm7.486,23.727-.154.1c-.135.085-.257.172-.376.256l-.172.121-.131.093c-.121.085-.246.174-.368.273-.568.432-1.014.841-1.254,1.06l-.08.073-.073.076c-.228.233-.651.667-1.1,1.222-.1.118-.2.241-.285.359-.032.043-.064.086-.105.14s-.078.1-.118.157c-.088.115-.178.234-.267.367l-.1.153c-.208.306-.422.623-.613.959a14.856,14.856,0,0,0-1.042,2.1l-.008.022c-.3.818-.56,1.525.119,1.81l.133.054h.137c.469,0,.677-.357,1.128-1.137l.14-.225c.28-.451.628-1.011,1.027-1.549l.014-.019c.166-.24.359-.483.546-.718l.181-.229c.072-.09.147-.176.222-.261.051-.059.1-.117.142-.165s.084-.1.125-.144c.078-.092.152-.178.222-.248l.02-.021c.327-.358.633-.658.856-.877.1-.1.18-.176.243-.242s.15-.141.248-.235c.227-.216.537-.513.907-.828l.021-.018c.073-.069.163-.14.257-.216.048-.039.1-.078.135-.11.06-.047.12-.1.18-.146.088-.071.176-.145.268-.213l.233-.172c.242-.18.493-.366.738-.525l.019-.013c.553-.383,1.126-.713,1.586-.979l.225-.13c.824-.442,1.367-.736,1.127-1.36a.709.709,0,0,0-.684-.453,3.6,3.6,0,0,0-1.122.274l-.022.008a14.7,14.7,0,0,0-2.134.974C604.07,279.926,603.746,280.131,603.432,280.329Zm-.877-3.93a17.479,17.479,0,0,0-1.891.7c-.576.252-1.017.477-1.23.6a16.23,16.23,0,0,0-2.756,2,6.923,6.923,0,0,0-1.266,1.514c-.484.807-.387,1.143-.354,1.254a.7.7,0,0,0,.343.425l.16.082h.169c.346,0,.535-.211.775-.478.068-.076.15-.167.251-.274a8.211,8.211,0,0,1,1.163-1.011c.409-.3.916-.626,1.506-.975.482-.283.88-.5,1.087-.613.191-.109.589-.336,1.08-.6s1.081-.544,1.643-.79c.456-.2.917-.384,1.287-.53.291-.115.543-.214.726-.3s.772-.348.641-.926a.75.75,0,0,0-.827-.575A10.448,10.448,0,0,0,602.554,276.4Zm-7.68-28.013.353.023c.433.024.894.065,1.231.1.2.018.363.033.458.038s.257.01.46.016c.338.01.8.022,1.242.05l.343.018c.259.014.5.027.7.027.236,0,.862,0,1.011-.573.163-.613-.344-1.018-1.739-1.395a10.451,10.451,0,0,0-1.888-.345c-.065,0-.158-.007-.272-.007a11.008,11.008,0,0,0-1.637.127c-1.438.214-1.989.556-1.9,1.18C593.327,248.289,593.942,248.327,594.874,248.386Zm-2.337,17.457a.707.707,0,0,0-.076.545c.1.372.409.56.924.56.219,0,.509-.022.845-.048.172-.014.356-.028.554-.04.58-.047,1.2-.067,1.613-.08.165,0,.3-.01.384-.014s.217-.014.382-.027c.41-.029,1.031-.075,1.623-.09.187-.007.372-.012.544-.017,1.035-.029,1.606-.044,1.706-.691a.71.71,0,0,0-.133-.538,3.329,3.329,0,0,0-2-.7,13.272,13.272,0,0,0-1.932-.146c-.128,0-.232,0-.3.006a12.582,12.582,0,0,0-2.2.37C593.378,265.208,592.73,265.515,592.537,265.843Zm-1.314-14.479a.753.753,0,0,0,.8.521,4.645,4.645,0,0,0,.589-.052c.134-.015.284-.034.445-.054.3-.038.65-.082,1.012-.112.448-.045.971-.076,1.554-.091.184,0,.356-.005.508-.005h.645l.242,0c.116,0,.25,0,.4,0,.1,0,.216,0,.333,0q.874.017,1.567.082c.352.027.7.068,1,.1.16.019.309.037.427.049a5.016,5.016,0,0,0,.592.049h0a.757.757,0,0,0,.811-.525c.2-.673-.514-.959-1-1.154a11.435,11.435,0,0,0-1.534-.454,14.651,14.651,0,0,0-1.736-.286c-.5-.052-.918-.065-1.187-.071h-.031c-.269.007-.685.023-1.187.079a14.5,14.5,0,0,0-1.723.3,11.541,11.541,0,0,0-1.557.472C591.73,250.4,591.021,250.695,591.223,251.364Zm.609,17.721a.7.7,0,0,0-.063.542.755.755,0,0,0,.808.525h0a10.765,10.765,0,0,0,1.224-.135c.246-.035.514-.072.8-.108.8-.112,1.678-.195,2.2-.243l.4-.039.4-.047c.522-.063,1.4-.168,2.212-.229.274-.024.543-.044.792-.062.373-.027.695-.051.939-.081.275-.034.92-.113.964-.726a.7.7,0,0,0-.176-.521c-.1-.111-.392-.448-2.539-.564-.351-.024-.736-.035-1.145-.035-.709,0-1.371.037-1.683.071a19.2,19.2,0,0,0-2.765.561C592.121,268.564,591.9,268.957,591.832,269.085Zm-25.185-44.252.133.283.136.327c.056.127.11.272.167.425.029.081.06.163.091.245.182.527.337,1.054.463,1.561.128.53.245,1.1.347,1.7.08.484.155,1.009.236,1.648.147,1.2.221,2.074.239,2.313l.014.165c.038.46.1,1.229.129,2.146.036,1.12.018,2.337-.05,3.426-.059.954-.167,2-.321,3.11l-.14,1.018c-.037.315-.115.971.506,1.127l.084.02h.084c.52,0,.693-.481.808-.8.044-.123.1-.274.149-.449l.163-.585a26.584,26.584,0,0,0,.616-3.255,31.75,31.75,0,0,0,.241-3.635c.011-1.109-.047-2.021-.082-2.466-.034-.428-.139-1.322-.321-2.439-.108-.647-.216-1.214-.331-1.736-.144-.647-.307-1.263-.485-1.837a16.6,16.6,0,0,0-.648-1.719l-.1-.221c-.086-.182-.175-.371-.271-.54l-.182-.334-.189-.308c-.892-1.422-1.245-1.422-1.455-1.422l-.237,0-.178.137c-.491.365-.223.882.014,1.337C566.376,224.283,566.506,224.535,566.646,224.833Zm61.026,32.648-.14-.071h-.169a.825.825,0,0,0-.431.133c-.05.029-.058.033-.081.033a.163.163,0,0,1-.035,0,.27.27,0,0,1-.047-.025,1.3,1.3,0,0,1-.287-.281c-.265-.326-.53-.709-.764-1.046l-.053-.076c-.265-.385-.493-.7-.627-.861a9.992,9.992,0,0,0-.751-.8,12.038,12.038,0,0,0-1.226-1.039,5.884,5.884,0,0,0-2.1-1.068.716.716,0,0,0-.618.334c-.336.538.082.926.713,1.514.224.208.478.444.735.705a18.5,18.5,0,0,1,1.533,1.744l.646.774a12.244,12.244,0,0,0,1.1,1.172,2.808,2.808,0,0,0,.91.577,1.835,1.835,0,0,0,.616.117h.02a1.7,1.7,0,0,0,.548-.089,1.39,1.39,0,0,0,.77-.606.881.881,0,0,0,.1-.705A.708.708,0,0,0,627.672,257.481Zm-33.924,6.714c.061,0,.134,0,.216-.007l.786-.052c.316-.019.651-.031.92-.04.226-.008.408-.015.5-.022s.224-.022.4-.042c.273-.031.647-.074.978-.1l.072,0c.193-.009.376-.017.52-.017h.129l.069,0,.127,0c.035,0,.069,0,.1,0a.774.774,0,0,0,.679-.418.763.763,0,0,0-.172-.889,1.469,1.469,0,0,0-.4-.29,3.588,3.588,0,0,0-.981-.325,7.71,7.71,0,0,0-1.395-.127c-.122,0-.221,0-.291.008a8.175,8.175,0,0,0-1.628.353,4.487,4.487,0,0,0-.885.386c-.8.465-.609,1-.536,1.15A.8.8,0,0,0,593.748,264.195ZM586.7,228.616c.261.074.617.161,1.03.261.368.089.781.189,1.213.3.283.07.572.146.854.223-.481,0-1.177.049-1.26.7-.081.621.564.851.839.949s.6.194.977.3l.579.167c.517.149.963.278,1.163.326s.661.136,1.194.238l.594.114a9.332,9.332,0,0,0,1.375.2.771.771,0,0,0,.8-.495.667.667,0,0,0-.052-.6c.229.079.448.157.654.23a6.077,6.077,0,0,0,1.578.462.709.709,0,0,0,.653-.388.7.7,0,0,0,.035-.547c-.138-.4-1.052-.986-2.707-1.748a21.933,21.933,0,0,0-6.895-2.052,17.891,17.891,0,0,0-2.36-.206c-.346,0-1.067,0-1.139.662C585.752,228.345,586.394,228.528,586.7,228.616Zm43.572,24.372,0-.02a8.207,8.207,0,0,0-.4-1.354,10.267,10.267,0,0,0-.666-1.406,9.943,9.943,0,0,0-.568-.883l-.011-.016-.012-.015a9.984,9.984,0,0,0-.7-.787,10.335,10.335,0,0,0-1.16-1.013,8.223,8.223,0,0,0-1.207-.762l-.018-.009a1.878,1.878,0,0,0-.806-.252.721.721,0,0,0-.62.336c-.336.54.15.992.478,1.294.074.072.157.15.245.234.195.184.415.393.636.626.263.267.552.594.858.972.15.186.278.357.38.494.065.087.12.161.163.214s.1.129.164.217c.1.135.234.3.37.5q.423.6.711,1.1c.157.264.3.534.424.772.056.106.109.206.158.3.2.4.427.839.919.84h.1l.092-.027C630.473,254.146,630.345,253.393,630.275,252.988Zm-38.312,20.727a8.026,8.026,0,0,0,1.389-.25c.3-.067.634-.14.986-.212.938-.2,1.944-.371,2.545-.47l.364-.061.361-.066c.6-.111,1.6-.3,2.564-.424.346-.05.684-.094.99-.133.389-.05.725-.094.975-.138.28-.049.936-.164.939-.784a.7.7,0,0,0-.2-.5c-.127-.128-.389-.394-2.506-.394-.116,0-.233,0-.343,0a17.765,17.765,0,0,0-6.209,1.086c-1.518.515-2.376.962-2.552,1.332a.7.7,0,0,0-.026.545A.729.729,0,0,0,591.963,273.715Zm1.286,4.141a2.459,2.459,0,0,0,.957-.3c.146-.061.309-.13.484-.2.331-.142.706-.3,1.1-.457.5-.2,1.079-.413,1.732-.63.319-.106.6-.193.829-.261.152-.046.278-.085.369-.115s.216-.067.368-.114c.223-.072.509-.163.831-.257.661-.193,1.261-.349,1.793-.468.4-.1.8-.178,1.157-.249.187-.037.359-.073.5-.1.653-.127,1.327-.258,1.287-.93-.042-.706-.811-.728-1.442-.745h-.1a15.179,15.179,0,0,0-1.732.1,19.338,19.338,0,0,0-1.99.321c-.566.12-1.024.248-1.32.334l-.025.008c-.292.1-.742.253-1.277.475a19.544,19.544,0,0,0-1.811.862,15.469,15.469,0,0,0-1.58.971c-.5.366-1.12.82-.753,1.425A.713.713,0,0,0,593.25,277.856Zm5.35-36.363-.082-.012c-.305-.043-.871-.122-1.555-.158-.147-.012-.291-.014-.43-.017l-.164,0-.184,0c-.087,0-.175,0-.264,0-.054,0-.108,0-.163,0l-.164,0c-.351.011-.713.022-1.076.061a14.859,14.859,0,0,0-2.178.346l-.02.005c-.775.207-1.507.4-1.357,1.118.056.264.257.579.9.579.163,0,.393-.012.723-.037l.3-.015c.416-.021.887-.046,1.384-.046.1,0,.208,0,.312,0h.085c.254,0,.522.014.782.027l.277.014c.108,0,.215.016.32.025l.206.019.176.015c.114.01.221.018.314.033l.027,0c.444.05.837.114,1.124.161l.257.041c-.1-.006-.223-.007-.312-.007a10.739,10.739,0,0,0-1.279.078c-.869.1-1.793.277-1.746,1.043.041.671.663.757,1.694.9l.044.006.574.075c.413.054.739.1.9.11s.491.02.909.029l.583.014h.037c.163,0,.322.005.468.005h0c.509,0,1.206,0,1.344-.635.163-.751-.723-1.063-1.56-1.3l-.112-.032.01,0c.093.017.2.044.307.071l.159.04.214.052c.1.025.208.05.31.08l.268.078c.27.078.55.159.807.25l.02.007c.581.186,1.141.412,1.592.595l.279.112a2.921,2.921,0,0,0,1.1.36.707.707,0,0,0,.615-.341c.376-.628-.253-1.052-.917-1.5l-.018-.011A14.8,14.8,0,0,0,602.5,242.7c-.331-.154-.669-.283-1-.407l-.157-.059c-.14-.054-.274-.1-.4-.138l-.186-.061-.145-.046c-.131-.044-.268-.088-.41-.124-.658-.189-1.219-.3-1.521-.359Z" transform="translate(-538.964 -222.605)" fill="#fbf09e"/>
          </g>
        </g>
        <g id="outline" transform="translate(458.643 220.142)">
          <path id="outline-2" data-name="outline" d="M540.071,289.96a11.859,11.859,0,0,0-1.781,3.448,14.056,14.056,0,0,0-.437,6.339.594.594,0,0,0,.587.51.615.615,0,0,0,.085-.005.6.6,0,0,0,.5-.672c0-.026-.006-.051-.01-.077a12.343,12.343,0,0,1,1.721-.834c3.529-1.52,10.047-4.329,10.256-13.813.167-.035.263-.051.27-.052a.594.594,0,0,0-.191-1.173C550.784,283.679,543.874,284.856,540.071,289.96Zm1,1.924a.934.934,0,1,1-.934.934A.934.934,0,0,1,541.073,291.884Zm9.239-6.868c-.279,8.909-6.475,11.58-9.84,13.029-.634.273-1.15.5-1.538.715a12.677,12.677,0,0,1,.373-4.608,3.247,3.247,0,0,0,.426.766,2.748,2.748,0,1,0,4.38-3.285,3,3,0,0,0-2.9-1.21C543.946,286.961,548.377,285.508,550.312,285.016Zm-23.358,58.157a.339.339,0,1,1,.57-.369,1.594,1.594,0,0,0,1.429.706.34.34,0,0,1,.053.677c-.056,0-.112.007-.168.007A2.266,2.266,0,0,1,526.954,343.173Zm-1.311,7.013a.34.34,0,0,1,.495-.466,1.567,1.567,0,0,0,1.1.484h.018a1.566,1.566,0,0,0,1.094-.456.34.34,0,1,1,.483.478c-.051.052-.106.1-.161.147a.337.337,0,0,1,.262.1,1.45,1.45,0,0,0,.789.448,1,1,0,0,0,.8-.192.339.339,0,1,1,.432.524,1.656,1.656,0,0,1-1.049.362,1.772,1.772,0,0,1-.3-.025,2.13,2.13,0,0,1-1.168-.651.339.339,0,0,1-.065-.366,2.229,2.229,0,0,1-1.118.306h-.027A2.228,2.228,0,0,1,525.643,350.186Zm2.176-1.593a.339.339,0,0,1,.517-.44,1.558,1.558,0,0,0,1.653.445.34.34,0,0,1,.226.641,2.136,2.136,0,0,1-.708.119A2.233,2.233,0,0,1,527.819,348.592Zm-2.6-3.7a.339.339,0,0,1-.181.444,2.371,2.371,0,0,1-.918.182,2.46,2.46,0,0,1-1.547-.538.34.34,0,1,1,.43-.525,1.776,1.776,0,0,0,1.771.256A.34.34,0,0,1,525.219,344.9Zm-5.23-.526a2.5,2.5,0,0,1-.961.19,2.567,2.567,0,0,1-1.748-.679.339.339,0,0,1,.464-.5,1.911,1.911,0,0,0,1.983.358.339.339,0,1,1,.261.626Zm1.148-1.265a.338.338,0,0,1,.469-.1,2.9,2.9,0,0,0,2.931.091.34.34,0,1,1,.333.591,3.594,3.594,0,0,1-3.634-.112A.339.339,0,0,1,521.138,343.107Zm83.1-94.008a20.808,20.808,0,0,0-10.477-6.966c0-.054-.008-.108-.012-.161-.2-2.492-1.4-3.58-2.38-4.055a5.951,5.951,0,0,0-4.445-.054c-6.346-8.665-27-15.09-41.352-15.09-1.7,0-6.28-2.629-8.147-2.629l-.042,0c-2.535,0-4.745,2.943-5.925,7.31a86.953,86.953,0,1,0,72.78,21.647Zm-4.649-2.549a7.546,7.546,0,0,1,1.1.7,9.566,9.566,0,0,1,1.09.952,6.431,6.431,0,0,1,1.18,1.557,9.6,9.6,0,0,1,.621,1.308,7.551,7.551,0,0,1,.372,1.252c.059.342.069.567.013.583s-.174-.176-.325-.475-.36-.7-.6-1.1-.5-.811-.739-1.146-.451-.6-.547-.732-.3-.406-.556-.726-.574-.689-.9-1.022-.656-.641-.9-.877-.4-.391-.369-.442S599.274,246.4,599.587,246.55Zm-2.582,6.65a11.477,11.477,0,0,1,1.157.979,9.41,9.41,0,0,1,.7.749c.12.146.341.449.594.815s.546.792.849,1.164a1.913,1.913,0,0,0,.457.431.855.855,0,0,0,.234.1.807.807,0,0,0,.231.025c.3-.006.445-.191.5-.163.024.012.029.082-.031.187a.723.723,0,0,1-.4.3,1.024,1.024,0,0,1-.343.053,1.149,1.149,0,0,1-.389-.076,2.175,2.175,0,0,1-.689-.444,11.588,11.588,0,0,1-1.039-1.107l-.631-.755a20.387,20.387,0,0,0-1.589-1.808c-.695-.7-1.411-1.274-1.348-1.374A4.081,4.081,0,0,1,597.005,253.2Zm-6.082-14.366a3.57,3.57,0,0,1,1.808,3.222c.017.2.026.423.026.662a14.523,14.523,0,0,1-1.239,5.547,13.751,13.751,0,0,0-3.377-2.194,5.973,5.973,0,0,0,.712-2.929,8.431,8.431,0,0,0-1.345-4.4A4.94,4.94,0,0,1,590.923,238.833Zm-2.967,8.279a10.868,10.868,0,0,1,3.219,2.273c.1.6.433,3.439-1.346,5.319a4.645,4.645,0,0,1-.646.566,43.943,43.943,0,0,0-1.674-4.293A6.278,6.278,0,0,0,587.956,247.113Zm3.782,22.677a49.1,49.1,0,0,0-2.232-13.508,5.73,5.73,0,0,0,.915-.735c1.413,3.059,4.847,9.151,9.8,9.151,4.074,0,6.62-3.225,6.62-7.808q0-.214-.007-.425a83.451,83.451,0,0,1,18.408,31.672,35.475,35.475,0,0,0-23.526-2.07,45.319,45.319,0,0,0-8.4,2.938l-.024.007c-.014.007-.027.015-.04.023a33.947,33.947,0,0,0-5.684,3.266c-.037-1.271-.125-2.458-.261-3.544C588.408,286.381,591.739,278.443,591.739,269.79Zm-22.67,117.458A115.063,115.063,0,0,1,554.917,362.3c.5-.283,1-.579,1.5-.9,1.182,3.726,4.1,9.211,7.217,14.261a.5.5,0,0,0,.048.077,102.655,102.655,0,0,0,6.643,9.636C569.911,386,569.49,386.625,569.069,387.248Zm-.626-20.034c-1.362,2.535-2.811,4.968-4.338,7.271-3.007-4.933-5.762-10.185-6.806-13.687a31.082,31.082,0,0,0,4.594-3.93c.1-.108.2-.218.306-.327A86.728,86.728,0,0,0,568.443,367.214Zm-5.508-11.488a37.447,37.447,0,0,0,7.158-12.686,60.367,60.367,0,0,0,2.856-20.241,2.814,2.814,0,0,0,1.9.629c2.642,0,4.89-1.741,6.73-4.513-.326,15.367-5.062,32.863-12.6,47.285A85.755,85.755,0,0,1,562.935,355.725Zm1.757,19.714a90.558,90.558,0,0,0,4.747-7.979.494.494,0,0,0,.066-.124,117.1,117.1,0,0,0,7.831-18.695,104.6,104.6,0,0,0,5.284-31.41.442.442,0,0,0,0-.061,41.88,41.88,0,0,0,3.7-11c2.966,39.852-4.685,61.472-15.4,78.3A103.459,103.459,0,0,1,564.692,375.439Zm17.4-97.04c.021.056-.309.25-.823.525-.506.294-1.193.676-1.868,1.145-.344.223-.677.479-1,.719-.164.121-.315.253-.468.374s-.3.237-.434.361c-.55.47-.966.892-1.186,1.09s-.64.615-1.128,1.15c-.128.128-.246.276-.374.422s-.263.3-.389.455c-.251.319-.519.643-.751.981-.491.659-.9,1.334-1.2,1.829-.292.5-.5.829-.551.806s.049-.392.255-.952a14.334,14.334,0,0,1,1-2.013c.209-.37.457-.726.693-1.077.118-.176.25-.337.37-.5s.238-.322.363-.464c.476-.586.913-1.026,1.129-1.248s.683-.632,1.284-1.088c.145-.12.31-.229.474-.347s.334-.241.513-.354c.358-.225.722-.461,1.1-.657a14.3,14.3,0,0,1,2.045-.933C581.7,278.436,582.069,278.345,582.089,278.4Zm-2.518-2.567a15.429,15.429,0,0,1-2.266.993c-.586.257-1.187.547-1.685.811s-.9.493-1.1.607-.607.331-1.094.616-1.053.641-1.562,1.011a8.838,8.838,0,0,0-1.261,1.1c-.308.323-.483.562-.538.533s.03-.323.274-.731a6.281,6.281,0,0,1,1.143-1.362,15.474,15.474,0,0,1,2.624-1.906c.209-.119.639-.336,1.176-.572a16.837,16.837,0,0,1,1.815-.668A6.434,6.434,0,0,1,579.572,275.832Zm-8.219-29.6a9.853,9.853,0,0,1,1.742.321c.7.189,1.3.457,1.269.568s-.672.056-1.367.024-1.446-.051-1.695-.065-1-.095-1.69-.133-1.339-.065-1.355-.183.612-.31,1.327-.417A9.894,9.894,0,0,1,571.353,246.231Zm-1.51-2.287c-.008-.116.536-.255,1.148-.328a6.313,6.313,0,0,1,2.981.229c.594.165,1.109.386,1.085.5s-.577.1-1.174.095-1.24-.024-1.453-.04-.849-.106-1.442-.182S569.85,244.062,569.844,243.944Zm.06,5.387c.5-.057.921-.07,1.129-.075s.625.014,1.129.067a13.819,13.819,0,0,1,1.652.272,10.876,10.876,0,0,1,1.45.429c.372.15.6.272.586.328s-.276.042-.666-.007-.915-.114-1.464-.157-1.122-.074-1.606-.084-.881,0-1.079,0-.594-.006-1.079.006-1.058.039-1.6.095-1.072.123-1.463.166-.649.069-.666.012.212-.18.584-.332a10.763,10.763,0,0,1,1.448-.438A13.619,13.619,0,0,1,569.9,249.331Zm-2.5,4.717a17.3,17.3,0,0,1,1.764-.318c.538-.07.984-.1,1.205-.11s.668-.007,1.21.025a17.346,17.346,0,0,1,1.782.193,13.387,13.387,0,0,1,1.585.344c.412.126.669.233.657.29s-.291.061-.713.035-.992-.058-1.587-.073c-1.189-.05-2.477.018-2.9.034s-1.717.037-2.9.171c-.592.057-1.156.138-1.578.184s-.7.071-.714.014.234-.18.636-.336A13.369,13.369,0,0,1,567.408,254.048Zm5.606,3c-.019.118-.643.12-1.314.165s-1.39.12-1.629.137-.963.035-1.632.1-1.288.138-1.324.024.533-.4,1.206-.613a6.384,6.384,0,0,1,3.412-.245C572.428,256.723,573.033,256.933,573.013,257.046Zm-6.5,2.753a20.67,20.67,0,0,1,2.047-.383c.625-.085,1.141-.12,1.4-.138s.776-.02,1.406.007a20.45,20.45,0,0,1,2.073.191,16.456,16.456,0,0,1,1.848.365c.481.135.784.249.772.306s-.335.054-.826.02-1.154-.076-1.847-.094-1.416-.022-2.027-.007-1.111.052-1.361.058-.75.028-1.36.069-1.331.1-2.017.194-1.342.195-1.831.265-.807.113-.824.057.274-.2.741-.376A16.385,16.385,0,0,1,566.515,259.8Zm2.466,5.005a9.108,9.108,0,0,1,4.162-.219c.847.122,1.591.348,1.573.462s-.781.1-1.608.138-1.718.1-2.014.116-1.19.029-2.015.095-1.582.148-1.613.032S568.151,265.015,568.98,264.8Zm-1.065-2.122c-.024-.05.08-.163.272-.275a3.98,3.98,0,0,1,.755-.325,7.614,7.614,0,0,1,1.462-.319,6.77,6.77,0,0,1,1.5.108,3,3,0,0,1,.8.261.813.813,0,0,1,.226.161c.048.049.066.087.053.113s-.057.039-.12.044-.142,0-.246,0c-.2-.008-.472.006-.753.018-.57.037-1.189.125-1.4.139s-.834.027-1.412.061l-.77.052C568.081,262.732,567.943,262.739,567.915,262.683Zm.815,5.181a14.4,14.4,0,0,1,5.369-.574,5.341,5.341,0,0,1,2.083.355,8.286,8.286,0,0,1-2.077.246c-1.078.08-2.241.235-2.627.276s-1.556.135-2.627.285a8.3,8.3,0,0,1-2.082.2A5.327,5.327,0,0,1,568.731,267.864Zm-.35,3.361a17.076,17.076,0,0,1,6-1.05,6.559,6.559,0,0,1,2.369.206,10.881,10.881,0,0,1-2.324.392c-1.211.161-2.511.417-2.944.493s-1.744.276-2.937.536a10.865,10.865,0,0,1-2.319.421A6.576,6.576,0,0,1,568.381,271.225Zm-.248,4.628a14.707,14.707,0,0,1,1.5-.919,18.644,18.644,0,0,1,1.754-.835c.543-.226,1-.381,1.23-.457s.7-.2,1.271-.323a18.786,18.786,0,0,1,1.918-.31,14.538,14.538,0,0,1,1.755-.1c.466.012.766.048.769.106s-.289.135-.738.223-1.058.209-1.686.358-1.28.318-1.826.477-.988.31-1.211.375-.669.2-1.209.38-1.175.4-1.773.646-1.166.487-1.591.663-.7.287-.735.237S567.757,276.129,568.133,275.853Zm6.24-34.117c.172.043.346.1.528.163s.368.115.553.186c.371.142.753.282,1.115.451a14.027,14.027,0,0,1,1.862.993c.464.313.745.54.715.589s-.367-.078-.869-.3-1.19-.491-1.925-.726c-.364-.129-.744-.232-1.11-.34-.183-.054-.367-.093-.545-.139s-.348-.091-.516-.122c-.664-.148-1.214-.227-1.487-.282-.275-.037-.821-.142-1.5-.218-.168-.026-.346-.035-.528-.053s-.37-.038-.56-.047c-.382-.017-.775-.044-1.161-.041-.771-.017-1.508.033-2.057.058-.547.043-.907.055-.919,0s.327-.178.868-.323a14.016,14.016,0,0,1,2.084-.331c.4-.042.8-.05,1.2-.063.2-.007.394,0,.584,0s.376,0,.552.019c.708.036,1.284.121,1.572.161C573.12,241.432,573.693,241.54,574.373,241.736Zm-10.8-14.591a21.274,21.274,0,0,1,6.7,1.994,8.429,8.429,0,0,1,2.358,1.376,14.791,14.791,0,0,1-2.582-.819c-1.329-.464-2.8-.873-3.287-1.018s-1.943-.606-3.308-.944a14.882,14.882,0,0,1-2.61-.725A8.419,8.419,0,0,1,563.574,227.145Zm6.195,3.745c-.04.112-.7-.012-1.417-.144s-1.492-.283-1.748-.344-1.012-.285-1.714-.485-1.344-.4-1.329-.513.693-.135,1.435-.078a9.4,9.4,0,0,1,3.528.845C569.212,230.456,569.807,230.781,569.769,230.89ZM541.013,222.5a3.546,3.546,0,0,1,.886,1.1l.176.287.173.319c.124.218.23.46.351.71a16.269,16.269,0,0,1,.621,1.649c.181.584.338,1.189.47,1.78s.235,1.17.323,1.7c.173,1.058.278,1.939.314,2.381s.092,1.326.08,2.405a30.9,30.9,0,0,1-.235,3.556,25.745,25.745,0,0,1-.6,3.169l-.155.558c-.05.164-.1.306-.14.421-.082.231-.142.357-.17.35s-.025-.147,0-.389.08-.585.137-1c.116-.837.252-1.97.325-3.161s.086-2.437.052-3.49-.11-1.914-.144-2.343-.114-1.288-.242-2.341c-.066-.525-.144-1.094-.24-1.678s-.218-1.177-.357-1.753-.31-1.128-.484-1.634c-.1-.249-.178-.493-.276-.714-.046-.112-.092-.221-.135-.325s-.094-.2-.138-.3A8.157,8.157,0,0,1,541.013,222.5Zm-3.633,26.753.042,0v0c4.244,0,6.126-5.712,8.147-7.638,8.089-7.71,17.355-7.577,25.146-5.057a20.709,20.709,0,0,0-2.911-.2c-5.6,0-13.747,11.142-11.542,33.438,1.528,15.446,15.107,33.608,15.107,35.815a35.35,35.35,0,0,0,4.4-16.287c1.676-3.193,4.714-6.966,7.394-6.966,2.176,0,3.581,4.469,3.581,11.386,0,11.788-4.237,28.842-11.9,28.842a1.761,1.761,0,0,1-1.946-1.67c0-.073,0-.144-.007-.216a.509.509,0,1,0-1.017.039c.7,18.348-4.826,28.845-9.922,34.567l-.014.016q-.395.443-.785.849a30.155,30.155,0,0,1-4.762,4.025l0,0a26.543,26.543,0,0,1-9.548,4.126.541.541,0,0,0-.1.018l-.017.007a16.94,16.94,0,0,1-3.191.333c-5.113,0-9.689-7.068-11.588-11.244l-.01-.022a2.339,2.339,0,0,0,1.007-.261,2.26,2.26,0,0,0,1.343.408,3.537,3.537,0,0,0,1.972-.649l.065-.046a1.238,1.238,0,0,1,.375-.213,1.254,1.254,0,0,1,.529.043l.154.032a3.637,3.637,0,0,0,3.254-1.05,1.292,1.292,0,0,0,.926-.784,1.336,1.336,0,0,0,.042-1,1.6,1.6,0,0,0,.763-1.2,1.193,1.193,0,0,0-.027-.255,5.7,5.7,0,0,0,2.562.649,3.01,3.01,0,0,0,1.669-.431.424.424,0,1,0-.47-.706c-.783.521-2.5.314-3.63-.415a1.725,1.725,0,0,0,.964-.78,2.9,2.9,0,0,0-.167-2.534l.351-.087a1.314,1.314,0,0,0,.988-.8c2.38,1.127,4.606,2.338,6.058,2.338,1.358,0,3.565-.849,3.565-4.753s-6.62-11.372-14.767-11.372c-6.832,0-10.082,2.983-11.454,4.946-.067,0-.135-.009-.2-.012-.176-.008-.361-.012-.564-.012a21.234,21.234,0,0,0-3.353.271c-2.328-3.956-4.787-10.765-6.759-18.727-1.775-7.162-2.76-13.842-2.451-16.624a.511.511,0,0,0-.067-.314,8.346,8.346,0,0,1-.928-3.5c-.005-.122-.008-.243-.008-.363a4.489,4.489,0,0,0,.895,1.623c1.335,1.52,3.478,1.656,5.2,1.764a7.051,7.051,0,0,1,2.094.312c.014.067.029.134.042.2a.6.6,0,0,0,.582.478.623.623,0,0,0,.117-.012.594.594,0,0,0,.466-.7,9.332,9.332,0,0,0-3.812-6.14,8.219,8.219,0,0,0-3.225-1.216,10.468,10.468,0,0,0-1.44-.13,3.267,3.267,0,0,0,.116-1.55c4.108.355,6.808,3.9,7.475,5.231a.34.34,0,0,0,.608-.3c-.73-1.461-3.732-5.379-8.3-5.624a4.7,4.7,0,0,1,.41-1.693,7.052,7.052,0,0,0,.547-2.292,12.342,12.342,0,0,0-.137-1.469,10.348,10.348,0,0,1,.079-4.326c3.761.615,6.911,5.881,9.308,5.881,2.546,0,2.037-4.753,1.7-4.753,0,0,0,.679-1.018.679-1.188,0-4.583-5.6-8.317-5.6a6.521,6.521,0,0,0-.69.037c-.005-1.074-.114-2.373-.242-3.872-.362-4.266-.858-10.109.823-15.446.091-.287.187-.564.287-.824,2.542-6.678,10.327-12.7,14.119-13.908C532.5,246.132,534.77,249.252,537.381,249.252ZM524.69,349.281a1.572,1.572,0,0,1-1-.166l12.48-3.127a12.137,12.137,0,0,0,5.153,1.712l.08,0a2.3,2.3,0,0,0,.085.335c.024.072.052.144.08.214a1.267,1.267,0,0,1,.116.426c-.005.316-.367.592-.72.821a.341.341,0,0,0-.074.505.674.674,0,0,1-.44,1.012.341.341,0,0,0-.238.115,2.942,2.942,0,0,1-2.707.928l-.141-.029a1.448,1.448,0,0,0-1.44.283l-.061.043a2.218,2.218,0,0,1-2.663.133.341.341,0,0,0-.432-.028,1.839,1.839,0,0,1-1.522.2,6.117,6.117,0,0,1-1.607-.753.341.341,0,0,0-.408.047,1.132,1.132,0,0,1-1.177.119,3.973,3.973,0,0,1-1.2-.906.339.339,0,0,0-.456-.016c-.715.6-1.891.27-2.74-.332l-.057-.039a1.747,1.747,0,0,0-.982-.421,1.832,1.832,0,0,0-.515.092,1.326,1.326,0,0,1-.316.064c-.238,0-.447-.218-.69-.468-.072-.075-.148-.151-.227-.226l1.971-.493a2.287,2.287,0,0,0,1.591.655,2.125,2.125,0,0,0,.365-.031.34.34,0,0,0-.116-.669Zm12.488-3.544,5.417-1.357a2.42,2.42,0,0,1,.243,2.038,1.37,1.37,0,0,1-1.161.588c-.105.01-.221.015-.35.015A10.1,10.1,0,0,1,537.178,345.737Zm-20.252.728a2.486,2.486,0,0,0,1.26.343,2.3,2.3,0,0,0,1.205-.331.34.34,0,0,0-.355-.579,1.748,1.748,0,0,1-2.207-.4.339.339,0,0,0-.535.418,2.225,2.225,0,0,0,.48.449.337.337,0,0,0-.33.066.928.928,0,0,1-.886.142,1.638,1.638,0,0,1-.812-.661.339.339,0,0,0-.562.38,2.666,2.666,0,0,0,.534.581c-.112-.056-.226-.1-.337-.151a1.874,1.874,0,0,1-.576-.32.607.607,0,0,1-.148-.225.8.8,0,0,1,.248-.915.339.339,0,0,0,.1-.459,1.624,1.624,0,0,1-.038-1.57,3.291,3.291,0,0,1,.219-.338,11.567,11.567,0,0,0,4.417-.6,22.37,22.37,0,0,1,5.24-.875,18.813,18.813,0,0,1,8.505,2.523c-5.551,1.19-12.1,2.611-16.8,3.633a2.887,2.887,0,0,0-.464-.467,1.838,1.838,0,0,0,.261.11,1.715,1.715,0,0,0,.53.084,1.54,1.54,0,0,0,1.015-.362A.339.339,0,0,0,516.926,346.464Zm-2.143,1.278c-7.971,1.732-15.219,3.316-17.59,3.834.063-.189.114-.369.153-.535.02-.085.037-.168.052-.249l15.77-4.1a1.164,1.164,0,0,0,.171.2,2.434,2.434,0,0,0,.781.453,3.139,3.139,0,0,1,.42.2A1.541,1.541,0,0,1,514.783,347.742Zm9.061-7a22.9,22.9,0,0,0-5.4.9c-1.79.448-3.336.835-4.3.551a1.323,1.323,0,0,1-.578-.329c-.175-.175-.187-.449-.035-.815.83-2,6.422-5.9,13.713-5.9.193,0,.367,0,.535.012,5.4.214,10.553,3.62,13.319,6.942-1.54.314-4.125.861-7.7,1.627C530.452,342.165,527.266,340.74,523.844,340.74Zm-6.818-44.415a2.171,2.171,0,0,0,2.036-2.273,7.931,7.931,0,0,1,2.6,4.074,11.04,11.04,0,0,0-1.853-.214c-1.68-.106-3.584-.226-4.733-1.535a5.169,5.169,0,0,1-1.049-3.53c.029-.094.06-.187.093-.28a10.069,10.069,0,0,1,1.3.06,2.463,2.463,0,0,0-.432,1.405A2.176,2.176,0,0,0,517.026,296.325Zm-1.124-2.39a.764.764,0,1,1,.764.764A.763.763,0,0,1,515.9,293.935Zm-53.864,19.307a83.669,83.669,0,0,1,68.731-82.217,30.261,30.261,0,0,0-.22,3.671,29.13,29.13,0,0,0,.578,5.858c-4.075,1.273-12.147,7.452-14.844,14.536-.028.071-.054.148-.082.221-6.115,4.86-13.118,21.5-3.539,40.278-.006-.138-.009-.28-.008-.424,0,.148,0,.3.009.447a9.455,9.455,0,0,0,.984,3.818,25.712,25.712,0,0,0,.213,4.879c-2.291.026-12.021,2.111-22.3,8.416a58.986,58.986,0,0,0-14.83,12.764,52.074,52.074,0,0,0-9.355,17.146A83.13,83.13,0,0,1,462.038,313.243Zm5.93,30.914c4.715-15.866,15.623-25.348,24.125-30.564,10.159-6.232,19.675-8.267,21.811-8.267a.552.552,0,0,0,.082-.008c1.165,8.675,4.813,22.544,8.837,29.61-5.129,1.084-9.086,3.829-9.926,5.854a1.328,1.328,0,0,0,.182,1.556,1.9,1.9,0,0,0,.443.324c-.053.08-.1.162-.152.248a2.3,2.3,0,0,0-.077,1.99,1.483,1.483,0,0,0-.357,1.152l-15.459,4.016a1.313,1.313,0,0,0-.564-1.3c-2.232-1.116-5.38-1.087-6.723-1.074l-.294,0c-.591,0-1.2-.006-1.825-.013-5.329-.052-11.842-.117-16.867,3.579Q469.425,347.8,467.968,344.157Zm26.892,4.961c-.245,2.007-1.071,3.051-1.8,3.36a1.053,1.053,0,0,1-1.133-.146c-.689-.573-.905-1.907-.6-3.614A16.7,16.7,0,0,1,494.861,349.118Zm-23.178,3.065c4.781-3.59,11.164-3.529,16.379-3.477.627.006,1.241.012,1.836.012l.3,0,.442,0c-.322,1.922-.021,3.414.854,4.142a1.7,1.7,0,0,0,1.1.4,1.886,1.886,0,0,0,.737-.156c.889-.378,1.889-1.572,2.191-3.8a6.878,6.878,0,0,1,.9.357,4.246,4.246,0,0,1-.668,2.712,5.248,5.248,0,0,1-4.494,2.964,8.577,8.577,0,0,1-4.612-1.592.509.509,0,0,0-.685.059c-.038.042-3.671,3.9-10.744,4.425Q473.326,355.288,471.682,352.183Zm4.163,7.016a18.112,18.112,0,0,0,10.544-4.39,9.344,9.344,0,0,0,4.865,1.547,6.255,6.255,0,0,0,5.641-4.02c1.787-.391,9.812-2.145,18.59-4.052,4.969-1.081,12.112-2.63,17.924-3.875,4.106-.88,6.92-1.474,8.364-1.763l.4-.078c.5-.1.668-.127.723-.133a1.105,1.105,0,0,1,.973.284.406.406,0,0,1,.1.369.652.652,0,0,1-.515.376l-.536.133-.221.056h-.005L508.577,352.2a4.525,4.525,0,0,0-3.505-1.291c-1.525.169-2.984,1.25-4.338,3.213-.012.017-.024.035-.035.052l-24.16,6.053Q476.189,359.716,475.846,359.2Zm1.1,1.628,23.216-5.817q-.452.754-.883,1.632a.45.45,0,0,0-.023.064,8.187,8.187,0,0,0-5.6.222,6.639,6.639,0,0,0-3.312,3.635,9.134,9.134,0,0,0-10.118,1,.509.509,0,1,0,.652.782,8.185,8.185,0,0,1,9.115-.814c-.029.095-.059.188-.086.285a.509.509,0,0,0,.352.628.515.515,0,0,0,.139.019.509.509,0,0,0,.489-.371,6.2,6.2,0,0,1,3.2-4.245,7.451,7.451,0,0,1,5.777.157.509.509,0,0,0,.422-.927l-.073-.032a18.951,18.951,0,0,1,1.354-2.347c1.178-1.708,2.393-2.643,3.611-2.778A3.572,3.572,0,0,1,507.94,353a5.3,5.3,0,0,1,.377.385,8.13,8.13,0,0,1-.522.881,3.039,3.039,0,0,0-2.784-.777,1.879,1.879,0,0,0-1.3,1.476,3.192,3.192,0,0,0,1.178,2.826,34.428,34.428,0,0,1-5.291,4.481,29.035,29.035,0,0,1-17.5,5.214A84.039,84.039,0,0,1,476.951,360.827Zm30.456-6a27.263,27.263,0,0,1-2.049,2.472,2.583,2.583,0,0,1-.978-2.208,1.2,1.2,0,0,1,.835-.952A2.457,2.457,0,0,1,507.406,354.824ZM483,368.525l.163,0a29.746,29.746,0,0,0,15.111-4.21c-1.894,2.616-5.82,6.908-10.693,8.994Q485.2,371.01,483,368.525Zm62.57,28.249a83.229,83.229,0,0,1-57.187-22.7,28.885,28.885,0,0,0,11.9-11.041c5.369-3.7,8.638-8.27,9.1-9.561a.508.508,0,0,0-.067-.47c-.005-.007-.072-.1-.192-.238l10.86-2.721a1.562,1.562,0,0,1,.631.476,1.7,1.7,0,0,0,1.167.674,1.643,1.643,0,0,0,.515-.092,1.674,1.674,0,0,1,.316-.064,1.229,1.229,0,0,1,.6.3l.058.041a3.18,3.18,0,0,0,3.319.477,3.948,3.948,0,0,0,1.209.851,1.848,1.848,0,0,0,1.695-.093,7.141,7.141,0,0,0,1.248.608c.1.236.242.562.276.635,2,4.4,6.884,11.84,12.515,11.84a17.381,17.381,0,0,0,2.983-.281c.955,3.324,5.69,18.954,13.26,30.155A83.678,83.678,0,0,1,545.57,396.775Zm36.714-33.663c5.352-16.348,6.9-36.2,4.743-60.692,0-.051-.016-.144-.033-.257.127-.914.227-1.825.313-2.731,6.765,38.068-.818,72.715-19.228,94.256-.962.27-1.929.527-2.9.763C571.548,386.018,577.911,376.468,582.284,363.112ZM590.55,383.6a161.57,161.57,0,0,0,9.7-43.127c1.188-13.709,1.081-33.586-6.094-50.741a43.633,43.633,0,0,1,7.8-2.68,34.327,34.327,0,0,1,23.7,2.412,83.518,83.518,0,0,1-35.1,94.135Zm-59.395-34.321a.339.339,0,0,1,.431-.525,1.491,1.491,0,0,0,1.849.033.339.339,0,1,1,.412.54,2.179,2.179,0,0,1-1.316.444h-.037A2.175,2.175,0,0,1,531.156,349.283Zm3.571,2.121a.339.339,0,0,1-.01.48,1.881,1.881,0,0,1-1.3.49,2.157,2.157,0,0,1-.255-.015,3.075,3.075,0,0,1-1.414-.6.339.339,0,1,1,.4-.551,2.4,2.4,0,0,0,1.1.474,1.246,1.246,0,0,0,1-.291A.339.339,0,0,1,534.727,351.4Zm3.444-38.083a4.161,4.161,0,0,1-.176,5.381.424.424,0,1,1-.634-.564,3.281,3.281,0,0,0,.14-4.3,3.233,3.233,0,0,0-4.21-.817.424.424,0,1,1-.393-.752A4.054,4.054,0,0,1,538.17,313.32Zm-7.791-32.412a1.485,1.485,0,0,0,1.018.34c1.7,0,8.317-10.864,14.088-10.864s5.092,5.941,5.092,5.941-.679-1.528-4.243-1.528c-5.771,0-10.524,11.033-13.41,11.033S530.04,282.435,530.379,280.908Zm20.28,1.056a.339.339,0,0,1-.289.383c-5.477.761-13.625,5.322-13.625,14.77a.34.34,0,1,1-.679,0,14.572,14.572,0,0,1,4.777-10.985,17.87,17.87,0,0,1,9.434-4.457A.338.338,0,0,1,550.659,281.964Zm-13.073,67.991a.343.343,0,0,1,.131-.081,2.148,2.148,0,0,1-.429-.13.339.339,0,0,1,.264-.625,1.655,1.655,0,0,0,1.732-.309.339.339,0,0,1,.465.495,2.344,2.344,0,0,1-1.592.611c-.048,0-.1,0-.144-.007a.355.355,0,0,1,.053.044.339.339,0,0,1,0,.48,2.688,2.688,0,0,1-.281.244.339.339,0,0,1,.285.08.87.87,0,0,0,1.191-.031.34.34,0,1,1,.477.483,1.569,1.569,0,0,1-1.049.446h-.038a1.566,1.566,0,0,1-1.033-.392.341.341,0,0,1-.068-.424,2.7,2.7,0,0,1-1.181.4c-.07.005-.141.009-.211.009a2.509,2.509,0,0,1-1.6-.568.34.34,0,1,1,.434-.522,1.834,1.834,0,0,0,1.317.4A2.06,2.06,0,0,0,537.586,349.955Zm-3.831-2.721a.34.34,0,0,1,.45-.168,1.365,1.365,0,0,0,1.5-.277.34.34,0,0,1,.485.476,2.034,2.034,0,0,1-1.445.595,1.973,1.973,0,0,1-.82-.176A.339.339,0,0,1,533.755,347.235Zm-5.962-23.482a2.466,2.466,0,0,0,1.822.777c1.964,0,2.883-3.891,3.115-5.668a.753.753,0,0,1-.059-.157.779.779,0,0,1,.568-.945.745.745,0,0,1,.163-.022h.021a4.7,4.7,0,0,1,1.868.3,3.718,3.718,0,0,1,1.5,1.1.426.426,0,0,1-.593.606l-.007-.006a2.681,2.681,0,0,0-1.239-.554,3.354,3.354,0,0,0-1.335.088.682.682,0,0,1-.091.013c-.255,1.617-1.2,6.094-3.909,6.094a3.316,3.316,0,0,1-2.424-1.028c-2.925-2.942-2.874-11.675-2.825-20.12.038-6.629.082-14.141-1.919-14.329a.424.424,0,1,1,.08-.845c2.775.26,2.737,6.844,2.688,15.179C525.168,312.122,525.117,321.061,527.793,323.753Zm45.456-6.617c.482-2.09,3.311-7.59,6.991-8.394-.493-2.034.444-4.893,1.516-8.163,1.643-5.014,3.506-10.7.4-14.479a.266.266,0,0,0-.325-.087c-1.357.363-4.109,4.832-4.53,7.356a2.538,2.538,0,0,0,1.312,2.816,2.513,2.513,0,0,1,1.237,1.651c.185,1.66-2.769,4.41-3.363,4.945a.424.424,0,0,1-.568-.631c1.25-1.126,3.193-3.267,3.087-4.221-.044-.394-.374-.663-.908-1.069a3.37,3.37,0,0,1-1.635-3.63c.459-2.752,3.3-7.543,5.149-8.036a1.106,1.106,0,0,1,1.2.368c3.4,4.142,1.458,10.06-.253,15.282-1.065,3.25-2.071,6.32-1.378,8.086a.425.425,0,0,1-.355.578c-3.288.313-6.264,5.691-6.756,7.82a.423.423,0,0,1-.412.329.417.417,0,0,1-.1-.011A.424.424,0,0,1,573.249,317.136Z" transform="translate(-458.643 -220.142)" fill="#090b0b"/>
        </g>
      </g>
      <path id="Path_2120" data-name="Path 2120" d="M4.64-94.01H28.4v12.661H17.4l6.233,3.9v38.761q0,5.941,1.85,7.937a6.944,6.944,0,0,0,5.356,2V-16.1a20.187,20.187,0,0,1-10.177-2.581,18.693,18.693,0,0,1-7.109-7.109A20.187,20.187,0,0,1,10.97-35.966V-81.349H4.64Zm40.806,0h59.31v12.661H58.2l6.233,3.9q0,17.627,3.068,28.194t9.934,15.534q6.866,4.967,18.553,4.967h8.765V-16.1H95.991q-22.984,0-33.6-14.949T51.776-74.824v-6.525h-6.33Zm73.919,31.165h6.33V-94.01h12.661v31.165h18.212V-94.01h12.661v31.165h13.148v12.661H169.715a46.289,46.289,0,0,0,2.678,11.638,20,20,0,0,0,4.529,7.3,7.927,7.927,0,0,0,5.454,2.483V-16.1A19.342,19.342,0,0,1,170.1-20.481a31.767,31.767,0,0,1-9.057-12.125,52.361,52.361,0,0,1-4.285-17.579h-24.64l6.233,3.9V-16.1H125.7V-50.184h-6.33ZM196.984-94.01h23.763v12.661H209.742l6.233,3.9v38.761q0,5.941,1.85,7.937a6.944,6.944,0,0,0,5.356,2V-16.1A20.187,20.187,0,0,1,213-18.679a18.693,18.693,0,0,1-7.109-7.109,20.187,20.187,0,0,1-2.581-10.177V-81.349h-6.33ZM267.007-16.2V-28.856h19.186a22.226,22.226,0,0,0,13.05-3.944,23.894,23.894,0,0,0,8.473-10.859,35.169,35.169,0,0,1-17.141-4.918,38.173,38.173,0,0,1-13-13.05,54.812,54.812,0,0,1-7.158-19.721h-7.3V-94.01h59.31v12.661H283.271q2.435,11.979,9.349,18.5a23.765,23.765,0,0,0,16.946,6.525h.39v-4.188h12.661v4.577a43.935,43.935,0,0,1-4.675,20.452,35.18,35.18,0,0,1-13,14.17A35.106,35.106,0,0,1,286.193-16.2Zm70.12-77.814h48.889V-16.2H373.356V-81.349H349.885l6.233,3.9v17.53h13.342v12.661H356.118v11.3a20.187,20.187,0,0,1-2.581,10.177,18.694,18.694,0,0,1-7.109,7.109A20.187,20.187,0,0,1,336.251-16.1V-28.759a6.944,6.944,0,0,0,5.356-2q1.85-2,1.85-7.937V-81.349h-6.33Zm62.524,0h6.33v-6.33h12.661v6.33h44.02v58.044a20.187,20.187,0,0,1-2.581,10.177,18.693,18.693,0,0,1-7.109,7.109A20.187,20.187,0,0,1,442.795-16.1V-28.759a6.944,6.944,0,0,0,5.356-2q1.85-2,1.85-7.937V-81.349H412.409l6.233,3.9V-16.2H405.982V-81.349h-6.33Zm103.915,0h23.763v12.661H516.324l6.233,3.9v38.761q0,5.941,1.85,7.937a6.944,6.944,0,0,0,5.356,2V-16.1a20.187,20.187,0,0,1-10.177-2.581,18.693,18.693,0,0,1-7.109-7.109A20.186,20.186,0,0,1,509.9-35.966V-81.349h-6.33Zm40.806,0h6.33v-6.33h12.661v6.33h44.02v58.044A20.186,20.186,0,0,1,604.8-25.788a18.693,18.693,0,0,1-7.109,7.109A20.187,20.187,0,0,1,587.516-16.1V-28.759a6.944,6.944,0,0,0,5.356-2q1.85-2,1.85-7.937V-81.349H557.13l6.233,3.9V-16.2H550.7V-81.349h-6.33Zm77.619,19.77a20.187,20.187,0,0,1,2.581-10.177,18.693,18.693,0,0,1,7.109-7.109,20.187,20.187,0,0,1,10.177-2.581v12.661a6.944,6.944,0,0,0-5.356,2q-1.85,2-1.85,7.937v42.657h31.359V-94.01h12.661v61.258l-6.233,3.9H685V-16.2h-6.33v6.33H666.012V-16.2h-44.02Z" transform="translate(-10207 19772.102)" fill="#fff"/>
    </g>
  </g>
</svg>
