<svg xmlns="http://www.w3.org/2000/svg" xmlns:xlink="http://www.w3.org/1999/xlink" width="1035" height="200" viewBox="0 0 1035 200">
  <defs>
    <filter id="Ellipse_5" x="1.5" y="1.5" width="195" height="195" filterUnits="userSpaceOnUse">
      <feOffset input="SourceAlpha"/>
      <feGaussianBlur stdDeviation="3.5" result="blur"/>
      <feFlood flood-color="#a5befd"/>
      <feComposite operator="in" in2="blur"/>
      <feComposite in="SourceGraphic"/>
    </filter>
    <linearGradient id="linear-gradient" x1="0.429" y1="0.298" x2="0.315" y2="1.286" gradientUnits="objectBoundingBox">
      <stop offset="0" stop-color="#b2c8ff"/>
      <stop offset="1" stop-color="#5ff"/>
    </linearGradient>
  </defs>
  <g id="logo" transform="translate(-2997 -1333)">
    <rect id="Image_3" data-name="Image 3" width="1035" height="200" transform="translate(2997 1333)" fill="none"/>
    <g id="Group_5" data-name="Group 5" transform="translate(2823.88 1159.88)">
      <g transform="matrix(1, 0, 0, 1, 173.12, 173.12)" filter="url(#Ellipse_5)">
        <circle id="Ellipse_5-2" data-name="Ellipse 5" cx="87" cy="87" r="87" transform="translate(12 12)" fill="#070b0d"/>
      </g>
      <ellipse id="Ellipse_7" data-name="Ellipse 7" cx="76" cy="75.5" rx="76" ry="75.5" transform="translate(196.12 197.12)" fill="url(#linear-gradient)"/>
      <circle id="Ellipse_6" data-name="Ellipse 6" cx="72" cy="72" r="72" transform="translate(199.12 200.12)" fill="#070b0d"/>
      <g id="Group_4" data-name="Group 4" transform="translate(228.943 229.038)">
        <path id="Path_10" data-name="Path 10" d="M218.132,360.656l-9.625,11.98-4.953-3.96,9.626-11.953Z" transform="translate(-184.07 -301.35)" stroke="#000" stroke-miterlimit="10" stroke-width="1" fill="url(#linear-gradient)"/>
        <path id="Path_12" data-name="Path 12" d="M445.338,173.945l-7.714,5.115-3.509-5.268,7.713-5.115Z" transform="translate(-377.491 -143.597)" stroke="#000" stroke-miterlimit="10" stroke-width="1" fill="url(#linear-gradient)"/>
        <path id="Path_13" data-name="Path 13" d="M440.454,334.289a3.139,3.139,0,0,1,.793,4.4,3.194,3.194,0,0,1-4.4.766l-11.114-7.74a3.167,3.167,0,0,1,3.609-5.2Z" transform="translate(-369.414 -275.607)" stroke="#000" stroke-miterlimit="10" stroke-width="1" fill="url(#linear-gradient)"/>
        <path id="Path_11" data-name="Path 11" d="M174.3,100.35l13.775,13.73-4.511,4.474-13.775-13.73Z" transform="translate(-155.745 -86.277)" stroke="#000" stroke-miterlimit="10" stroke-width="1" fill="url(#linear-gradient)"/>
        <path id="Path_6" data-name="Path 6" d="M485.131,100.425a10.751,10.751,0,0,1-3.175,7.668,10.9,10.9,0,0,1-15.336,0,10.762,10.762,0,0,1,0-15.336.575.575,0,0,1,.208-.181,10.75,10.75,0,0,1,7.442-2.976,10.905,10.905,0,0,1,7.686,3.166,10.715,10.715,0,0,1,3.175,7.659Zm-7.686,3.166a4.469,4.469,0,0,0-3.193-7.614,4.449,4.449,0,0,0-3.04,1.182c-.054,0-.081.081-.126.135a4.385,4.385,0,0,0-1.3,3.131,4.511,4.511,0,0,0,4.511,4.511,4.411,4.411,0,0,0,3.175-1.308Z" transform="translate(-399.814 -77.484)" stroke="#000" stroke-miterlimit="10" stroke-width="1" fill="url(#linear-gradient)"/>
        <path id="Path_7" data-name="Path 7" d="M104.332,23.9a10.736,10.736,0,0,1-3.175,7.641,1.068,1.068,0,0,0-.2.207,11,11,0,0,1-7.487,2.977A10.883,10.883,0,1,1,104.333,23.86Zm-7.686,3.166a3.337,3.337,0,1,0-.1.126c.054,0,.045-.1.1-.126Z" transform="translate(-82.602 -12.99)" stroke="#000" stroke-miterlimit="10" stroke-width="1" fill="url(#linear-gradient)"/>
        <path id="Path_8" data-name="Path 8" d="M142.469,422.735a10.919,10.919,0,0,1-10.862,10.825A10.851,10.851,0,1,1,142.432,422.7Zm-7.686,3.158h0a4.511,4.511,0,0,0-3.176-7.632,4.43,4.43,0,0,0-3.175,1.308,4.481,4.481,0,0,0,6.351,6.323Z" transform="translate(-114.594 -347.617)" stroke="#000" stroke-miterlimit="10" stroke-width="1" fill="url(#linear-gradient)"/>
        <path id="Path_9" data-name="Path 9" d="M504.211,366.08a10.857,10.857,0,0,1-21.714,0,10.638,10.638,0,0,1,3.193-7.587c.054-.081.135-.135.181-.208a10.859,10.859,0,0,1,18.34,7.839Zm-7.686,3.166h0a4.484,4.484,0,0,0-6.215-6.459c-.054.054-.072.108-.126.126a4.465,4.465,0,0,0,0,6.333,4.409,4.409,0,0,0,3.176,1.308,4.51,4.51,0,0,0,3.166-1.308Z" transform="translate(-418.078 -300.144)" stroke="#000" stroke-miterlimit="10" stroke-width="1" fill="url(#linear-gradient)"/>
        <path id="Path_5" data-name="Path 5" d="M232.662,153.5a3.193,3.193,0,0,1-4.059-1.958,3.139,3.139,0,0,1,1.985-4.005,21.107,21.107,0,0,1,7.036-1.209,21.506,21.506,0,0,1,17.753,33.757,3.178,3.178,0,0,1-5.232-3.608,15.219,15.219,0,0,0-15.065-23.59,17.308,17.308,0,0,0-2.418.614Zm12.458,27.587a3.157,3.157,0,1,1,3.094,5.5,22.178,22.178,0,0,1-5.106,2.084,21.57,21.57,0,0,1-27.064-20.811,21.029,21.029,0,0,1,1.633-8.182,21.568,21.568,0,0,1,4.61-7,3.21,3.21,0,0,1,4.511,0,3.149,3.149,0,0,1,0,4.511,14.989,14.989,0,0,0-4.375,10.672,15.154,15.154,0,0,0,15.2,15.155,14.472,14.472,0,0,0,3.87-.487,15.169,15.169,0,0,0,3.609-1.443Z" transform="translate(-194.548 -124.85)" stroke="#000" stroke-miterlimit="10" stroke-width="1" fill="url(#linear-gradient)"/>
      </g>
    </g>
    <path id="Path_15" data-name="Path 15" d="M52.545-58.873a3.444,3.444,0,0,1,2.147.791,2.464,2.464,0,0,1,1.017,2.034,4.238,4.238,0,0,1-.452,1.921L33.109-2.147a4.206,4.206,0,0,1-1.3,1.525A2.927,2.927,0,0,1,30.058,0a3.142,3.142,0,0,1-2.034-.452,3.421,3.421,0,0,1-1.356-1.7L4.407-54.127a2.165,2.165,0,0,0-.169-.678,2.559,2.559,0,0,1-.169-.9,3.259,3.259,0,0,1,.9-2.317,3.4,3.4,0,0,1,2.6-.96,3.083,3.083,0,0,1,1.865.622,4,4,0,0,1,1.3,1.638l19.21,45.765L49.268-56.726a4,4,0,0,1,1.3-1.638A2.763,2.763,0,0,1,52.545-58.873ZM86.558-3.39A3.293,3.293,0,0,1,85.6-.961,3.293,3.293,0,0,1,83.168,0a3.293,3.293,0,0,1-2.43-.961,3.293,3.293,0,0,1-.96-2.43V-55.37a3.293,3.293,0,0,1,.96-2.429,3.293,3.293,0,0,1,2.43-.961A3.293,3.293,0,0,1,85.6-57.8a3.293,3.293,0,0,1,.961,2.429Zm-3.39-62.941a5.2,5.2,0,0,1-3.5-1.074,3.882,3.882,0,0,1-1.243-3.107v-1.13a3.8,3.8,0,0,1,1.3-3.108,5.425,5.425,0,0,1,3.56-1.073q4.52,0,4.52,4.181v1.13A3.976,3.976,0,0,1,86.615-67.4,4.972,4.972,0,0,1,83.168-66.331ZM181.026-58.2q10.17,0,14.973,6.272t4.8,16.554V-3.39a3.293,3.293,0,0,1-.96,2.43,3.293,3.293,0,0,1-2.43.961,3.293,3.293,0,0,1-2.43-.961,3.293,3.293,0,0,1-.96-2.43V-35.03q0-7.458-3.559-12.148t-11.018-4.689a18.817,18.817,0,0,0-8.983,2.26,18.582,18.582,0,0,0-6.837,6.159,14.887,14.887,0,0,0-2.6,8.419V-3.39a3.293,3.293,0,0,1-.96,2.43,3.293,3.293,0,0,1-2.43.961,3.293,3.293,0,0,1-2.43-.961,3.293,3.293,0,0,1-.96-2.43V-35.369q0-7.345-3.39-11.921t-10.622-4.576a17.954,17.954,0,0,0-8.757,2.26,18.742,18.742,0,0,0-6.667,6.046,14.408,14.408,0,0,0-2.542,8.192V-3.39a3.293,3.293,0,0,1-.961,2.43A3.293,3.293,0,0,1,118.876,0a3.293,3.293,0,0,1-2.43-.961,3.293,3.293,0,0,1-.96-2.43V-54.014a3.293,3.293,0,0,1,.96-2.43,3.293,3.293,0,0,1,2.43-.96,3.293,3.293,0,0,1,2.429.96,3.293,3.293,0,0,1,.961,2.43v6.554a24.561,24.561,0,0,1,8.249-7.684A21.325,21.325,0,0,1,141.476-58.2a19.9,19.9,0,0,1,11.3,3.164,17.272,17.272,0,0,1,6.78,9.266q2.373-4.972,8.7-8.7A24.923,24.923,0,0,1,181.026-58.2ZM292.1-77.179a6.875,6.875,0,0,0-5.593,2.373,9.938,9.938,0,0,0-1.978,6.554v11.639H297.19a3.123,3.123,0,0,1,2.2.9,2.975,2.975,0,0,1,.961,2.26,2.975,2.975,0,0,1-.961,2.26,3.123,3.123,0,0,1-2.2.9H284.534v46.9a3.293,3.293,0,0,1-.961,2.43,3.293,3.293,0,0,1-2.43.961,3.293,3.293,0,0,1-2.429-.961,3.293,3.293,0,0,1-.961-2.43v-46.9h-8.249a2.975,2.975,0,0,1-2.26-.96,3.123,3.123,0,0,1-.9-2.2,3.021,3.021,0,0,1,.9-2.317,3.176,3.176,0,0,1,2.26-.848h8.249V-68.252q0-7.119,4.125-11.018t11.017-3.9a17.481,17.481,0,0,1,5.876.961q2.712.961,2.712,3.107a3.066,3.066,0,0,1-.9,2.26,2.81,2.81,0,0,1-2.034.9,7.178,7.178,0,0,1-2.486-.565A15.969,15.969,0,0,0,292.1-77.179ZM318.434-3.39a3.293,3.293,0,0,1-.96,2.43,3.293,3.293,0,0,1-2.43.961,3.293,3.293,0,0,1-2.43-.961,3.293,3.293,0,0,1-.961-2.43V-55.37a3.293,3.293,0,0,1,.961-2.429,3.293,3.293,0,0,1,2.43-.961,3.293,3.293,0,0,1,2.43.961,3.293,3.293,0,0,1,.96,2.429Zm-3.39-62.941a5.2,5.2,0,0,1-3.5-1.074,3.882,3.882,0,0,1-1.243-3.107v-1.13a3.8,3.8,0,0,1,1.3-3.108,5.425,5.425,0,0,1,3.559-1.073q4.52,0,4.52,4.181v1.13a3.976,3.976,0,0,1-1.186,3.107A4.972,4.972,0,0,1,315.044-66.331ZM374.6-59.1q10.509,0,15.424,6.158t4.915,16.329V-3.39a3.2,3.2,0,0,1-1.017,2.43A3.347,3.347,0,0,1,391.545,0a3.293,3.293,0,0,1-2.43-.961,3.293,3.293,0,0,1-.961-2.43V-36.273q0-7.345-3.672-11.922t-11.357-4.576a19.7,19.7,0,0,0-9.21,2.26,19.7,19.7,0,0,0-7.062,6.045,13.786,13.786,0,0,0-2.712,8.193V-3.39a3.293,3.293,0,0,1-.961,2.43,3.293,3.293,0,0,1-2.43.961,3.293,3.293,0,0,1-2.429-.961,3.293,3.293,0,0,1-.961-2.43V-54.014a3.293,3.293,0,0,1,.961-2.43,3.293,3.293,0,0,1,2.429-.96,3.293,3.293,0,0,1,2.43.96,3.293,3.293,0,0,1,.961,2.43V-47.8a23.97,23.97,0,0,1,8.758-8.08A23.523,23.523,0,0,1,374.6-59.1Zm96.276,1.356a3.2,3.2,0,0,1,2.43,1.017,3.486,3.486,0,0,1,.961,2.486V-3.39a3.293,3.293,0,0,1-.961,2.43,3.293,3.293,0,0,1-2.43.961,3.293,3.293,0,0,1-2.429-.961,3.293,3.293,0,0,1-.961-2.43v-7.571a23.677,23.677,0,0,1-8.475,8.588,22.934,22.934,0,0,1-12.317,3.5,24.326,24.326,0,0,1-13.617-3.955,27.181,27.181,0,0,1-9.492-10.848,34.136,34.136,0,0,1-3.447-15.481,33.333,33.333,0,0,1,3.5-15.425,26.844,26.844,0,0,1,9.548-10.679A24.456,24.456,0,0,1,446.576-59.1a24.331,24.331,0,0,1,12.43,3.277,21.583,21.583,0,0,1,8.475,8.588V-54.24a3.486,3.486,0,0,1,.961-2.486A3.2,3.2,0,0,1,470.871-57.743ZM447.367-5.2a18.7,18.7,0,0,0,10.566-3.107,21.054,21.054,0,0,0,7.345-8.588,27.75,27.75,0,0,0,2.655-12.26,26.87,26.87,0,0,0-2.655-11.978,21.132,21.132,0,0,0-7.345-8.532,18.7,18.7,0,0,0-10.566-3.107A18.951,18.951,0,0,0,436.8-49.72a20.8,20.8,0,0,0-7.345,8.418A27.03,27.03,0,0,0,426.8-29.154a28.258,28.258,0,0,0,2.6,12.26,20.655,20.655,0,0,0,7.288,8.588A18.891,18.891,0,0,0,447.367-5.2Zm83.168-53.9q10.509,0,15.424,6.158t4.916,16.329V-3.39a3.2,3.2,0,0,1-1.017,2.43A3.348,3.348,0,0,1,547.485,0a3.293,3.293,0,0,1-2.43-.961,3.293,3.293,0,0,1-.961-2.43V-36.273q0-7.345-3.672-11.922t-11.357-4.576a19.7,19.7,0,0,0-9.209,2.26,19.7,19.7,0,0,0-7.062,6.045,13.786,13.786,0,0,0-2.712,8.193V-3.39a3.293,3.293,0,0,1-.961,2.43,3.293,3.293,0,0,1-2.43.961,3.293,3.293,0,0,1-2.429-.961,3.293,3.293,0,0,1-.961-2.43V-54.014a3.293,3.293,0,0,1,.961-2.43,3.293,3.293,0,0,1,2.429-.96,3.293,3.293,0,0,1,2.43.96,3.293,3.293,0,0,1,.961,2.43V-47.8a23.97,23.97,0,0,1,8.757-8.08A23.523,23.523,0,0,1,530.535-59.1Zm74.354,0a39.3,39.3,0,0,1,9.887,1.186,21.455,21.455,0,0,1,7.345,3.221q2.768,2.034,2.768,4.407a3.445,3.445,0,0,1-.847,2.26,2.62,2.62,0,0,1-2.091,1.017,3.505,3.505,0,0,1-1.865-.452,9.356,9.356,0,0,1-1.638-1.356,11.214,11.214,0,0,0-2.825-2.147,18.789,18.789,0,0,0-4.464-1.3,32.842,32.842,0,0,0-5.932-.508,21.246,21.246,0,0,0-11.357,3.164,22.438,22.438,0,0,0-8.08,8.588,24.739,24.739,0,0,0-2.938,11.978,26.02,26.02,0,0,0,2.825,12.2,21.472,21.472,0,0,0,7.854,8.531A21.369,21.369,0,0,0,605-5.2a25.02,25.02,0,0,0,6.5-.678A24.581,24.581,0,0,0,616.3-7.8a24.074,24.074,0,0,0,2.712-2.034,10.718,10.718,0,0,1,1.582-1.187,2.865,2.865,0,0,1,1.469-.4,2.8,2.8,0,0,1,2.147.847,3.1,3.1,0,0,1,.791,2.2q0,1.921-2.712,4.125a23.7,23.7,0,0,1-7.458,3.786A33.085,33.085,0,0,1,604.324,1.13a27.806,27.806,0,0,1-14.69-3.9,26.6,26.6,0,0,1-10-10.792,33.239,33.239,0,0,1-3.56-15.481,31.76,31.76,0,0,1,3.616-15.085,28.043,28.043,0,0,1,10.17-10.9A27.907,27.907,0,0,1,604.889-59.1Zm93.225,26.894a3.072,3.072,0,0,1-1.017,2.316,3.347,3.347,0,0,1-2.373.961H652.01a26.111,26.111,0,0,0,2.769,12.148,20.916,20.916,0,0,0,7.91,8.475A23.034,23.034,0,0,0,674.836-5.2a20.546,20.546,0,0,0,9.718-2.26,20.018,20.018,0,0,0,6.893-5.763,3.821,3.821,0,0,1,2.373-1.017,2.81,2.81,0,0,1,2.034.9,2.81,2.81,0,0,1,.9,2.034,3.349,3.349,0,0,1-1.13,2.373,28.44,28.44,0,0,1-9.1,7.232A24.937,24.937,0,0,1,674.949,1.13,30.949,30.949,0,0,1,659.581-2.6a26.43,26.43,0,0,1-10.4-10.453,31.506,31.506,0,0,1-3.729-15.538A34.215,34.215,0,0,1,649.129-44.8,26.485,26.485,0,0,1,658.9-55.427,24.786,24.786,0,0,1,671.9-59.1a26.611,26.611,0,0,1,12.713,3.164,25.027,25.027,0,0,1,9.661,9.266A27.943,27.943,0,0,1,698.114-32.205ZM671.9-52.545a18.935,18.935,0,0,0-12.147,4.52q-5.594,4.52-7.176,13h38.533v-.9a17.824,17.824,0,0,0-3.39-8.87,18.4,18.4,0,0,0-7.062-5.763A20.488,20.488,0,0,0,671.9-52.545Z" transform="translate(3241 1473.668)" fill="#fff" stroke="#fff" stroke-width="2"/>
  </g>
</svg>
