<svg xmlns="http://www.w3.org/2000/svg" width="849.034" height="879.182" viewBox="0 0 849.034 879.182">
  <g id="section1" transform="translate(-458.643 -220.143)">
    <g id="colors" transform="translate(466.933 228.329)">
      <g id="Group_10796" data-name="Group 10796" transform="translate(0 30.251)">
        <path id="Path_2095" data-name="Path 2095" d="M1293.594,647.933c0,154.9-84.617,290.041-210.151,361.7a413.1,413.1,0,0,1-129.064,47.406A416.751,416.751,0,0,1,509.041,841.966q-8.78-16.608-16.058-34.077a414.969,414.969,0,0,1-31.846-159.957c0-229.878,186.352-416.227,416.227-416.227,190.025,0,350.3,127.329,400.166,301.329A416.419,416.419,0,0,1,1293.594,647.933Z" transform="translate(-461.137 -231.706)" fill="#fbf09e"/>
      </g>
      <g id="Group_10797" data-name="Group 10797" transform="translate(47.356 58.325)">
        <path id="Path_2096" data-name="Path 2096" d="M1022.477,647.371q.344,5.928.346,12.318c0,70.616-31.541,179.368-64.175,232.215,0,0-28.183-46.422-32.328-56.367a155.912,155.912,0,0,1-18.169,16.56.157.157,0,0,1-.033.033q-2.6,2.054-5.521,4.188a159.044,159.044,0,0,1-21.154,13.063l-.921.472c-13.784,6.914-29.859,12.1-47.043,12.1-19.063,0-34.9-17.9-45.325-34.087-2.23-3.474-4.218-6.864-5.933-9.988a162.149,162.149,0,0,1-7.6-15.609s-31.5-53.049-38.129-87.037c0,0-43.935-88.7-45.591-174.9,0,0-9.117-16.58-2.486-35.646,1.738-5.012,3.314-6.631,1.655-12.431s4.145-15.752,4.976-19.066-7.462-18.238,4.145-47.249c-6.093-40.385-5.887-72.2,3.53-98.394,10.9-30.377,34.176-53.216,74.329-73.169q.858-.434,1.715-.851s108.921-52.471,191.284-25.83a.391.391,0,0,1,.1.033q2.548.818,5.072,1.758s.821,1.938,1.605,4.351c1.708,5.238,3.268,12.707-4.092,7.253-22.383-16.58-135.117,99.471-1.658,309.187,0,0,17.407-32.328,15.749-63.826,0,0,20.193-40.03,43.1-33.156C1054.8,480.756,1054.8,594.318,1022.477,647.371Zm-467.515,180.7s16.58,9.948,29.842,8.29,25.7-29.011,21.552-31.5c-14.638-8.782-48.908-5.8-48.908-5.8-21.552-2.486-59.681.828-82.064,23.208l17.028,28.509C533.409,851.286,554.962,828.075,554.962,828.075Zm92.009-13.262c-9.945,0-19.894,14.921-19.894,14.921L499.383,860.819c22.423,36.058,52.265,65.9,52.265,65.9,47.246-14.093,67.14-55.539,67.14-55.539,29.015-17.407,46.422-46.418,46.422-46.418S656.92,814.813,646.971,814.813Z" transform="translate(-475.384 -240.152)" fill="#fed791"/>
      </g>
      <g id="Group_10798" data-name="Group 10798" transform="translate(64.763 58.893)">
        <path id="Path_2097" data-name="Path 2097" d="M690.556,347.15c10.9-30.377,34.176-53.216,74.329-73.169.582-.023.887-.023.887-.023s13.262,36.473,29.842,36.473S825.454,278.1,825.454,278.1c44.836-51.627,110.274-37.567,132.431-30.8a.393.393,0,0,1,.1.033c4.813,1.466,7.559,2.586,7.559,2.586l-.881,3.523-.778,3.108c-52.222-4.145-60.512,51.394-60.512,51.394C869.585,338.588,709.895,429.58,690.556,347.15ZM940.674,545.016c-.8,29.643,36.324,230.351-74.137,297.673-37.617-14.057-68.762-22.3-96.487-5.205,1.715,3.125,3.7,6.515,5.933,9.988,10.427,16.191,26.262,34.087,45.325,34.087,17.185,0,33.259-5.189,47.043-12.1l.921-.472.1.14c6.548-2.742,16.064-8.346,26.575-17.391a.155.155,0,0,0,.033-.033c30.726-26.442,69.969-82.32,68.732-182.347l-5.8-99.471ZM818.822,768.825c-3.2,1.2-135.114,29.011-135.114,29.011-.827-5.8-8.29-4.145-9.117-8.287l-80.405,20.721c-.831,10.776-10.776,23.211-22.1,25.754s-30.151-7.489-30.151-7.489c-2.51,6.658-39.764,24.012-61.316,21.522l6.97,10.969,127.316-31.69s7.462-13.263,19.894-14.921c7.8-1.04,15.752,5.8,15.752,5.8s164.956-41.446,172.415-43.1S825.454,766.339,818.822,768.825Z" transform="translate(-480.621 -240.323)" fill="#b6955e"/>
      </g>
      <g id="Group_10799" data-name="Group 10799" transform="translate(257.11 551.753)">
        <path id="Path_2098" data-name="Path 2098" d="M659.417,445.718c5.166,2.2,12.119,4.471,18.777,4.471,6.954,0,8.679-3.929,8.513-7.974a15.961,15.961,0,0,0-.5-3.3,18.574,18.574,0,0,0-1.988-5.006l-32.95,7.741s1.283.788,3.43,1.875C655.987,444.179,657.6,444.95,659.417,445.718Zm19.844-20.256-41.35,8.975c-3.158-1.828-6.216-3.424-9.174-4.853-1.23-.6-2.46-1.163-3.656-1.662A96.7,96.7,0,0,0,607,421.806c-1.5-.332-2.991-.632-4.421-.864a74.023,74.023,0,0,0-19.179-.864q-2.892.249-5.584.7a131.119,131.119,0,0,0-15.689,3.69c-1.3.366-2.559.7-3.723,1a33.777,33.777,0,0,1-8.077,1.3c-.764,0-1.5,0-2.16-.033-1.3-.067-2.393-.166-3.324-.3a15.925,15.925,0,0,1-1.562-.332c-.1.166-.233.3-.332.465-1.463-.7-4.853-2.593-4.421-4.653.532-2.593,2.992-19.977,51.055-31.577.1-.033.166-.033.266-.066a117.879,117.879,0,0,1,14.658-1.562c1.729-.067,3.457-.1,5.219-.1q1.6,0,3.291.1a74.984,74.984,0,0,1,17.617,3.124c1.994.6,4.055,1.3,6.149,2.127a89.521,89.521,0,0,1,13.4,6.482c1.463.831,2.892,1.729,4.321,2.659a107.2,107.2,0,0,1,12.6,9.739c1.031.9,2.027,1.861,3.025,2.792A125.237,125.237,0,0,1,679.261,425.462Z" transform="translate(-538.489 -388.6)" fill="#d83119"/>
      </g>
      <g id="Group_10800" data-name="Group 10800" transform="translate(31.853 78.962)">
        <path id="Path_2099" data-name="Path 2099" d="M1271.324,613.877c0,154.9-84.617,290.041-210.151,361.7,69.9-147.326,83.108-351.5,27.678-477.749,73.5-33.638,133.9-17.195,166.408,1.15A416.418,416.418,0,0,1,1271.324,613.877ZM844.318,868.356c-33.156,0-58.853-60.512-58.853-60.512-4.145.831-9.117-3.314-9.117-3.314a11.464,11.464,0,0,1-5.8,1.659c-3.314,0-8.286-5.8-8.286-5.8a20.117,20.117,0,0,1-8.29,1.659c-4.976,0-10.776-5.8-10.776-5.8-8.29,3.317-9.949-2.486-11.607-4.973,0,0-47.246,12.435-58.853,14.921l3.317,4.145c-9.948,22.38-46.422,46.418-46.422,46.418-9.613,19.232-33.6,44.9-64.68,55.546a416.929,416.929,0,0,0,367.163,110.686c-48.31-66.621-70.384-157.115-70.384-157.115S855.094,868.356,844.318,868.356Zm222.154-533.827c8.29-4.973,14.921-13.262,14.09-33.156,0,0,9.208-17.952,7.921-32.186s-6.259-29.127-32.727-20.053c3.267,6.661,10.71,14.954,4.085,38.148,0,0,1.659,10.776-3.317,24.039ZM617.2,790.45c1.662,1.662,0,5.784,0,5.784l80.405-20.708s-.831-5.817,1.662-6.648c0,0-3.091-5.418,1.163-11.767-1.463-.7-4.853-2.593-4.421-4.654.532-2.593,3.257-20.043,51.321-31.644,0,0-33.97-63.819-43.942-148.38-41.815,0-198.67,56.473-232.674,201.4Q478,791.281,486.774,807.9c3.39-4.388,23.334-26.259,81.5-23.267C575.756,785.032,609.693,782.938,617.2,790.45Z" transform="translate(-470.72 -246.361)" fill="#2b7046"/>
      </g>
      <g id="Group_10801" data-name="Group 10801" transform="translate(470.623 393.841)">
        <path id="Path_2100" data-name="Path 2100" d="M672.4,745.938s-19.508-25.455-33.592-48.609a439.655,439.655,0,0,0,23.763-39.741c-1.393,2.553-2.862,5.172-4.364,7.788-8.918,15.573-18.817,31.042-19.4,31.949v0l-.056.086c-16.048-25.98-31.059-54.369-36.031-72.465l.316.05a166.871,166.871,0,0,0,20.555-17.467c4.005-3.929,6.581-6.737,6.581-6.737a420.783,420.783,0,0,0,32.688,56.247c37.015-69.816,63.909-160.725,63.909-243.832,12.209-19.481,21.536-72.119,21.536-72.119C767.088,553.952,725.675,663.973,672.4,745.938Z" transform="translate(-602.724 -341.092)" fill="#a9cb8f"/>
      </g>
      <g id="Group_10802" data-name="Group 10802" transform="translate(258.689)">
        <path id="Path_2101" data-name="Path 2101" d="M930.565,553.035c62.626,146.751,26.5,358.451-23.357,475.07-52.435,31.168-121.01,47.412-126.262,48.626l-.721,1.01-6.359.392c-39.977-54.3-65.651-138.1-70.972-157.148,0,0,13.794-1.875,38.188-14.914q4.677-2.5,9.872-5.568c8.755,31.531,47.672,93.974,69.613,120.781l-7.941,11.115-27.775,38.867c68.276-89.177,134.472-195.945,111.63-454.821l-.209.415c2.489-25.7,3.317-45.591,3.317-45.591C908.707,563.811,930.565,553.035,930.565,553.035ZM628.245,815.023a95.337,95.337,0,0,1,11.7-5.395,158.43,158.43,0,0,1,29.071-8.233c-1-.961-2.008-1.9-3.018-2.8a161.1,161.1,0,0,0-27.256,7.947,92.532,92.532,0,0,0-14.28,6.841,143.593,143.593,0,0,0-17.843-6.279,111.066,111.066,0,0,1,46.771-18.252c-1.432-.937-2.868-1.831-4.3-2.669a114.483,114.483,0,0,0-46.744,19.887c-5.2-1.12-10.231-1.645-14.432-1.044-11.943,1.705-20.435,3.56-26.764,5.019A76.5,76.5,0,0,1,582.2,789a109.961,109.961,0,0,1,28.682-13.6,1.64,1.64,0,0,0,1.027-.944c-1.12-.066-2.214-.09-3.274-.09q-2.647,0-5.222.116a107.6,107.6,0,0,0-23.078,11.786,79.111,79.111,0,0,0-22.918,23.45,1.6,1.6,0,0,0-.176,1.237c-7.512,1.735-11.4,2.473-14.921.711,0,0-4.972,6.631-1.655,12.435,0,0-2.024,4.813-1.659,6.631.818,4.092,8.084,3.357,9.862,8.13l87.951-19.737S633.4,817.329,628.245,815.023Zm-79.5,23.859.213.13c-.02-.06-.063-.1-.083-.156Zm33.545-33.043A108.688,108.688,0,0,1,635.677,779.7q-3.136-1.217-6.159-2.121a111.954,111.954,0,0,0-52.794,28.938C578.506,806.228,580.354,805.995,582.285,805.839Zm-36.151.848a15.533,15.533,0,0,0-2.393,5.494c.937.14,2.031.239,3.307.3a13.923,13.923,0,0,1,1.9-4.045c6.01-9.716,16.457-22.745,32.106-29.676a1.657,1.657,0,0,0,.977-1.376,102.437,102.437,0,0,0-11.63,3.464C561.172,786.972,552.9,795.751,546.134,806.686ZM685.1,824.672a128.259,128.259,0,0,0-30.783,4.434c-1.9-.977-3.095-1.655-3.095-1.655l-78.235,19.023c2.49,4.145,5.8,9.118,11.607,5.8,14.09,9.118,19.066,3.314,19.066,3.314,9.945,9.118,14.09,4.145,14.09,4.145,13.262,7.459,17.407,2.486,17.407,2.486,8.29,4.973,18.238-2.486,18.238-2.486,12.431,3.314,18.235-4.145,18.235-4.145,6.631-2.486,3.314-8.29,3.314-8.29s3.317-2.486,4.145-4.145-.828-3.314-.828-4.973V835.7c-4.82,1.446-13.153-1.576-19.305-4.358a124.906,124.906,0,0,1,26.641-3.367A15.952,15.952,0,0,0,685.1,824.672Zm-23.417-223.56c8.29-4.976,59.684-14.093,59.684-72.947C690.7,531.483,655.056,560.494,661.687,601.112Zm-77.919-1.659c-1.655-9.118-11.6-36.473-42.825-34.762l-.276-.053C537.349,603.6,575.481,592.822,583.768,599.454Zm199.4-185.97a3.607,3.607,0,0,0,3.759,2.506,26.9,26.9,0,0,0,3.916-.449c.774-.11,1.632-.243,2.556-.386,1.911-.3,4.075-.632,6.352-.9,2.792-.369,6.036-.681,9.633-.927,1.782-.12,3.361-.186,4.627-.236.8-.033,1.463-.063,1.951-.093.485-.013,1.147-.047,1.941-.09,1.27-.063,2.849-.146,4.63-.193,1.6-.04,3.151-.06,4.607-.06q2.727,0,5.122.1c2.244.057,4.434.19,6.365.306.931.057,1.795.11,2.509.143,1.25.086,2.21.13,2.932.13,2.666,0,4.208-.974,4.587-2.888.675-3.414-2.782-4.388-6.192-5.348a82.032,82.032,0,0,0-9.367-1.855,103.128,103.128,0,0,0-10.474-.967c-1.309-.057-2.669-.086-4.039-.086-1.313,0-2.37.027-3.061.047l-.126,0c-1.034.07-3.776.249-7.066.7a103.911,103.911,0,0,0-10.294,1.921,83.811,83.811,0,0,0-9.26,2.749C785.532,408.85,782.179,410.14,783.166,413.484Zm6.076-28.735c.216.781,1.037,2.606,3.965,2.606a24.99,24.99,0,0,0,3.081-.266c.788-.086,1.679-.2,2.636-.319,1.532-.189,3.264-.409,5.079-.582,4.893-.555,10.288-.711,12.877-.784l1.03-.033,1.02-.04c1.885-.076,5.042-.209,8.476-.209,1.592,0,3.081.03,4.487.086,1.765.043,3.51.14,5.049.223.964.053,1.858.1,2.586.13.894.053,1.616.08,2.2.08h.013c1.034,0,4.125-.013,4.713-2.9.685-3.357-2.885-4.451-5.554-5.265a67.552,67.552,0,0,0-8.1-1.765,88.791,88.791,0,0,0-9.054-.984c-1.529-.09-3.111-.136-4.7-.136-.592,0-1.087.007-1.459.013l-.123,0c-2.094.113-4.158.3-6.139.558a89.421,89.421,0,0,0-8.911,1.605,68.937,68.937,0,0,0-8.064,2.363C791.808,380.112,788.325,381.455,789.242,384.749Zm28,3.886c-.648,0-1.21.013-1.615.047a44.188,44.188,0,0,0-9,1.875c-4.357,1.353-6.99,2.855-7.825,4.464a3.519,3.519,0,0,0-.242,2.7c.376,1.18,1.429,2.586,4.334,2.586h0c.951,0,2.154-.106,3.55-.233.635-.057,1.31-.116,2.054-.173,2.194-.206,4.577-.312,6.156-.382.758-.033,1.363-.063,1.742-.09s.981-.086,1.735-.16c1.572-.156,3.949-.4,6.206-.508.685-.043,1.356-.083,2-.116,4.039-.219,6.96-.379,7.462-3.437a3.517,3.517,0,0,0-.622-2.659c-1.057-1.472-3.875-2.579-8.326-3.287A46.743,46.743,0,0,0,817.239,388.634ZM853.8,504.506l-.751.472c-.661.416-1.256.838-1.835,1.25-.259.186-.522.372-.838.592-.213.153-.425.3-.642.452-.591.415-1.2.848-1.8,1.333-2.772,2.111-4.953,4.105-6.126,5.175l-.392.359-.359.369c-1.114,1.14-3.178,3.257-5.385,5.966-.5.578-.954,1.177-1.39,1.755-.156.209-.312.419-.515.681-.186.256-.382.512-.578.768-.429.562-.871,1.143-1.306,1.792l-.505.748c-1.014,1.5-2.061,3.045-2.992,4.683a72.549,72.549,0,0,0-5.089,10.264l-.04.106c-1.469,4-2.735,7.449.582,8.841l.648.266h.668c2.29,0,3.3-1.742,5.508-5.551l.682-1.1c1.366-2.2,3.065-4.939,5.016-7.565l.067-.093c.811-1.17,1.752-2.36,2.666-3.507.3-.376.595-.751.884-1.12.349-.442.718-.861,1.084-1.276.249-.286.5-.572.695-.8s.409-.469.608-.7c.382-.449.741-.871,1.084-1.213l.1-.1c1.6-1.748,3.091-3.214,4.181-4.285.472-.465.878-.861,1.187-1.18.329-.3.735-.688,1.214-1.147,1.11-1.054,2.622-2.5,4.427-4.045l.1-.09c.356-.336.795-.685,1.256-1.054.236-.19.472-.379.658-.535.292-.229.585-.469.878-.711.429-.349.858-.708,1.31-1.04.379-.276.755-.555,1.137-.838,1.183-.878,2.406-1.788,3.606-2.563l.093-.063c2.7-1.871,5.5-3.483,7.745-4.78l1.1-.635c4.025-2.157,6.678-3.593,5.5-6.641a3.46,3.46,0,0,0-3.341-2.21c-.472,0-1.449,0-5.481,1.336l-.106.037a71.779,71.779,0,0,0-10.42,4.756C856.917,502.538,855.331,503.539,853.8,504.506Zm-4.284-19.192a85.294,85.294,0,0,0-9.237,3.4c-2.812,1.23-4.969,2.33-6.006,2.922a79.255,79.255,0,0,0-13.458,9.772,33.811,33.811,0,0,0-6.182,7.392c-2.363,3.942-1.888,5.584-1.729,6.123A3.393,3.393,0,0,0,814.577,517l.781.4h.828c1.692,0,2.612-1.03,3.783-2.337.332-.372.731-.818,1.226-1.336a40.065,40.065,0,0,1,5.677-4.936c2-1.456,4.474-3.058,7.353-4.76,2.357-1.38,4.3-2.443,5.308-2.991.934-.532,2.875-1.642,5.275-2.915,2.433-1.29,5.279-2.656,8.024-3.856,2.227-.987,4.477-1.875,6.286-2.589,1.423-.562,2.653-1.047,3.547-1.449.934-.422,3.769-1.7,3.131-4.524-.136-.658-.838-2.809-4.039-2.809A51.026,51.026,0,0,0,849.515,485.314ZM812.008,348.508c.542.033,1.107.07,1.725.113,2.117.12,4.368.319,6.009.465.987.09,1.775.16,2.237.186s1.253.05,2.247.076c1.649.047,3.906.11,6.066.243.568.027,1.133.056,1.675.086,1.266.07,2.463.133,3.424.133,1.154,0,4.211,0,4.936-2.8.794-2.992-1.679-4.969-8.493-6.811a51.059,51.059,0,0,0-9.22-1.685c-.316-.02-.771-.033-1.326-.033a53.783,53.783,0,0,0-7.994.621c-7.023,1.044-9.712,2.716-9.277,5.764C804.452,348.033,807.457,348.222,812.008,348.508Zm-11.414,85.255a3.454,3.454,0,0,0-.369,2.663c.479,1.815,2,2.736,4.514,2.736,1.07,0,2.486-.11,4.128-.236.841-.066,1.738-.136,2.706-.2,2.835-.229,5.87-.326,7.878-.392.808-.023,1.452-.047,1.875-.066s1.06-.07,1.865-.13c2-.143,5.032-.366,7.927-.439.914-.036,1.815-.06,2.659-.083,5.056-.14,7.841-.216,8.333-3.374a3.468,3.468,0,0,0-.648-2.629c-1.1-1.5-4.411-2.652-9.785-3.427a64.826,64.826,0,0,0-9.433-.711c-.625,0-1.134.01-1.479.03a61.439,61.439,0,0,0-10.746,1.808C804.7,430.659,801.534,432.158,800.593,433.763Zm-6.415-70.71c.229.764,1.067,2.543,3.919,2.543a22.7,22.7,0,0,0,2.875-.253c.655-.073,1.386-.166,2.17-.263,1.486-.186,3.174-.4,4.943-.548,2.19-.219,4.743-.372,7.588-.445.9-.023,1.738-.027,2.48-.027l1.908,0c.309,0,.582,0,.811-.007.13,0,.273,0,.432,0,.332,0,.731,0,1.183-.01.565-.007,1.223-.013,1.951-.013.512,0,1.057,0,1.625.013q4.268.085,7.652.4c1.718.133,3.407.332,4.9.509.781.093,1.509.179,2.087.239a24.48,24.48,0,0,0,2.892.239h0c2.9,0,3.736-1.795,3.962-2.563.957-3.284-2.509-4.683-4.879-5.637a55.857,55.857,0,0,0-7.492-2.217,71.549,71.549,0,0,0-8.479-1.4c-2.453-.256-4.481-.319-5.8-.346h-.15c-1.313.037-3.344.113-5.8.386a70.79,70.79,0,0,0-8.413,1.443,56.332,56.332,0,0,0-7.6,2.307C796.654,358.36,793.191,359.783,794.178,363.054Zm2.972,86.541a3.433,3.433,0,0,0-.306,2.649c.226.771,1.064,2.566,3.946,2.566h0a52.546,52.546,0,0,0,5.977-.658c1.2-.169,2.51-.352,3.889-.528,3.916-.548,8.194-.951,10.75-1.187.834-.08,1.509-.143,1.974-.193s1.13-.13,1.961-.229c2.55-.306,6.814-.821,10.8-1.117,1.34-.116,2.653-.213,3.866-.3,1.821-.133,3.394-.249,4.587-.4,1.343-.166,4.494-.552,4.71-3.547a3.428,3.428,0,0,0-.858-2.543c-.472-.542-1.914-2.187-12.4-2.752-1.715-.116-3.593-.173-5.591-.173-3.463,0-6.694.18-8.22.346a93.75,93.75,0,0,0-13.505,2.739C798.562,447.052,797.5,448.967,797.15,449.595ZM674.155,233.487l.648,1.383.665,1.6c.276.618.538,1.326.814,2.074.143.4.292.794.445,1.2.888,2.576,1.646,5.145,2.261,7.625.625,2.589,1.2,5.395,1.695,8.326.392,2.363.758,4.926,1.154,8.05.718,5.88,1.077,10.128,1.167,11.295l.066.8c.186,2.247.5,6,.632,10.48.176,5.471.09,11.411-.246,16.729-.289,4.66-.818,9.772-1.566,15.19l-.681,4.969c-.183,1.539-.562,4.743,2.469,5.5l.409.1h.409c2.539,0,3.384-2.35,3.945-3.916.213-.6.465-1.336.728-2.19l.795-2.859a129.925,129.925,0,0,0,3.008-15.9,155.156,155.156,0,0,0,1.177-17.75c.053-5.418-.229-9.872-.4-12.043-.166-2.091-.678-6.458-1.569-11.909-.528-3.158-1.054-5.927-1.615-8.479-.7-3.158-1.5-6.169-2.37-8.971a81.048,81.048,0,0,0-3.164-8.393s-.359-.758-.508-1.077c-.419-.891-.854-1.812-1.323-2.639l-.887-1.632-.924-1.506c-4.358-6.944-6.079-6.944-7.107-6.944l-1.157.01-.867.668c-2.4,1.785-1.09,4.308.066,6.531C672.832,230.8,673.47,232.032,674.155,233.487ZM972.18,392.926l-.685-.346h-.824a4.029,4.029,0,0,0-2.1.648c-.243.143-.286.163-.4.163a.787.787,0,0,1-.17-.02,1.312,1.312,0,0,1-.229-.123,6.346,6.346,0,0,1-1.4-1.373c-1.293-1.592-2.586-3.46-3.729-5.109l-.256-.369c-1.293-1.878-2.41-3.41-3.065-4.2a48.7,48.7,0,0,0-3.666-3.926,58.781,58.781,0,0,0-5.99-5.072c-.286-.213-7.057-5.215-10.261-5.215a3.5,3.5,0,0,0-3.018,1.632c-1.639,2.629.4,4.524,3.48,7.392,1.094,1.017,2.333,2.167,3.59,3.444a90.35,90.35,0,0,1,7.485,8.519l3.154,3.779a59.816,59.816,0,0,0,5.381,5.724,13.712,13.712,0,0,0,4.444,2.819,8.968,8.968,0,0,0,3.008.572h.1a8.288,8.288,0,0,0,2.676-.435,6.785,6.785,0,0,0,3.759-2.962,4.3,4.3,0,0,0,.5-3.444A3.457,3.457,0,0,0,972.18,392.926ZM806.51,425.713c.3,0,.655-.017,1.054-.033l3.839-.256c1.542-.093,3.178-.15,4.491-.2,1.1-.04,1.994-.073,2.43-.106.4-.027,1.094-.106,1.961-.206,1.333-.153,3.161-.362,4.776-.469l.352-.017c.944-.043,1.835-.083,2.539-.083.176,0,.342,0,.5.007l.129.007.336-.01.618.01c.173,0,.335-.007.492-.017a3.778,3.778,0,0,0,3.314-2.041,3.724,3.724,0,0,0-.841-4.341,7.165,7.165,0,0,0-1.951-1.416,17.517,17.517,0,0,0-4.79-1.589,37.636,37.636,0,0,0-6.81-.622c-.6,0-1.077.017-1.423.04a39.908,39.908,0,0,0-7.951,1.722,21.905,21.905,0,0,0-4.321,1.885c-3.886,2.27-2.972,4.9-2.619,5.617A3.891,3.891,0,0,0,806.51,425.713ZM772.1,251.962c1.273.362,3.015.784,5.032,1.273,1.8.435,3.816.924,5.923,1.476,1.383.342,2.792.711,4.172,1.09-2.35.017-5.75.239-6.153,3.417-.4,3.035,2.752,4.158,4.1,4.637,1.286.459,2.948.947,4.77,1.486l2.829.814c2.523.728,4.7,1.356,5.681,1.592s3.227.665,5.83,1.163l2.9.555a45.55,45.55,0,0,0,6.714.971,3.768,3.768,0,0,0,3.906-2.416,3.259,3.259,0,0,0-.256-2.938c1.117.386,2.19.768,3.194,1.124,4.737,1.679,6.439,2.257,7.708,2.257a3.465,3.465,0,0,0,3.188-1.895,3.4,3.4,0,0,0,.17-2.672c-.675-1.941-5.136-4.816-13.22-8.536a107.1,107.1,0,0,0-33.671-10.022,87.365,87.365,0,0,0-11.527-1c-1.692,0-5.209,0-5.564,3.231C767.457,250.639,770.592,251.533,772.1,251.962Zm212.79,119.023-.016-.1a40.056,40.056,0,0,0-1.961-6.615,50.133,50.133,0,0,0-3.254-6.864,48.591,48.591,0,0,0-2.772-4.311l-.053-.076-.06-.073a48.782,48.782,0,0,0-3.4-3.846,50.521,50.521,0,0,0-5.664-4.946,40.16,40.16,0,0,0-5.9-3.723l-.086-.043a9.173,9.173,0,0,0-3.936-1.23,3.522,3.522,0,0,0-3.028,1.639c-1.639,2.636.734,4.846,2.337,6.319.362.352.765.735,1.2,1.143.951.9,2.028,1.918,3.1,3.058,1.286,1.3,2.7,2.9,4.192,4.747.731.907,1.356,1.742,1.855,2.413.319.425.585.784.795,1.047s.472.632.8,1.06c.509.661,1.14,1.483,1.808,2.426q2.064,2.912,3.474,5.385c.768,1.29,1.462,2.606,2.071,3.769.276.518.532,1.007.771,1.446.974,1.931,2.087,4.1,4.491,4.1l.5-.007.449-.13C985.858,376.638,985.23,372.962,984.891,370.984ZM797.791,472.2a39.224,39.224,0,0,0,6.784-1.22c1.472-.326,3.1-.685,4.813-1.037,4.58-1,9.493-1.812,12.431-2.3.738-.123,1.34-.223,1.775-.3s1.031-.186,1.762-.322c2.928-.542,7.828-1.449,12.521-2.071,1.688-.246,3.34-.459,4.836-.651,1.9-.246,3.54-.459,4.763-.672,1.369-.239,4.57-.8,4.587-3.829a3.4,3.4,0,0,0-1-2.456c-.618-.625-1.9-1.925-12.239-1.925-.565,0-1.14,0-1.675.013a86.753,86.753,0,0,0-30.321,5.3c-7.412,2.513-11.6,4.7-12.461,6.5a3.408,3.408,0,0,0-.126,2.662A3.563,3.563,0,0,0,797.791,472.2Zm6.282,20.223c.871,0,1.841-.229,4.674-1.469.715-.3,1.509-.635,2.363-1,1.615-.691,3.447-1.476,5.385-2.23,2.423-.981,5.268-2.018,8.456-3.078,1.556-.519,2.952-.944,4.049-1.276.741-.226,1.356-.415,1.8-.562s1.057-.326,1.795-.558c1.09-.349,2.486-.794,4.059-1.253,3.227-.941,6.159-1.705,8.758-2.283,1.974-.472,3.926-.868,5.651-1.217.911-.183,1.755-.356,2.446-.505,3.188-.618,6.482-1.26,6.286-4.54-.206-3.45-3.959-3.553-7.043-3.636h-.479a74.086,74.086,0,0,0-8.456.485,94.431,94.431,0,0,0-9.716,1.569c-2.762.588-5,1.213-6.448,1.632l-.123.04c-1.426.475-3.623,1.233-6.236,2.32a95.545,95.545,0,0,0-8.845,4.208,75.486,75.486,0,0,0-7.718,4.74c-2.436,1.785-5.471,4.005-3.676,6.957A3.483,3.483,0,0,0,804.073,492.427ZM830.2,314.847l-.4-.056c-1.489-.209-4.255-.6-7.592-.771-.718-.06-1.419-.07-2.1-.083l-.8-.017c-.3,0-.595-.007-.9-.013-.425-.01-.854-.02-1.29-.02-.262,0-.528,0-.8.013l-.8.023c-1.712.053-3.48.106-5.255.3a72.543,72.543,0,0,0-10.637,1.689l-.1.027c-3.783,1.01-7.359,1.968-6.628,5.461.272,1.29,1.256,2.829,4.411,2.829.8,0,1.921-.06,3.53-.183l1.476-.073c2.031-.1,4.331-.223,6.761-.223.505,0,1.014.007,1.526.017h.415c1.24,0,2.549.066,3.819.133l1.353.066c.529.023,1.051.076,1.566.123.359.037.715.07,1,.093s.575.05.858.073c.555.046,1.08.09,1.532.163l.13.017c2.17.246,4.088.558,5.491.788.472.076.891.146,1.253.2-.5-.03-1.09-.037-1.522-.037a52.437,52.437,0,0,0-6.245.382c-4.245.5-8.755,1.353-8.526,5.1.2,3.277,3.238,3.7,8.273,4.388l.213.03c.941.12,1.9.246,2.805.366,2.018.266,3.61.475,4.4.535s2.4.1,4.441.14c.911.02,1.875.043,2.849.066l.183,0c.794.013,1.572.027,2.284.027h0c2.487,0,5.89,0,6.561-3.1.8-3.666-3.53-5.192-7.618-6.325-.18-.053-.362-.106-.545-.156l.05.01c.452.083.961.213,1.5.349.276.07.559.143.778.2.343.086.691.173,1.044.256.5.123,1.014.243,1.512.392l1.31.379c1.32.382,2.686.778,3.942,1.223l.1.033c2.835.911,5.574,2.014,7.775,2.905l1.363.545c3.484,1.512,4.434,1.758,5.362,1.758a3.455,3.455,0,0,0,3-1.665c1.838-3.065-1.233-5.135-4.481-7.329l-.087-.053a72.229,72.229,0,0,0-9.5-5.072c-1.615-.755-3.268-1.383-4.863-1.988l-.765-.289c-.685-.263-1.339-.472-1.974-.675-.286-.093-.568-.183-.911-.3l-.708-.226c-.641-.213-1.309-.429-2-.6-3.211-.924-5.953-1.463-7.429-1.752Z" transform="translate(-538.964 -222.605)" fill="#fbf09e"/>
      </g>
    </g>
    <g id="outline" transform="translate(458.643 220.142)">
      <path id="outline-2" data-name="outline" d="M856.306,561.106a57.916,57.916,0,0,0-8.7,16.839c-3.015,9.337-3.733,19.754-2.134,30.959a2.9,2.9,0,0,0,2.868,2.49,2.961,2.961,0,0,0,.415-.027,2.9,2.9,0,0,0,2.46-3.284c-.017-.126-.03-.249-.047-.376a60.291,60.291,0,0,1,8.406-4.072c17.231-7.422,49.068-21.14,50.085-67.456.815-.17,1.283-.249,1.32-.256a2.9,2.9,0,0,0-.931-5.727C908.621,530.429,874.873,536.176,856.306,561.106ZM861.2,570.5a4.56,4.56,0,1,1-4.56,4.56A4.561,4.561,0,0,1,861.2,570.5Zm45.122-33.538c-1.363,43.507-31.624,56.55-48.054,63.63-3.1,1.333-5.614,2.42-7.512,3.49a61.9,61.9,0,0,1,1.821-22.5,15.828,15.828,0,0,0,2.081,3.739c4.826,6.435,13.528,8.06,19.435,3.633s6.784-13.239,1.958-19.677a14.673,14.673,0,0,0-14.16-5.907C875.226,546.457,896.867,539.361,906.317,536.961ZM792.247,820.976a1.657,1.657,0,1,1,2.782-1.8,7.785,7.785,0,0,0,6.98,3.447,1.659,1.659,0,0,1,.259,3.307c-.276.02-.549.033-.821.033A11.067,11.067,0,0,1,792.247,820.976Zm-6.4,34.246a1.659,1.659,0,0,1,2.417-2.273,7.653,7.653,0,0,0,5.375,2.363h.09a7.651,7.651,0,0,0,5.345-2.227,1.658,1.658,0,0,1,2.357,2.333c-.249.253-.515.492-.788.718a1.644,1.644,0,0,1,1.28.512,7.082,7.082,0,0,0,3.856,2.187,4.9,4.9,0,0,0,3.916-.937,1.658,1.658,0,0,1,2.108,2.56,8.087,8.087,0,0,1-5.125,1.768,8.665,8.665,0,0,1-1.463-.123,10.4,10.4,0,0,1-5.7-3.181,1.655,1.655,0,0,1-.316-1.788,10.881,10.881,0,0,1-5.461,1.5l-.133,0A10.879,10.879,0,0,1,785.845,855.222Zm10.627-7.781A1.658,1.658,0,0,1,799,845.293a7.611,7.611,0,0,0,8.074,2.174,1.658,1.658,0,0,1,1.1,3.128,10.425,10.425,0,0,1-3.457.582A10.907,10.907,0,0,1,796.472,847.441Zm-12.7-18.045a1.656,1.656,0,0,1-.884,2.17,11.577,11.577,0,0,1-4.484.887,12.014,12.014,0,0,1-7.555-2.626,1.658,1.658,0,0,1,2.1-2.566,8.672,8.672,0,0,0,8.649,1.25A1.66,1.66,0,0,1,783.775,829.4Zm-25.541-2.569a12.183,12.183,0,0,1-4.693.927A12.534,12.534,0,0,1,745,824.439a1.658,1.658,0,1,1,2.267-2.42,9.331,9.331,0,0,0,9.686,1.748,1.657,1.657,0,1,1,1.277,3.058Zm5.607-6.176a1.651,1.651,0,0,1,2.29-.489,14.162,14.162,0,0,0,14.316.442,1.658,1.658,0,1,1,1.629,2.888,17.55,17.55,0,0,1-17.746-.548A1.656,1.656,0,0,1,763.841,820.65Zm405.816-459.1c-15.2-20.465-39.973-31.069-51.165-34.017-.017-.266-.037-.529-.056-.784-.961-12.169-6.847-17.484-11.621-19.8-7.622-3.7-16.752-2.157-21.708-.266-30.989-42.317-131.856-73.691-201.948-73.691-8.286,0-30.67-12.84-39.787-12.84-.07,0-.136-.01-.206-.01-12.378,0-23.174,14.373-28.935,35.7a424.643,424.643,0,1,0,355.426,105.714Zm-22.7-12.448a36.863,36.863,0,0,1,5.394,3.4,46.7,46.7,0,0,1,5.325,4.65,46,46,0,0,1,3.171,3.583,45.478,45.478,0,0,1,2.589,4.022,46.849,46.849,0,0,1,3.031,6.389,36.886,36.886,0,0,1,1.815,6.113c.286,1.672.336,2.769.063,2.849s-.851-.858-1.589-2.32c-.788-1.446-1.758-3.414-2.932-5.378-1.134-1.984-2.453-3.962-3.61-5.6s-2.2-2.908-2.673-3.573c-.515-.638-1.456-1.981-2.716-3.543s-2.805-3.364-4.411-4.992c-1.572-1.662-3.2-3.131-4.381-4.281-1.207-1.107-1.955-1.911-1.8-2.157S1145.426,348.378,1146.955,349.106Zm-12.608,32.475a55.978,55.978,0,0,1,5.651,4.783,45.968,45.968,0,0,1,3.417,3.656c.585.711,1.665,2.194,2.9,3.982s2.666,3.869,4.145,5.687a9.346,9.346,0,0,0,2.234,2.1,4.187,4.187,0,0,0,1.143.512,3.928,3.928,0,0,0,1.127.123c1.466-.03,2.17-.931,2.426-.8.116.06.14.4-.153.914a3.533,3.533,0,0,1-1.938,1.463,5.006,5.006,0,0,1-1.675.259,5.612,5.612,0,0,1-1.9-.369,10.618,10.618,0,0,1-3.367-2.167,56.627,56.627,0,0,1-5.072-5.4c-1.383-1.655-2.516-3.011-3.081-3.69a99.594,99.594,0,0,0-7.761-8.832c-3.394-3.434-6.89-6.222-6.584-6.711S1130.286,378.566,1134.348,381.581Zm-29.7-70.158c5.238,2.546,8.21,7.834,8.832,15.735.083.977.126,2.064.126,3.231,0,11.541-3.842,22.014-6.053,27.09-5.611-5.378-13.761-9.437-16.49-10.713a29.17,29.17,0,0,0,3.477-14.306c0-7.379-2.343-14.575-6.568-21.509C1092,309.688,1099.021,308.694,1104.645,311.423Zm-14.489,40.432c3.69,1.825,11.554,6.089,15.719,11.1.469,2.932,2.114,16.8-6.574,25.976a22.684,22.684,0,0,1-3.155,2.762,214.555,214.555,0,0,0-8.177-20.967C1091.167,364.37,1091.1,357.283,1090.156,351.855ZM1108.627,462.6c0-15.469-2.988-40.293-10.9-65.966a28,28,0,0,0,4.471-3.59c6.9,14.941,23.673,44.69,47.877,44.69,19.9,0,32.329-15.749,32.329-38.132,0-.7-.01-1.389-.034-2.077a407.536,407.536,0,0,1,89.9,154.672c-43.42-20.435-85.86-17.085-114.891-10.111a221.282,221.282,0,0,0-41.007,14.346c-.04.017-.08.023-.116.036-.07.033-.13.073-.2.11a165.792,165.792,0,0,0-27.758,15.948c-.183-6.206-.611-12-1.276-17.308C1092.364,543.625,1108.627,504.862,1108.627,462.6Zm-110.71,573.618c-33.851-46.8-53.2-83.158-69.114-121.851,2.44-1.383,4.883-2.829,7.326-4.411,5.774,18.2,20.036,44.983,35.243,69.643a2.421,2.421,0,0,0,.233.376c11.354,18.388,23.214,35.553,32.441,47.057C1002.029,1030.133,999.975,1033.178,997.918,1036.219ZM994.86,938.38c-6.651,12.378-13.728,24.261-21.186,35.509-14.685-24.092-28.137-49.739-33.239-66.844a151.848,151.848,0,0,0,22.433-19.192c.505-.525.994-1.067,1.492-1.6A423.614,423.614,0,0,0,994.86,938.38Zm-26.9-56.1c15.018-17.165,26.767-37.959,34.954-61.954,9.762-28.616,14.432-61.835,13.947-98.85a13.74,13.74,0,0,0,9.287,3.071c12.9,0,23.882-8.5,32.867-22.041-1.592,75.047-24.723,160.492-61.536,230.919A418.733,418.733,0,0,1,967.963,882.275Zm8.579,96.274a442.237,442.237,0,0,0,23.181-38.966,2.411,2.411,0,0,0,.322-.605,571.915,571.915,0,0,0,38.242-91.3c16.882-52.551,25.8-105.594,25.8-153.392a2.092,2.092,0,0,0-.023-.3c7.924-14.871,13.967-33.814,18.049-53.738,14.485,194.619-22.879,300.2-75.23,382.363A505.059,505.059,0,0,1,976.542,978.549Zm84.962-473.9c.1.273-1.509,1.22-4.019,2.563-2.469,1.436-5.827,3.3-9.124,5.591-1.682,1.087-3.3,2.34-4.9,3.513-.8.588-1.539,1.237-2.284,1.825-.735.6-1.473,1.157-2.121,1.762-2.686,2.3-4.72,4.354-5.79,5.325-1,1.037-3.125,3-5.508,5.614-.625.625-1.2,1.346-1.828,2.061s-1.286,1.443-1.9,2.224c-1.227,1.559-2.533,3.141-3.67,4.79-2.4,3.217-4.371,6.515-5.883,8.935-1.426,2.463-2.423,4.049-2.692,3.936s.239-1.915,1.243-4.647a70.052,70.052,0,0,1,4.88-9.832c1.021-1.8,2.23-3.546,3.384-5.258.578-.858,1.22-1.645,1.8-2.443.6-.784,1.163-1.572,1.772-2.264,2.323-2.862,4.461-5.009,5.514-6.093,1.117-1.017,3.334-3.085,6.269-5.315.708-.588,1.516-1.12,2.317-1.7.818-.562,1.629-1.177,2.5-1.728,1.748-1.1,3.527-2.25,5.365-3.211a69.8,69.8,0,0,1,9.985-4.557C1059.586,504.825,1061.4,504.383,1061.5,504.646Zm-12.295-12.534c.13.575-5.351,2.317-11.065,4.85-2.862,1.253-5.8,2.669-8.23,3.959s-4.388,2.406-5.365,2.965c-.99.535-2.965,1.619-5.341,3.008s-5.142,3.131-7.628,4.939a43.14,43.14,0,0,0-6.156,5.361c-1.506,1.576-2.36,2.746-2.629,2.6-.236-.12.146-1.579,1.336-3.57a30.688,30.688,0,0,1,5.581-6.651,75.612,75.612,0,0,1,12.817-9.31c1.02-.582,3.121-1.642,5.74-2.792a82.28,82.28,0,0,1,8.862-3.261C1043.3,492.314,1049.093,491.569,1049.209,492.111Zm-40.136-144.564a48.112,48.112,0,0,1,8.509,1.566c3.41.921,6.342,2.23,6.2,2.776-.146.562-3.281.276-6.675.116-3.4-.209-7.06-.249-8.276-.319s-4.86-.462-8.253-.652c-3.394-.236-6.538-.319-6.618-.894-.08-.555,2.988-1.516,6.482-2.034A48.327,48.327,0,0,1,1009.073,347.547Zm-7.373-11.168c-.036-.565,2.619-1.246,5.6-1.6a30.829,30.829,0,0,1,14.559,1.117c2.9.8,5.418,1.885,5.3,2.436s-2.819.509-5.734.462c-2.912-.076-6.053-.12-7.093-.2s-4.148-.519-7.04-.888C1004.409,337.313,1001.734,336.958,1001.7,336.379Zm.293,26.309c2.463-.276,4.5-.342,5.511-.366,1.014.017,3.051.07,5.514.326a67.449,67.449,0,0,1,8.067,1.326,53.036,53.036,0,0,1,7.083,2.094c1.818.735,2.942,1.33,2.862,1.6s-1.35.206-3.251-.037c-1.915-.2-4.467-.555-7.15-.765-2.676-.253-5.478-.362-7.841-.409s-4.3.023-5.272.007c-.964.023-2.9-.03-5.268.03s-5.166.189-7.838.462c-2.682.226-5.235.6-7.146.811-1.9.256-3.168.336-3.251.06s1.037-.878,2.852-1.622a52.579,52.579,0,0,1,7.07-2.141A66.547,66.547,0,0,1,1001.993,362.688ZM989.8,385.726a84.581,84.581,0,0,1,8.612-1.552c2.629-.342,4.8-.475,5.887-.535,1.087-.017,3.264-.037,5.91.12a84.71,84.71,0,0,1,8.7.944,65.367,65.367,0,0,1,7.738,1.682c2.011.615,3.268,1.137,3.211,1.416s-1.419.3-3.483.173c-2.068-.08-4.843-.282-7.748-.356-5.807-.243-12.1.09-14.183.166s-8.386.18-14.16.834c-2.892.276-5.647.675-7.7.9-2.047.266-3.41.349-3.487.07s1.143-.881,3.1-1.639A65.272,65.272,0,0,1,989.8,385.726Zm27.376,14.642c-.093.575-3.141.588-6.415.808-3.281.163-6.788.585-7.958.668s-4.7.169-7.971.479c-3.27.249-6.289.675-6.465.116-.173-.532,2.6-1.971,5.89-2.992a31.177,31.177,0,0,1,16.663-1.2C1014.321,398.789,1017.276,399.816,1017.18,400.368ZM985.443,413.81a100.965,100.965,0,0,1,10-1.868c3.051-.415,5.574-.588,6.831-.671,1.263-.037,3.789-.1,6.867.037a99.914,99.914,0,0,1,10.125.934,80.29,80.29,0,0,1,9.024,1.785c2.35.661,3.829,1.217,3.773,1.5s-1.635.263-4.032.1c-2.407-.12-5.637-.372-9.021-.459-3.384-.133-6.914-.106-9.9-.033s-5.425.253-6.644.283c-1.217.083-3.663.136-6.641.336s-6.5.5-9.852.947c-3.364.4-6.555.951-8.941,1.293-2.37.389-3.942.552-4.025.276s1.34-.961,3.62-1.838A80.112,80.112,0,0,1,985.443,413.81Zm12.043,24.444a44.478,44.478,0,0,1,20.326-1.067c4.138.6,7.771,1.7,7.682,2.257-.09.575-3.816.505-7.851.672-4.042.1-8.389.488-9.835.568s-5.813.14-9.842.462c-4.032.263-7.728.721-7.878.156C989.94,440.76,993.434,439.281,997.486,438.254Zm-5.2-10.361c-.12-.243.389-.8,1.326-1.343a19.452,19.452,0,0,1,3.69-1.589,37.174,37.174,0,0,1,7.14-1.556,33.063,33.063,0,0,1,7.339.528,14.645,14.645,0,0,1,3.892,1.273,3.97,3.97,0,0,1,1.1.784c.233.239.322.426.259.552s-.279.193-.588.216-.695-.013-1.2.007c-.964-.04-2.3.03-3.676.09-2.782.179-5.807.612-6.814.681s-4.072.13-6.9.3l-3.759.253C993.092,428.132,992.417,428.166,992.284,427.893Zm3.982,25.3a70.323,70.323,0,0,1,26.219-2.805c5.395.293,10.218,1.177,10.174,1.732-.04.585-4.883.741-10.145,1.2-5.265.389-10.942,1.147-12.83,1.35s-7.6.661-12.83,1.393c-5.235.665-10,1.536-10.168.974C986.527,456.5,991.057,454.617,996.266,453.195Zm-1.709,16.413a83.388,83.388,0,0,1,29.277-5.129c6.083-.123,11.58.452,11.57,1.007,0,.588-5.448,1.054-11.348,1.915-5.913.784-12.262,2.038-14.376,2.41s-8.516,1.346-14.343,2.619c-5.84,1.2-11.118,2.609-11.324,2.057C983.821,473.969,988.794,471.559,994.557,469.608Zm-1.21,22.6a71.856,71.856,0,0,1,7.319-4.487,91.006,91.006,0,0,1,8.566-4.078c2.652-1.1,4.889-1.861,6.006-2.234,1.13-.329,3.4-.977,6.209-1.576a91.752,91.752,0,0,1,9.367-1.512,70.982,70.982,0,0,1,8.572-.465c2.277.06,3.743.233,3.756.515s-1.409.661-3.606,1.09c-2.2.472-5.166,1.021-8.234,1.748-3.078.688-6.249,1.552-8.918,2.327s-4.823,1.512-5.913,1.831c-1.077.359-3.268.977-5.906,1.855s-5.737,1.971-8.659,3.154c-2.942,1.14-5.694,2.38-7.768,3.237-2.054.9-3.44,1.4-3.59,1.157S991.509,493.557,993.347,492.211ZM1023.821,325.6c.841.209,1.692.512,2.579.794s1.8.562,2.7.907c1.811.691,3.679,1.376,5.444,2.2a68.493,68.493,0,0,1,9.094,4.85c2.267,1.529,3.636,2.636,3.49,2.875s-1.792-.379-4.245-1.446c-2.49-.994-5.814-2.4-9.4-3.547-1.775-.632-3.633-1.133-5.421-1.662-.894-.263-1.795-.452-2.659-.678-.867-.206-1.7-.445-2.519-.595-3.241-.721-5.93-1.11-7.26-1.376-1.343-.183-4.012-.691-7.309-1.067-.821-.126-1.688-.173-2.576-.259-.891-.07-1.8-.186-2.735-.229-1.865-.083-3.783-.216-5.667-.2-3.766-.083-7.366.16-10.045.283-2.669.209-4.428.269-4.487-.017s1.6-.871,4.241-1.575a68.441,68.441,0,0,1,10.178-1.619c1.938-.206,3.926-.243,5.864-.306.971-.033,1.924.017,2.852.023.931.023,1.835.017,2.7.093,3.457.176,6.272.592,7.675.788C1017.7,324.114,1020.5,324.642,1023.821,325.6Zm-52.737-71.258a103.883,103.883,0,0,1,32.734,9.736c6.345,2.918,11.763,6.222,11.514,6.718-.262.528-6.1-1.822-12.607-4-6.488-2.264-13.675-4.265-16.055-4.969s-9.486-2.958-16.158-4.61c-6.644-1.738-12.814-2.955-12.744-3.54C957.828,253.125,964.173,253.318,971.084,254.342Zm30.251,18.288c-.193.545-3.417-.056-6.92-.7-3.5-.678-7.289-1.383-8.536-1.679s-4.943-1.389-8.37-2.37c-3.417-1.007-6.565-1.935-6.488-2.506s3.384-.661,7.007-.379a45.921,45.921,0,0,1,17.231,4.125C998.616,270.509,1001.524,272.1,1001.335,272.63ZM860.906,231.653c.2-.15,2.087,1.812,4.328,5.381l.861,1.4.844,1.559c.6,1.064,1.123,2.247,1.715,3.467a79.38,79.38,0,0,1,3.035,8.054c.884,2.852,1.652,5.807,2.3,8.7s1.147,5.714,1.579,8.3c.844,5.165,1.359,9.47,1.532,11.627s.449,6.475.392,11.747a150.918,150.918,0,0,1-1.15,17.364,125.669,125.669,0,0,1-2.925,15.476c-.279,1-.532,1.918-.758,2.726-.246.8-.482,1.492-.685,2.054-.4,1.127-.691,1.745-.831,1.708s-.12-.718.02-1.9c.16-1.173.392-2.859.671-4.906.565-4.088,1.23-9.623,1.589-15.436s.419-11.9.252-17.045-.538-9.347-.7-11.441-.555-6.289-1.183-11.431c-.322-2.563-.7-5.345-1.173-8.193s-1.064-5.747-1.745-8.559-1.512-5.511-2.363-7.981c-.469-1.217-.868-2.41-1.35-3.487-.226-.548-.449-1.077-.662-1.589-.236-.5-.459-.984-.675-1.446C862.073,234.109,860.647,231.842,860.906,231.653ZM843.167,362.3c.07,0,.136-.01.206-.01v.01c20.725,0,29.919-27.894,39.787-37.3,39.5-37.653,84.756-37,122.805-24.7a101.128,101.128,0,0,0-14.216-1c-27.353,0-67.133,54.413-56.367,163.3,7.462,75.433,73.774,164.128,73.774,174.9,0,0,20.332-32.844,21.5-79.541,8.187-15.6,23.022-34.02,36.111-34.02,10.626,0,17.49,21.825,17.49,55.6,0,57.567-20.691,140.851-58.105,140.851-8.147,0-9.333-6.153-9.5-8.157-.013-.356-.02-.7-.033-1.057a2.486,2.486,0,0,0-4.969.189c3.414,89.606-23.57,140.867-48.456,168.812l-.07.077q-1.929,2.164-3.836,4.145a147.226,147.226,0,0,1-23.254,19.658l-.017.013c-16.284,11.075-32.764,17.371-46.628,20.15a2.645,2.645,0,0,0-.5.087c-.03.01-.053.023-.083.033a82.72,82.72,0,0,1-15.586,1.625c-24.969,0-47.319-34.516-56.59-54.911l-.05-.106a11.426,11.426,0,0,0,4.919-1.273,11.035,11.035,0,0,0,6.558,1.994,17.276,17.276,0,0,0,9.629-3.171l.319-.226a6.036,6.036,0,0,1,1.831-1.04,6.125,6.125,0,0,1,2.583.209c.253.053.505.106.755.156a17.762,17.762,0,0,0,15.892-5.126,6.307,6.307,0,0,0,4.52-3.829,6.522,6.522,0,0,0,.2-4.906c1.655-1.213,3.68-3.134,3.726-5.86a5.848,5.848,0,0,0-.133-1.247,27.837,27.837,0,0,0,12.511,3.171,14.7,14.7,0,0,0,8.15-2.1,2.071,2.071,0,1,0-2.3-3.447c-3.822,2.546-12.229,1.532-17.73-2.028a8.422,8.422,0,0,0,4.71-3.809c1.679-3.038,1.386-7.293-.817-12.375.9-.223,1.479-.369,1.712-.425a6.416,6.416,0,0,0,4.826-3.906c11.624,5.5,22.5,11.418,29.586,11.418,6.631,0,17.407-4.145,17.407-23.211s-32.328-55.536-72.116-55.536c-33.362,0-49.237,14.565-55.938,24.155-.329-.017-.658-.043-.99-.057-.861-.04-1.762-.06-2.755-.06a103.694,103.694,0,0,0-16.377,1.323c-11.368-19.318-23.377-52.571-33.01-91.454-8.669-34.974-13.478-67.6-11.969-81.183a2.5,2.5,0,0,0-.326-1.532,40.757,40.757,0,0,1-4.534-17.091c-.027-.595-.037-1.187-.037-1.775a21.92,21.92,0,0,0,4.371,7.924c6.522,7.426,16.985,8.087,25.395,8.615,4.065.256,7.961.5,10.225,1.526.07.326.143.655.206.971a2.9,2.9,0,0,0,2.842,2.333,3.027,3.027,0,0,0,.572-.057,2.9,2.9,0,0,0,2.277-3.414c-2.633-13.206-9.244-23.852-18.614-29.985a40.147,40.147,0,0,0-15.752-5.94,51.126,51.126,0,0,0-7.034-.635,15.962,15.962,0,0,0,.565-7.572c20.063,1.735,33.246,19.023,36.507,25.547a1.659,1.659,0,0,0,2.968-1.482c-3.567-7.133-18.225-26.269-40.555-27.465-.23-2.011.9-5.182,2-8.267,1.313-3.67,2.669-7.466,2.669-11.192a60.3,60.3,0,0,0-.668-7.176c-.794-6.153-1.811-14.11.385-21.127,18.368,3,33.751,28.719,45.458,28.719,12.435,0,9.948-23.211,8.29-23.211,0,0,0,3.317-4.973,3.317-5.8,0-22.38-27.356-40.618-27.356a31.839,31.839,0,0,0-3.367.18c-.027-5.245-.559-11.591-1.18-18.91-1.768-20.834-4.188-49.37,4.019-75.433.442-1.4.914-2.755,1.4-4.025,12.415-32.611,50.434-62.031,68.951-67.921C819.344,347.066,830.416,362.3,843.167,362.3ZM781.189,850.8a7.676,7.676,0,0,1-4.863-.811l60.947-15.27c8.416,4.378,17.258,8.36,25.165,8.36.136,0,.256-.007.389-.01a11.2,11.2,0,0,0,.416,1.635c.12.352.253.7.389,1.047a6.177,6.177,0,0,1,.565,2.081c-.026,1.542-1.792,2.892-3.516,4.009a1.665,1.665,0,0,0-.359,2.466,3.29,3.29,0,0,1-2.147,4.943,1.664,1.664,0,0,0-1.163.562,14.368,14.368,0,0,1-13.219,4.534c-.229-.043-.459-.093-.688-.143a7.074,7.074,0,0,0-7.033,1.379l-.3.209c-3.806,2.669-9.656,3.8-13.007.648a1.663,1.663,0,0,0-2.111-.136,8.985,8.985,0,0,1-7.436,1,29.886,29.886,0,0,1-7.848-3.68,1.667,1.667,0,0,0-1.991.229c-1.482,1.419-3.952,1.316-5.75.582-2.217-.9-4.059-2.689-5.84-4.424a1.658,1.658,0,0,0-2.227-.08c-3.49,2.952-9.234,1.316-13.382-1.622l-.276-.193a8.528,8.528,0,0,0-4.8-2.057,8.946,8.946,0,0,0-2.516.449,6.488,6.488,0,0,1-1.542.313c-1.16-.017-2.184-1.067-3.367-2.284-.352-.366-.721-.738-1.107-1.1l9.626-2.41a11.166,11.166,0,0,0,7.771,3.2,10.356,10.356,0,0,0,1.782-.153,1.658,1.658,0,1,0-.568-3.267Zm60.987-17.308,26.455-6.628c1.948,4.275,2.387,7.785,1.187,9.952-.9,1.635-2.809,2.6-5.667,2.872-.515.05-1.077.073-1.712.073C856.239,839.763,849.156,836.944,842.176,833.494Zm-98.9,3.553a12.142,12.142,0,0,0,6.153,1.675,11.252,11.252,0,0,0,5.887-1.615,1.658,1.658,0,0,0-1.732-2.829,8.537,8.537,0,0,1-10.776-1.955,1.658,1.658,0,1,0-2.613,2.041,10.864,10.864,0,0,0,2.343,2.194,1.647,1.647,0,0,0-1.612.322,4.531,4.531,0,0,1-4.328.695,8,8,0,0,1-3.965-3.228,1.658,1.658,0,0,0-2.746,1.858,13.03,13.03,0,0,0,2.609,2.839c-.548-.276-1.1-.512-1.645-.738a9.167,9.167,0,0,1-2.815-1.562,2.965,2.965,0,0,1-.721-1.1,3.9,3.9,0,0,1,1.213-4.468,1.655,1.655,0,0,0,.5-2.24,7.933,7.933,0,0,1-.186-7.668,16.059,16.059,0,0,1,1.067-1.649c5.5,1.08,12.987-.791,21.569-2.938,8-2,17.075-4.271,25.588-4.271,15.286,0,29.307,6.026,41.536,12.322-27.107,5.814-59.1,12.751-82.038,17.74a14.092,14.092,0,0,0-2.263-2.28,8.967,8.967,0,0,0,1.276.535,8.385,8.385,0,0,0,2.589.412,7.52,7.52,0,0,0,4.956-1.768A1.656,1.656,0,0,0,743.273,837.047Zm-10.464,6.239c-38.926,8.459-74.323,16.194-85.9,18.724.306-.924.555-1.8.748-2.612.1-.416.183-.821.256-1.217l77.012-20.01a5.674,5.674,0,0,0,.835.984,11.89,11.89,0,0,0,3.816,2.21,15.291,15.291,0,0,1,2.051.977A7.51,7.51,0,0,1,732.809,843.286Zm44.248-34.193c-8.921,0-18.205,2.323-26.392,4.371-8.742,2.187-16.294,4.078-21.007,2.692a6.454,6.454,0,0,1-2.822-1.605c-.854-.854-.911-2.194-.169-3.982,4.052-9.786,31.364-28.832,66.97-28.832.941,0,1.792.02,2.612.057,26.379,1.044,51.534,17.677,65.046,33.9-7.519,1.536-20.146,4.2-37.627,7.948C809.329,816.05,793.77,809.093,777.057,809.093Zm-33.3-216.905c5.468,0,9.9-4.956,9.942-11.1,6.99,5.491,10.723,13.14,12.707,19.9a53.883,53.883,0,0,0-9.051-1.044c-8.2-.519-17.5-1.1-23.115-7.5-3.44-3.919-5.125-9.586-5.122-17.238.14-.459.292-.914.452-1.366a49.253,49.253,0,0,1,6.349.292A12.028,12.028,0,0,0,733.813,581C733.813,587.182,738.274,592.187,743.762,592.187Zm-5.488-11.67A3.729,3.729,0,1,1,742,584.247,3.724,3.724,0,0,1,738.274,580.517ZM475.223,674.807c0-200.276,145.076-367.292,335.652-401.512a147.782,147.782,0,0,0-1.074,17.929,142.248,142.248,0,0,0,2.822,28.609c-19.9,6.219-59.322,36.39-72.491,70.985-.136.349-.266.721-.4,1.08-29.862,23.736-64.065,105.009-17.284,196.7-.03-.675-.043-1.37-.04-2.071q-.005,1.087.043,2.181a46.174,46.174,0,0,0,4.806,18.644c-.515,5.677-.116,13.914,1.04,23.826-11.188.126-58.707,10.311-108.9,41.1-28.373,17.4-52.741,38.378-72.421,62.333A254.308,254.308,0,0,0,501.3,818.347,405.976,405.976,0,0,1,475.223,674.807Zm28.961,150.972C527.208,748.3,580.478,701.99,622,676.518c49.613-30.434,96.084-40.372,106.518-40.372a2.707,2.707,0,0,0,.4-.04c5.687,42.367,23.507,110.095,43.154,144.6C747.029,786,727.7,799.407,723.6,809.3c-1.709,4.128-.176,6.531.891,7.6a9.3,9.3,0,0,0,2.164,1.582c-.259.389-.512.791-.741,1.213a11.219,11.219,0,0,0-.376,9.719,7.242,7.242,0,0,0-1.745,5.627l-75.5,19.614c.047-3.178-.894-5.408-2.755-6.339-10.9-5.448-26.272-5.308-32.834-5.245-.552,0-1.034.01-1.436.01-2.889,0-5.867-.03-8.915-.063-26.026-.256-57.833-.572-82.373,17.477Q511.3,843.577,504.184,825.779Zm131.331,24.228c-1.2,9.8-5.228,14.9-8.779,16.407a5.141,5.141,0,0,1-5.531-.711c-3.367-2.8-4.421-9.314-2.932-17.65A81.561,81.561,0,0,1,635.515,850.007ZM522.322,864.974c23.35-17.534,54.522-17.235,79.987-16.982,3.065.03,6.06.06,8.965.06.415,0,.911-.007,1.482-.01.635-.007,1.363-.013,2.16-.017-1.572,9.387-.1,16.673,4.168,20.226a8.283,8.283,0,0,0,5.348,1.975,9.206,9.206,0,0,0,3.6-.761c4.341-1.845,9.227-7.678,10.7-18.551a33.561,33.561,0,0,1,4.378,1.745c.539,1.17.356,6.525-3.261,13.246-2.34,4.351-9.164,14.476-21.944,14.476-12.219,0-22.423-7.7-22.523-7.775a2.487,2.487,0,0,0-3.347.289c-.186.206-17.929,19.056-52.468,21.609Q530.348,880.14,522.322,864.974Zm20.332,34.263c29.32-2.872,46.448-16.729,51.491-21.439,3.743,2.436,12.9,7.555,23.759,7.555,14.848,0,23.54-10.723,27.548-19.631,8.729-1.908,47.918-10.474,90.786-19.787,24.265-5.278,59.149-12.844,87.535-18.923,20.053-4.3,33.794-7.2,40.844-8.609l1.931-.382c2.43-.482,3.261-.618,3.53-.648a5.4,5.4,0,0,1,4.753,1.389,1.983,1.983,0,0,1,.512,1.8,3.182,3.182,0,0,1-2.513,1.835c-.286.07-1.18.292-2.619.651l-1.08.273-.027.007L702.5,865.067c-3.749-3.39-9.683-7.12-17.118-6.305s-14.572,6.1-21.183,15.692c-.06.083-.116.169-.173.256L546.042,904.273Q544.332,901.765,542.655,899.237Zm5.395,7.951c18.67-4.68,63.121-15.819,113.379-28.41q-2.209,3.685-4.311,7.967a2.191,2.191,0,0,0-.113.312c-7.23-2.114-17.9-3.3-27.329,1.084-7.2,3.341-12.621,9.3-16.174,17.753-11.089-5.7-31.564-9.968-49.41,4.9a2.486,2.486,0,1,0,3.184,3.819c18.491-15.406,38.6-7.027,44.514-3.975-.143.462-.289.917-.422,1.393a2.487,2.487,0,0,0,1.719,3.068,2.514,2.514,0,0,0,.678.093,2.485,2.485,0,0,0,2.39-1.812c2.905-10.294,8.157-17.271,15.616-20.731,10.357-4.81,22.606-1.782,28.21.768a2.487,2.487,0,0,0,2.061-4.527c-.116-.053-.236-.106-.356-.156a92.563,92.563,0,0,1,6.611-11.464c5.754-8.343,11.687-12.907,17.633-13.568,5.741-.635,10.49,2.506,13.462,5.255a25.906,25.906,0,0,1,1.841,1.881,39.757,39.757,0,0,1-2.549,4.3c-4.577-3.716-9.43-5.1-13.6-3.8a9.175,9.175,0,0,0-6.346,7.21c-.851,4.557,1.233,9.487,5.754,13.8a168.108,168.108,0,0,1-25.84,21.885c-18.594,12.714-48.017,26.877-85.474,25.464A410.4,410.4,0,0,1,548.049,907.188Zm148.732-29.314a133.135,133.135,0,0,1-10.008,12.072c-3.636-3.49-5.4-7.412-4.776-10.783a5.838,5.838,0,0,1,4.078-4.65C689.16,873.55,693.058,874.8,696.781,877.875Zm-119.189,66.91c.263,0,.532.01.8.01,30.6,0,55.7-9.925,73.8-20.562-9.25,12.774-28.423,33.738-52.219,43.922Q588.327,956.917,577.592,944.785ZM883.16,1082.744A406.455,406.455,0,0,1,603.881,971.885c31.115-14.13,53.658-44.776,58.132-53.92,26.222-18.085,42.187-40.386,44.441-46.694a2.479,2.479,0,0,0-.326-2.294c-.027-.036-.352-.482-.937-1.163l53.036-13.289a7.63,7.63,0,0,1,3.081,2.323c1.482,1.526,3.164,3.254,5.7,3.291a8.013,8.013,0,0,0,2.513-.449,8.184,8.184,0,0,1,1.542-.313,6,6,0,0,1,2.922,1.443l.283.2c4.767,3.374,11.4,5.229,16.207,2.33a19.286,19.286,0,0,0,5.907,4.158,9.023,9.023,0,0,0,8.277-.456,34.857,34.857,0,0,0,6.093,2.968c.5,1.154,1.183,2.746,1.346,3.1,9.762,21.476,33.618,57.823,61.117,57.823a84.867,84.867,0,0,0,14.566-1.373c4.663,16.231,27.788,92.564,64.756,147.263A408.673,408.673,0,0,1,883.16,1082.744Zm179.3-164.4c26.139-79.837,33.714-176.786,23.161-296.393-.023-.249-.08-.7-.16-1.257.618-4.464,1.107-8.911,1.529-13.335,33.036,185.91-4,355.11-93.9,460.309-4.7,1.316-9.42,2.576-14.186,3.726C1010.024,1030.209,1041.1,983.575,1062.455,918.346Zm40.369,100.073c23.922-61.482,41.017-137.128,47.379-210.613,5.8-66.947,5.278-164.018-29.759-247.8a213.061,213.061,0,0,1,38.089-13.086c29.144-7,72.169-10.261,115.722,11.78a407.985,407.985,0,0,1,16.846,116.1C1291.1,818.928,1215.973,945.835,1102.824,1018.419ZM812.766,850.811a1.658,1.658,0,1,1,2.1-2.563,7.28,7.28,0,0,0,9.028.16,1.658,1.658,0,1,1,2.011,2.636,10.639,10.639,0,0,1-6.428,2.17H819.3A10.623,10.623,0,0,1,812.766,850.811ZM830.2,861.168a1.655,1.655,0,0,1-.05,2.343,9.185,9.185,0,0,1-6.352,2.393,10.526,10.526,0,0,1-1.243-.073,15.018,15.018,0,0,1-6.907-2.915,1.658,1.658,0,1,1,1.934-2.692,11.73,11.73,0,0,0,5.368,2.313,6.084,6.084,0,0,0,4.906-1.419A1.656,1.656,0,0,1,830.2,861.168Zm16.819-185.983a20.322,20.322,0,0,1-.857,26.279,2.072,2.072,0,1,1-3.1-2.752,16.024,16.024,0,0,0,.685-20.977c-3.763-4.826-11.408-8.765-20.558-3.992a2.072,2.072,0,1,1-1.918-3.673C832.686,664.114,842.276,669.106,847.022,675.186ZM808.973,516.9a7.252,7.252,0,0,0,4.973,1.659c8.29,0,40.618-53.053,68.8-53.053s24.866,29.014,24.866,29.014-3.314-7.462-20.721-7.462c-28.183,0-51.394,53.881-65.488,53.881S807.315,524.356,808.973,516.9Zm99.039,5.159a1.657,1.657,0,0,1-1.413,1.871c-26.747,3.716-66.541,25.99-66.541,72.132a1.659,1.659,0,0,1-3.317,0c0-21.027,8.067-39.578,23.331-53.648a87.268,87.268,0,0,1,46.069-21.768A1.652,1.652,0,0,1,908.013,522.056ZM844.167,854.1a1.668,1.668,0,0,1,.642-.4,10.5,10.5,0,0,1-2.094-.635A1.658,1.658,0,0,1,844,850.01a8.081,8.081,0,0,0,8.456-1.509,1.658,1.658,0,0,1,2.271,2.417,11.449,11.449,0,0,1-7.775,2.985c-.236,0-.472-.017-.7-.033a1.713,1.713,0,0,1,.259.213,1.658,1.658,0,0,1,.017,2.343,13.051,13.051,0,0,1-1.373,1.193,1.657,1.657,0,0,1,1.393.389,4.249,4.249,0,0,0,5.817-.15,1.658,1.658,0,0,1,2.33,2.36,7.664,7.664,0,0,1-5.125,2.18h-.186a7.648,7.648,0,0,1-5.042-1.915,1.663,1.663,0,0,1-.332-2.071,13.171,13.171,0,0,1-5.767,1.945c-.342.026-.688.043-1.03.043a12.254,12.254,0,0,1-7.8-2.775,1.658,1.658,0,1,1,2.121-2.549,8.958,8.958,0,0,0,6.432,1.978A10.058,10.058,0,0,0,844.167,854.1ZM825.46,840.81a1.658,1.658,0,0,1,2.2-.821,6.667,6.667,0,0,0,7.316-1.353,1.658,1.658,0,0,1,2.367,2.323,9.932,9.932,0,0,1-7.057,2.905,9.636,9.636,0,0,1-4.005-.858A1.656,1.656,0,0,1,825.46,840.81ZM796.343,726.135a12.041,12.041,0,0,0,8.9,3.8c9.593,0,14.077-19,15.21-27.682a3.656,3.656,0,0,1-.286-.768,3.8,3.8,0,0,1,2.772-4.614,3.657,3.657,0,0,1,.8-.11l.1,0a22.941,22.941,0,0,1,9.124,1.459,18.154,18.154,0,0,1,7.316,5.385,2.083,2.083,0,0,1-2.9,2.958l-.033-.03a13.09,13.09,0,0,0-6.053-2.706,16.369,16.369,0,0,0-6.521.432,3.393,3.393,0,0,1-.445.063c-1.243,7.894-5.88,29.759-19.089,29.759a16.194,16.194,0,0,1-11.836-5.019c-14.286-14.369-14.037-57.015-13.8-98.258.186-32.372.4-69.061-9.373-69.978a2.072,2.072,0,1,1,.389-4.125c13.552,1.27,13.365,33.422,13.13,74.127C783.525,669.336,783.273,712.989,796.343,726.135ZM1018.33,693.82c2.353-10.2,16.167-37.065,34.143-40.994-2.406-9.932,2.171-23.9,7.406-39.867,8.024-24.487,17.122-52.245,1.971-70.71a1.3,1.3,0,0,0-1.585-.425c-6.628,1.772-20.066,23.6-22.124,35.925-1.313,7.881,2.44,10.733,6.409,13.751,2.762,2.1,5.621,4.275,6.043,8.061.9,8.107-13.522,21.539-16.424,24.152a2.072,2.072,0,0,1-2.772-3.081c6.1-5.5,15.592-15.955,15.077-20.612-.216-1.925-1.825-3.237-4.434-5.222-4.1-3.115-9.709-7.383-7.987-17.73,2.244-13.442,16.118-36.836,25.146-39.246a5.4,5.4,0,0,1,5.857,1.8c16.593,20.226,7.12,49.127-1.236,74.629-5.2,15.872-10.115,30.866-6.728,39.491a2.075,2.075,0,0,1-1.732,2.822c-16.058,1.529-30.59,27.791-32.993,38.192a2.071,2.071,0,1,1-4.035-.934Z" transform="translate(-458.643 -220.142)" fill="#090b0b"/>
    </g>
  </g>
</svg>
